<mxfile host="app.diagrams.net" agent="Mozilla/5.0 (Windows NT 10.0; Win64; x64) AppleWebKit/537.36 (KHTML, like Gecko) Chrome/135.0.0.0 Safari/537.36" version="26.2.13" pages="10">
  <diagram id="6a731a19-8d31-9384-78a2-239565b7b9f0" name="Page-1">
    <mxGraphModel dx="970" dy="1458" grid="1" gridSize="10" guides="1" tooltips="1" connect="1" arrows="1" fold="1" page="1" pageScale="1" pageWidth="1169" pageHeight="827" background="none" math="0" shadow="0">
      <root>
        <mxCell id="0" />
        <mxCell id="1" parent="0" />
        <mxCell id="45" value="" style="edgeStyle=elbowEdgeStyle;elbow=horizontal;exitX=1;exitY=0.5;exitPerimeter=0;entryX=0.905;entryY=0.5;entryPerimeter=0;fontStyle=1;strokeColor=#003366;strokeWidth=1;html=1;" parent="1" target="34" edge="1">
          <mxGeometry width="100" height="100" as="geometry">
            <mxPoint x="380.5" y="1119.25" as="sourcePoint" />
            <mxPoint x="100" as="targetPoint" />
            <Array as="points">
              <mxPoint x="950" y="1320" />
            </Array>
          </mxGeometry>
        </mxCell>
        <mxCell id="aWMGVlatruww7D8yQulM-55" value="添加课程" style="shape=process;whiteSpace=wrap;html=1;backgroundOutline=1;" vertex="1" parent="1">
          <mxGeometry x="960" y="90" width="80" height="30" as="geometry" />
        </mxCell>
        <mxCell id="aWMGVlatruww7D8yQulM-121" value="" style="edgeStyle=orthogonalEdgeStyle;rounded=0;orthogonalLoop=1;jettySize=auto;html=1;" edge="1" parent="1" source="aWMGVlatruww7D8yQulM-56" target="aWMGVlatruww7D8yQulM-102">
          <mxGeometry relative="1" as="geometry" />
        </mxCell>
        <mxCell id="aWMGVlatruww7D8yQulM-56" value="查询课程" style="shape=process;whiteSpace=wrap;html=1;backgroundOutline=1;" vertex="1" parent="1">
          <mxGeometry x="1440" y="90" width="80" height="30" as="geometry" />
        </mxCell>
        <mxCell id="aWMGVlatruww7D8yQulM-57" value="删除课程" style="shape=process;whiteSpace=wrap;html=1;backgroundOutline=1;" vertex="1" parent="1">
          <mxGeometry x="1280" y="90" width="80" height="30" as="geometry" />
        </mxCell>
        <mxCell id="aWMGVlatruww7D8yQulM-58" value="修改课程" style="shape=process;whiteSpace=wrap;html=1;backgroundOutline=1;" vertex="1" parent="1">
          <mxGeometry x="1120" y="90" width="80" height="30" as="geometry" />
        </mxCell>
        <mxCell id="aWMGVlatruww7D8yQulM-61" value="" style="endArrow=classic;html=1;rounded=0;entryX=0.5;entryY=0;entryDx=0;entryDy=0;" edge="1" parent="1" target="aWMGVlatruww7D8yQulM-55">
          <mxGeometry width="50" height="50" relative="1" as="geometry">
            <mxPoint x="1200" y="50" as="sourcePoint" />
            <mxPoint x="1000" y="40" as="targetPoint" />
            <Array as="points">
              <mxPoint x="1000" y="50" />
            </Array>
          </mxGeometry>
        </mxCell>
        <mxCell id="aWMGVlatruww7D8yQulM-62" value="" style="endArrow=classic;html=1;rounded=0;entryX=0.5;entryY=0;entryDx=0;entryDy=0;" edge="1" parent="1" target="aWMGVlatruww7D8yQulM-58">
          <mxGeometry width="50" height="50" relative="1" as="geometry">
            <mxPoint x="1160" y="50" as="sourcePoint" />
            <mxPoint x="1130" y="180" as="targetPoint" />
          </mxGeometry>
        </mxCell>
        <mxCell id="aWMGVlatruww7D8yQulM-63" value="" style="endArrow=classic;html=1;rounded=0;entryX=0.5;entryY=0;entryDx=0;entryDy=0;" edge="1" parent="1" target="aWMGVlatruww7D8yQulM-56">
          <mxGeometry width="50" height="50" relative="1" as="geometry">
            <mxPoint x="1280" y="50" as="sourcePoint" />
            <mxPoint x="1480" y="50" as="targetPoint" />
            <Array as="points">
              <mxPoint x="1480" y="50" />
            </Array>
          </mxGeometry>
        </mxCell>
        <mxCell id="aWMGVlatruww7D8yQulM-64" value="" style="endArrow=classic;html=1;rounded=0;entryX=0.5;entryY=0;entryDx=0;entryDy=0;" edge="1" parent="1" target="aWMGVlatruww7D8yQulM-57">
          <mxGeometry width="50" height="50" relative="1" as="geometry">
            <mxPoint x="1320" y="50" as="sourcePoint" />
            <mxPoint x="1130" y="180" as="targetPoint" />
          </mxGeometry>
        </mxCell>
        <mxCell id="aWMGVlatruww7D8yQulM-143" value="" style="edgeStyle=orthogonalEdgeStyle;rounded=0;orthogonalLoop=1;jettySize=auto;html=1;" edge="1" parent="1" source="aWMGVlatruww7D8yQulM-76" target="aWMGVlatruww7D8yQulM-90">
          <mxGeometry relative="1" as="geometry" />
        </mxCell>
        <mxCell id="aWMGVlatruww7D8yQulM-76" value="开始" style="ellipse;whiteSpace=wrap;html=1;" vertex="1" parent="1">
          <mxGeometry x="1200" y="-30" width="80" height="30" as="geometry" />
        </mxCell>
        <mxCell id="aWMGVlatruww7D8yQulM-90" value="课程操作" style="rounded=0;whiteSpace=wrap;html=1;" vertex="1" parent="1">
          <mxGeometry x="1200" y="30" width="80" height="30" as="geometry" />
        </mxCell>
        <mxCell id="aWMGVlatruww7D8yQulM-95" value="" style="endArrow=classic;html=1;rounded=0;exitX=0.5;exitY=1;exitDx=0;exitDy=0;" edge="1" parent="1" source="aWMGVlatruww7D8yQulM-55" target="aWMGVlatruww7D8yQulM-96">
          <mxGeometry width="50" height="50" relative="1" as="geometry">
            <mxPoint x="1450" y="160" as="sourcePoint" />
            <mxPoint x="1000" y="160" as="targetPoint" />
          </mxGeometry>
        </mxCell>
        <mxCell id="aWMGVlatruww7D8yQulM-114" value="" style="edgeStyle=orthogonalEdgeStyle;rounded=0;orthogonalLoop=1;jettySize=auto;html=1;" edge="1" parent="1" source="aWMGVlatruww7D8yQulM-96" target="aWMGVlatruww7D8yQulM-99">
          <mxGeometry relative="1" as="geometry" />
        </mxCell>
        <mxCell id="aWMGVlatruww7D8yQulM-96" value="点击添加按钮" style="rounded=0;whiteSpace=wrap;html=1;" vertex="1" parent="1">
          <mxGeometry x="960" y="160" width="80" height="30" as="geometry" />
        </mxCell>
        <mxCell id="aWMGVlatruww7D8yQulM-99" value="添加课程信息" style="rounded=0;whiteSpace=wrap;html=1;" vertex="1" parent="1">
          <mxGeometry x="960" y="220" width="80" height="30" as="geometry" />
        </mxCell>
        <mxCell id="aWMGVlatruww7D8yQulM-111" value="" style="edgeStyle=orthogonalEdgeStyle;rounded=0;orthogonalLoop=1;jettySize=auto;html=1;exitX=0.5;exitY=1;exitDx=0;exitDy=0;" edge="1" parent="1" source="aWMGVlatruww7D8yQulM-103" target="aWMGVlatruww7D8yQulM-105">
          <mxGeometry relative="1" as="geometry" />
        </mxCell>
        <mxCell id="aWMGVlatruww7D8yQulM-112" value="" style="edgeStyle=orthogonalEdgeStyle;rounded=0;orthogonalLoop=1;jettySize=auto;html=1;entryX=0.5;entryY=0;entryDx=0;entryDy=0;" edge="1" parent="1" source="aWMGVlatruww7D8yQulM-100" target="aWMGVlatruww7D8yQulM-103">
          <mxGeometry relative="1" as="geometry">
            <Array as="points" />
          </mxGeometry>
        </mxCell>
        <mxCell id="aWMGVlatruww7D8yQulM-100" value="点击修改按钮" style="rounded=0;whiteSpace=wrap;html=1;" vertex="1" parent="1">
          <mxGeometry x="1120" y="160" width="80" height="30" as="geometry" />
        </mxCell>
        <mxCell id="aWMGVlatruww7D8yQulM-117" style="edgeStyle=orthogonalEdgeStyle;rounded=0;orthogonalLoop=1;jettySize=auto;html=1;exitX=0;exitY=0.5;exitDx=0;exitDy=0;entryX=1;entryY=0.5;entryDx=0;entryDy=0;" edge="1" parent="1" source="aWMGVlatruww7D8yQulM-101" target="aWMGVlatruww7D8yQulM-108">
          <mxGeometry relative="1" as="geometry" />
        </mxCell>
        <mxCell id="aWMGVlatruww7D8yQulM-118" value="是" style="edgeLabel;html=1;align=center;verticalAlign=middle;resizable=0;points=[];" vertex="1" connectable="0" parent="aWMGVlatruww7D8yQulM-117">
          <mxGeometry x="-0.17" y="2" relative="1" as="geometry">
            <mxPoint as="offset" />
          </mxGeometry>
        </mxCell>
        <mxCell id="aWMGVlatruww7D8yQulM-119" value="" style="edgeStyle=orthogonalEdgeStyle;rounded=0;orthogonalLoop=1;jettySize=auto;html=1;entryX=1;entryY=0.5;entryDx=0;entryDy=0;exitX=1;exitY=0.5;exitDx=0;exitDy=0;" edge="1" parent="1" source="aWMGVlatruww7D8yQulM-101" target="aWMGVlatruww7D8yQulM-116">
          <mxGeometry relative="1" as="geometry" />
        </mxCell>
        <mxCell id="aWMGVlatruww7D8yQulM-120" value="否" style="edgeLabel;html=1;align=center;verticalAlign=middle;resizable=0;points=[];" vertex="1" connectable="0" parent="aWMGVlatruww7D8yQulM-119">
          <mxGeometry x="-0.5768" y="-2" relative="1" as="geometry">
            <mxPoint as="offset" />
          </mxGeometry>
        </mxCell>
        <mxCell id="aWMGVlatruww7D8yQulM-101" value="确认删除？" style="rhombus;whiteSpace=wrap;html=1;" vertex="1" parent="1">
          <mxGeometry x="1270" y="160" width="100" height="30" as="geometry" />
        </mxCell>
        <mxCell id="aWMGVlatruww7D8yQulM-124" value="" style="edgeStyle=orthogonalEdgeStyle;rounded=0;orthogonalLoop=1;jettySize=auto;html=1;" edge="1" parent="1" source="aWMGVlatruww7D8yQulM-102" target="aWMGVlatruww7D8yQulM-122">
          <mxGeometry relative="1" as="geometry" />
        </mxCell>
        <mxCell id="aWMGVlatruww7D8yQulM-126" value="是" style="edgeLabel;html=1;align=center;verticalAlign=middle;resizable=0;points=[];" vertex="1" connectable="0" parent="aWMGVlatruww7D8yQulM-124">
          <mxGeometry x="-0.4603" y="-2" relative="1" as="geometry">
            <mxPoint as="offset" />
          </mxGeometry>
        </mxCell>
        <mxCell id="aWMGVlatruww7D8yQulM-125" style="edgeStyle=orthogonalEdgeStyle;rounded=0;orthogonalLoop=1;jettySize=auto;html=1;exitX=1;exitY=0.5;exitDx=0;exitDy=0;entryX=0.5;entryY=0;entryDx=0;entryDy=0;" edge="1" parent="1" source="aWMGVlatruww7D8yQulM-102" target="aWMGVlatruww7D8yQulM-123">
          <mxGeometry relative="1" as="geometry" />
        </mxCell>
        <mxCell id="aWMGVlatruww7D8yQulM-127" value="否" style="edgeLabel;html=1;align=center;verticalAlign=middle;resizable=0;points=[];" vertex="1" connectable="0" parent="aWMGVlatruww7D8yQulM-125">
          <mxGeometry x="-0.252" y="1" relative="1" as="geometry">
            <mxPoint as="offset" />
          </mxGeometry>
        </mxCell>
        <mxCell id="aWMGVlatruww7D8yQulM-102" value="检查是否与后端连接成功？" style="rhombus;whiteSpace=wrap;html=1;" vertex="1" parent="1">
          <mxGeometry x="1430" y="160" width="100" height="30" as="geometry" />
        </mxCell>
        <mxCell id="aWMGVlatruww7D8yQulM-103" value="显示课程信息" style="rounded=0;whiteSpace=wrap;html=1;" vertex="1" parent="1">
          <mxGeometry x="1120" y="220" width="80" height="30" as="geometry" />
        </mxCell>
        <mxCell id="aWMGVlatruww7D8yQulM-113" value="" style="edgeStyle=orthogonalEdgeStyle;rounded=0;orthogonalLoop=1;jettySize=auto;html=1;" edge="1" parent="1" source="aWMGVlatruww7D8yQulM-105" target="aWMGVlatruww7D8yQulM-108">
          <mxGeometry relative="1" as="geometry" />
        </mxCell>
        <mxCell id="aWMGVlatruww7D8yQulM-105" value="修改课程信息" style="rounded=0;whiteSpace=wrap;html=1;" vertex="1" parent="1">
          <mxGeometry x="1120" y="281" width="80" height="30" as="geometry" />
        </mxCell>
        <mxCell id="aWMGVlatruww7D8yQulM-108" value="提交" style="rounded=0;whiteSpace=wrap;html=1;" vertex="1" parent="1">
          <mxGeometry x="1124.5" y="341" width="71" height="34" as="geometry" />
        </mxCell>
        <mxCell id="aWMGVlatruww7D8yQulM-109" value="" style="endArrow=classic;html=1;rounded=0;exitX=0.5;exitY=1;exitDx=0;exitDy=0;entryX=0.5;entryY=0;entryDx=0;entryDy=0;" edge="1" parent="1" source="aWMGVlatruww7D8yQulM-58" target="aWMGVlatruww7D8yQulM-100">
          <mxGeometry width="50" height="50" relative="1" as="geometry">
            <mxPoint x="1370" y="180" as="sourcePoint" />
            <mxPoint x="1420" y="130" as="targetPoint" />
          </mxGeometry>
        </mxCell>
        <mxCell id="aWMGVlatruww7D8yQulM-110" value="" style="endArrow=classic;html=1;rounded=0;entryX=0.5;entryY=0;entryDx=0;entryDy=0;" edge="1" parent="1">
          <mxGeometry width="50" height="50" relative="1" as="geometry">
            <mxPoint x="1319.5" y="120" as="sourcePoint" />
            <mxPoint x="1319.5" y="160" as="targetPoint" />
          </mxGeometry>
        </mxCell>
        <mxCell id="aWMGVlatruww7D8yQulM-115" value="" style="edgeStyle=none;orthogonalLoop=1;jettySize=auto;html=1;rounded=0;exitX=0.5;exitY=1;exitDx=0;exitDy=0;entryX=0;entryY=0.5;entryDx=0;entryDy=0;" edge="1" parent="1" source="aWMGVlatruww7D8yQulM-99" target="aWMGVlatruww7D8yQulM-108">
          <mxGeometry width="100" relative="1" as="geometry">
            <mxPoint x="950" y="270" as="sourcePoint" />
            <mxPoint x="1120" y="360" as="targetPoint" />
            <Array as="points">
              <mxPoint x="1000" y="360" />
            </Array>
          </mxGeometry>
        </mxCell>
        <mxCell id="aWMGVlatruww7D8yQulM-116" value="结束" style="rounded=0;whiteSpace=wrap;html=1;" vertex="1" parent="1">
          <mxGeometry x="1160" y="460" width="40" height="40" as="geometry" />
        </mxCell>
        <mxCell id="aWMGVlatruww7D8yQulM-122" value="显示页面数据" style="rounded=0;whiteSpace=wrap;html=1;" vertex="1" parent="1">
          <mxGeometry x="1460" y="228" width="40" height="33" as="geometry" />
        </mxCell>
        <mxCell id="aWMGVlatruww7D8yQulM-123" value="显示空页面" style="rounded=0;whiteSpace=wrap;html=1;" vertex="1" parent="1">
          <mxGeometry x="1550" y="217" width="40" height="33" as="geometry" />
        </mxCell>
        <mxCell id="aWMGVlatruww7D8yQulM-129" value="" style="endArrow=none;html=1;rounded=0;entryX=0.5;entryY=1;entryDx=0;entryDy=0;" edge="1" parent="1" target="aWMGVlatruww7D8yQulM-122">
          <mxGeometry width="50" height="50" relative="1" as="geometry">
            <mxPoint x="1390" y="480" as="sourcePoint" />
            <mxPoint x="1420" y="340" as="targetPoint" />
            <Array as="points">
              <mxPoint x="1480" y="480" />
            </Array>
          </mxGeometry>
        </mxCell>
        <mxCell id="aWMGVlatruww7D8yQulM-130" value="" style="endArrow=none;html=1;rounded=0;entryX=0.5;entryY=1;entryDx=0;entryDy=0;" edge="1" parent="1" target="aWMGVlatruww7D8yQulM-123">
          <mxGeometry width="50" height="50" relative="1" as="geometry">
            <mxPoint x="1480" y="480" as="sourcePoint" />
            <mxPoint x="1570" y="261" as="targetPoint" />
            <Array as="points">
              <mxPoint x="1570" y="480" />
            </Array>
          </mxGeometry>
        </mxCell>
        <mxCell id="aWMGVlatruww7D8yQulM-137" value="" style="edgeStyle=orthogonalEdgeStyle;rounded=0;orthogonalLoop=1;jettySize=auto;html=1;" edge="1" parent="1" source="aWMGVlatruww7D8yQulM-132" target="aWMGVlatruww7D8yQulM-135">
          <mxGeometry relative="1" as="geometry" />
        </mxCell>
        <mxCell id="aWMGVlatruww7D8yQulM-141" value="是" style="edgeLabel;html=1;align=center;verticalAlign=middle;resizable=0;points=[];" vertex="1" connectable="0" parent="aWMGVlatruww7D8yQulM-137">
          <mxGeometry x="-0.1833" y="2" relative="1" as="geometry">
            <mxPoint as="offset" />
          </mxGeometry>
        </mxCell>
        <mxCell id="aWMGVlatruww7D8yQulM-138" value="" style="edgeStyle=orthogonalEdgeStyle;rounded=0;orthogonalLoop=1;jettySize=auto;html=1;" edge="1" parent="1" source="aWMGVlatruww7D8yQulM-132" target="aWMGVlatruww7D8yQulM-136">
          <mxGeometry relative="1" as="geometry" />
        </mxCell>
        <mxCell id="aWMGVlatruww7D8yQulM-142" value="否" style="edgeLabel;html=1;align=center;verticalAlign=middle;resizable=0;points=[];" vertex="1" connectable="0" parent="aWMGVlatruww7D8yQulM-138">
          <mxGeometry x="-0.1167" y="2" relative="1" as="geometry">
            <mxPoint as="offset" />
          </mxGeometry>
        </mxCell>
        <mxCell id="aWMGVlatruww7D8yQulM-132" value="是否上传后端成功？" style="rhombus;whiteSpace=wrap;html=1;" vertex="1" parent="1">
          <mxGeometry x="1120" y="401.5" width="80" height="34" as="geometry" />
        </mxCell>
        <mxCell id="aWMGVlatruww7D8yQulM-133" value="" style="endArrow=classic;html=1;rounded=0;exitX=0.5;exitY=1;exitDx=0;exitDy=0;entryX=0.5;entryY=0;entryDx=0;entryDy=0;" edge="1" parent="1" source="aWMGVlatruww7D8yQulM-108" target="aWMGVlatruww7D8yQulM-132">
          <mxGeometry width="50" height="50" relative="1" as="geometry">
            <mxPoint x="1370" y="260" as="sourcePoint" />
            <mxPoint x="1420" y="210" as="targetPoint" />
          </mxGeometry>
        </mxCell>
        <mxCell id="aWMGVlatruww7D8yQulM-135" value="操作成功&lt;span style=&quot;color: rgba(0, 0, 0, 0); font-family: monospace; font-size: 0px; text-align: start; text-wrap-mode: nowrap;&quot;&gt;%3CmxGraphModel%3E%3Croot%3E%3CmxCell%20id%3D%220%22%2F%3E%3CmxCell%20id%3D%221%22%20parent%3D%220%22%2F%3E%3CmxCell%20id%3D%222%22%20value%3D%22%E6%B7%BB%E5%8A%A0%E8%AF%BE%E7%A8%8B%E4%BF%A1%E6%81%AF%22%20style%3D%22rounded%3D0%3BwhiteSpace%3Dwrap%3Bhtml%3D1%3B%22%20vertex%3D%221%22%20parent%3D%221%22%3E%3CmxGeometry%20x%3D%22960%22%20y%3D%22220%22%20width%3D%2280%22%20height%3D%2230%22%20as%3D%22geometry%22%2F%3E%3C%2FmxCell%3E%3C%2Froot%3E%3C%2FmxGraphModel%3E&lt;/span&gt;" style="rounded=0;whiteSpace=wrap;html=1;" vertex="1" parent="1">
          <mxGeometry x="1000" y="403.5" width="80" height="30" as="geometry" />
        </mxCell>
        <mxCell id="aWMGVlatruww7D8yQulM-136" value="操作失败" style="rounded=0;whiteSpace=wrap;html=1;" vertex="1" parent="1">
          <mxGeometry x="1240" y="403.5" width="80" height="30" as="geometry" />
        </mxCell>
        <mxCell id="aWMGVlatruww7D8yQulM-139" value="" style="endArrow=classic;html=1;rounded=0;exitX=0.5;exitY=1;exitDx=0;exitDy=0;entryX=0;entryY=0.5;entryDx=0;entryDy=0;" edge="1" parent="1" source="aWMGVlatruww7D8yQulM-135" target="aWMGVlatruww7D8yQulM-116">
          <mxGeometry width="50" height="50" relative="1" as="geometry">
            <mxPoint x="1370" y="260" as="sourcePoint" />
            <mxPoint x="1420" y="210" as="targetPoint" />
            <Array as="points">
              <mxPoint x="1040" y="480" />
            </Array>
          </mxGeometry>
        </mxCell>
        <mxCell id="aWMGVlatruww7D8yQulM-140" value="" style="endArrow=none;html=1;rounded=0;exitX=0.5;exitY=1;exitDx=0;exitDy=0;" edge="1" parent="1" source="aWMGVlatruww7D8yQulM-136">
          <mxGeometry width="50" height="50" relative="1" as="geometry">
            <mxPoint x="1370" y="260" as="sourcePoint" />
            <mxPoint x="1280" y="480" as="targetPoint" />
          </mxGeometry>
        </mxCell>
      </root>
    </mxGraphModel>
  </diagram>
  <diagram id="aYCMi-YTx87483V4ofmD" name="第 2 页">
    <mxGraphModel dx="143" dy="631" grid="1" gridSize="10" guides="1" tooltips="1" connect="1" arrows="1" fold="1" page="1" pageScale="1" pageWidth="827" pageHeight="1169" math="0" shadow="0">
      <root>
        <mxCell id="0" />
        <mxCell id="1" parent="0" />
        <mxCell id="k8eMBP_mq2JklAbNVoAG-7" value="视频操作" style="rounded=0;whiteSpace=wrap;html=1;" vertex="1" parent="1">
          <mxGeometry x="1520" y="130" width="80" height="30" as="geometry" />
        </mxCell>
        <mxCell id="jA_BRjzaWZLbFcxM8JNO-4" value="" style="edgeStyle=orthogonalEdgeStyle;rounded=0;orthogonalLoop=1;jettySize=auto;html=1;" edge="1" parent="1" source="jA_BRjzaWZLbFcxM8JNO-1" target="k8eMBP_mq2JklAbNVoAG-7">
          <mxGeometry relative="1" as="geometry" />
        </mxCell>
        <mxCell id="jA_BRjzaWZLbFcxM8JNO-1" value="开始" style="ellipse;whiteSpace=wrap;html=1;rounded=0;" vertex="1" parent="1">
          <mxGeometry x="1520" y="70" width="80" height="35" as="geometry" />
        </mxCell>
        <mxCell id="HF7g1FFgwqmuv97Zjj8a-2" value="下载视频" style="shape=process;whiteSpace=wrap;html=1;backgroundOutline=1;" vertex="1" parent="1">
          <mxGeometry x="1760" y="190" width="80" height="30" as="geometry" />
        </mxCell>
        <mxCell id="HF7g1FFgwqmuv97Zjj8a-5" value="" style="endArrow=classic;html=1;rounded=0;entryX=0.5;entryY=0;entryDx=0;entryDy=0;" edge="1" parent="1">
          <mxGeometry width="50" height="50" relative="1" as="geometry">
            <mxPoint x="1520" y="150" as="sourcePoint" />
            <mxPoint x="1320" y="190" as="targetPoint" />
            <Array as="points">
              <mxPoint x="1320" y="150" />
            </Array>
          </mxGeometry>
        </mxCell>
        <mxCell id="HF7g1FFgwqmuv97Zjj8a-6" value="" style="endArrow=classic;html=1;rounded=0;entryX=0.5;entryY=0;entryDx=0;entryDy=0;" edge="1" parent="1">
          <mxGeometry width="50" height="50" relative="1" as="geometry">
            <mxPoint x="1480" y="150" as="sourcePoint" />
            <mxPoint x="1480" y="190" as="targetPoint" />
          </mxGeometry>
        </mxCell>
        <mxCell id="HF7g1FFgwqmuv97Zjj8a-7" value="" style="endArrow=classic;html=1;rounded=0;entryX=0.5;entryY=0;entryDx=0;entryDy=0;" edge="1" parent="1" target="HF7g1FFgwqmuv97Zjj8a-2">
          <mxGeometry width="50" height="50" relative="1" as="geometry">
            <mxPoint x="1600" y="150" as="sourcePoint" />
            <mxPoint x="1800" y="150" as="targetPoint" />
            <Array as="points">
              <mxPoint x="1800" y="150" />
            </Array>
          </mxGeometry>
        </mxCell>
        <mxCell id="HF7g1FFgwqmuv97Zjj8a-8" value="" style="endArrow=classic;html=1;rounded=0;entryX=0.5;entryY=0;entryDx=0;entryDy=0;" edge="1" parent="1">
          <mxGeometry width="50" height="50" relative="1" as="geometry">
            <mxPoint x="1640" y="150" as="sourcePoint" />
            <mxPoint x="1640" y="190" as="targetPoint" />
          </mxGeometry>
        </mxCell>
        <mxCell id="HF7g1FFgwqmuv97Zjj8a-9" value="添加视频" style="shape=process;whiteSpace=wrap;html=1;backgroundOutline=1;" vertex="1" parent="1">
          <mxGeometry x="1280" y="190" width="80" height="30" as="geometry" />
        </mxCell>
        <mxCell id="HF7g1FFgwqmuv97Zjj8a-10" value="修改视频" style="shape=process;whiteSpace=wrap;html=1;backgroundOutline=1;" vertex="1" parent="1">
          <mxGeometry x="1440" y="190" width="80" height="30" as="geometry" />
        </mxCell>
        <mxCell id="HF7g1FFgwqmuv97Zjj8a-11" value="删除视频" style="shape=process;whiteSpace=wrap;html=1;backgroundOutline=1;" vertex="1" parent="1">
          <mxGeometry x="1600" y="190" width="80" height="30" as="geometry" />
        </mxCell>
        <mxCell id="Gg_bwvFDGyu1jOZcYoTb-1" value="" style="endArrow=classic;html=1;rounded=0;exitX=0.5;exitY=1;exitDx=0;exitDy=0;" edge="1" parent="1" target="Gg_bwvFDGyu1jOZcYoTb-3">
          <mxGeometry width="50" height="50" relative="1" as="geometry">
            <mxPoint x="1320" y="220" as="sourcePoint" />
            <mxPoint x="1320" y="260" as="targetPoint" />
          </mxGeometry>
        </mxCell>
        <mxCell id="Gg_bwvFDGyu1jOZcYoTb-2" value="" style="edgeStyle=orthogonalEdgeStyle;rounded=0;orthogonalLoop=1;jettySize=auto;html=1;" edge="1" parent="1" source="Gg_bwvFDGyu1jOZcYoTb-3" target="Gg_bwvFDGyu1jOZcYoTb-4">
          <mxGeometry relative="1" as="geometry" />
        </mxCell>
        <mxCell id="Gg_bwvFDGyu1jOZcYoTb-3" value="点击添加按钮" style="rounded=0;whiteSpace=wrap;html=1;" vertex="1" parent="1">
          <mxGeometry x="1280" y="260" width="80" height="30" as="geometry" />
        </mxCell>
        <mxCell id="Gg_bwvFDGyu1jOZcYoTb-4" value="添加视频信息" style="rounded=0;whiteSpace=wrap;html=1;" vertex="1" parent="1">
          <mxGeometry x="1280" y="320" width="80" height="30" as="geometry" />
        </mxCell>
        <mxCell id="Gg_bwvFDGyu1jOZcYoTb-5" value="" style="edgeStyle=orthogonalEdgeStyle;rounded=0;orthogonalLoop=1;jettySize=auto;html=1;exitX=0.5;exitY=1;exitDx=0;exitDy=0;" edge="1" parent="1" source="Gg_bwvFDGyu1jOZcYoTb-13" target="Gg_bwvFDGyu1jOZcYoTb-15">
          <mxGeometry relative="1" as="geometry" />
        </mxCell>
        <mxCell id="Gg_bwvFDGyu1jOZcYoTb-6" value="" style="edgeStyle=orthogonalEdgeStyle;rounded=0;orthogonalLoop=1;jettySize=auto;html=1;entryX=0.5;entryY=0;entryDx=0;entryDy=0;" edge="1" parent="1" source="Gg_bwvFDGyu1jOZcYoTb-7" target="Gg_bwvFDGyu1jOZcYoTb-13">
          <mxGeometry relative="1" as="geometry">
            <Array as="points" />
          </mxGeometry>
        </mxCell>
        <mxCell id="Gg_bwvFDGyu1jOZcYoTb-7" value="点击修改按钮" style="rounded=0;whiteSpace=wrap;html=1;" vertex="1" parent="1">
          <mxGeometry x="1440" y="260" width="80" height="30" as="geometry" />
        </mxCell>
        <mxCell id="Gg_bwvFDGyu1jOZcYoTb-8" style="edgeStyle=orthogonalEdgeStyle;rounded=0;orthogonalLoop=1;jettySize=auto;html=1;exitX=0;exitY=0.5;exitDx=0;exitDy=0;entryX=1;entryY=0.5;entryDx=0;entryDy=0;" edge="1" parent="1" source="Gg_bwvFDGyu1jOZcYoTb-12" target="Gg_bwvFDGyu1jOZcYoTb-16">
          <mxGeometry relative="1" as="geometry" />
        </mxCell>
        <mxCell id="Gg_bwvFDGyu1jOZcYoTb-9" value="是" style="edgeLabel;html=1;align=center;verticalAlign=middle;resizable=0;points=[];" vertex="1" connectable="0" parent="Gg_bwvFDGyu1jOZcYoTb-8">
          <mxGeometry x="-0.17" y="2" relative="1" as="geometry">
            <mxPoint as="offset" />
          </mxGeometry>
        </mxCell>
        <mxCell id="Gg_bwvFDGyu1jOZcYoTb-10" value="" style="edgeStyle=orthogonalEdgeStyle;rounded=0;orthogonalLoop=1;jettySize=auto;html=1;entryX=1;entryY=0.5;entryDx=0;entryDy=0;exitX=1;exitY=0.5;exitDx=0;exitDy=0;" edge="1" parent="1" source="Gg_bwvFDGyu1jOZcYoTb-12" target="Gg_bwvFDGyu1jOZcYoTb-20">
          <mxGeometry relative="1" as="geometry" />
        </mxCell>
        <mxCell id="Gg_bwvFDGyu1jOZcYoTb-11" value="否" style="edgeLabel;html=1;align=center;verticalAlign=middle;resizable=0;points=[];" vertex="1" connectable="0" parent="Gg_bwvFDGyu1jOZcYoTb-10">
          <mxGeometry x="-0.5768" y="-2" relative="1" as="geometry">
            <mxPoint as="offset" />
          </mxGeometry>
        </mxCell>
        <mxCell id="Gg_bwvFDGyu1jOZcYoTb-12" value="确认删除？" style="rhombus;whiteSpace=wrap;html=1;" vertex="1" parent="1">
          <mxGeometry x="1590" y="260" width="100" height="30" as="geometry" />
        </mxCell>
        <mxCell id="Gg_bwvFDGyu1jOZcYoTb-13" value="显示视频信息" style="rounded=0;whiteSpace=wrap;html=1;" vertex="1" parent="1">
          <mxGeometry x="1440" y="320" width="80" height="30" as="geometry" />
        </mxCell>
        <mxCell id="Gg_bwvFDGyu1jOZcYoTb-14" value="" style="edgeStyle=orthogonalEdgeStyle;rounded=0;orthogonalLoop=1;jettySize=auto;html=1;" edge="1" parent="1" source="Gg_bwvFDGyu1jOZcYoTb-15" target="Gg_bwvFDGyu1jOZcYoTb-16">
          <mxGeometry relative="1" as="geometry" />
        </mxCell>
        <mxCell id="Gg_bwvFDGyu1jOZcYoTb-15" value="修改视频信息" style="rounded=0;whiteSpace=wrap;html=1;" vertex="1" parent="1">
          <mxGeometry x="1440" y="381" width="80" height="30" as="geometry" />
        </mxCell>
        <mxCell id="Gg_bwvFDGyu1jOZcYoTb-16" value="提交" style="rounded=0;whiteSpace=wrap;html=1;" vertex="1" parent="1">
          <mxGeometry x="1444.5" y="441" width="71" height="34" as="geometry" />
        </mxCell>
        <mxCell id="Gg_bwvFDGyu1jOZcYoTb-17" value="" style="endArrow=classic;html=1;rounded=0;exitX=0.5;exitY=1;exitDx=0;exitDy=0;entryX=0.5;entryY=0;entryDx=0;entryDy=0;" edge="1" parent="1" target="Gg_bwvFDGyu1jOZcYoTb-7">
          <mxGeometry width="50" height="50" relative="1" as="geometry">
            <mxPoint x="1480" y="220" as="sourcePoint" />
            <mxPoint x="1740" y="230" as="targetPoint" />
          </mxGeometry>
        </mxCell>
        <mxCell id="Gg_bwvFDGyu1jOZcYoTb-18" value="" style="endArrow=classic;html=1;rounded=0;entryX=0.5;entryY=0;entryDx=0;entryDy=0;" edge="1" parent="1">
          <mxGeometry width="50" height="50" relative="1" as="geometry">
            <mxPoint x="1639.5" y="220" as="sourcePoint" />
            <mxPoint x="1639.5" y="260" as="targetPoint" />
          </mxGeometry>
        </mxCell>
        <mxCell id="Gg_bwvFDGyu1jOZcYoTb-19" value="" style="edgeStyle=none;orthogonalLoop=1;jettySize=auto;html=1;rounded=0;exitX=0.5;exitY=1;exitDx=0;exitDy=0;entryX=0;entryY=0.5;entryDx=0;entryDy=0;" edge="1" parent="1" source="Gg_bwvFDGyu1jOZcYoTb-4" target="Gg_bwvFDGyu1jOZcYoTb-16">
          <mxGeometry width="100" relative="1" as="geometry">
            <mxPoint x="1270" y="370" as="sourcePoint" />
            <mxPoint x="1440" y="460" as="targetPoint" />
            <Array as="points">
              <mxPoint x="1320" y="460" />
            </Array>
          </mxGeometry>
        </mxCell>
        <mxCell id="Gg_bwvFDGyu1jOZcYoTb-20" value="结束" style="rounded=0;whiteSpace=wrap;html=1;" vertex="1" parent="1">
          <mxGeometry x="1480" y="560" width="40" height="40" as="geometry" />
        </mxCell>
        <mxCell id="Gg_bwvFDGyu1jOZcYoTb-21" value="" style="edgeStyle=orthogonalEdgeStyle;rounded=0;orthogonalLoop=1;jettySize=auto;html=1;" edge="1" parent="1" source="Gg_bwvFDGyu1jOZcYoTb-25" target="Gg_bwvFDGyu1jOZcYoTb-27">
          <mxGeometry relative="1" as="geometry" />
        </mxCell>
        <mxCell id="Gg_bwvFDGyu1jOZcYoTb-22" value="是" style="edgeLabel;html=1;align=center;verticalAlign=middle;resizable=0;points=[];" vertex="1" connectable="0" parent="Gg_bwvFDGyu1jOZcYoTb-21">
          <mxGeometry x="-0.1833" y="2" relative="1" as="geometry">
            <mxPoint as="offset" />
          </mxGeometry>
        </mxCell>
        <mxCell id="Gg_bwvFDGyu1jOZcYoTb-23" value="" style="edgeStyle=orthogonalEdgeStyle;rounded=0;orthogonalLoop=1;jettySize=auto;html=1;" edge="1" parent="1" source="Gg_bwvFDGyu1jOZcYoTb-25" target="Gg_bwvFDGyu1jOZcYoTb-28">
          <mxGeometry relative="1" as="geometry" />
        </mxCell>
        <mxCell id="Gg_bwvFDGyu1jOZcYoTb-24" value="否" style="edgeLabel;html=1;align=center;verticalAlign=middle;resizable=0;points=[];" vertex="1" connectable="0" parent="Gg_bwvFDGyu1jOZcYoTb-23">
          <mxGeometry x="-0.1167" y="2" relative="1" as="geometry">
            <mxPoint as="offset" />
          </mxGeometry>
        </mxCell>
        <mxCell id="Gg_bwvFDGyu1jOZcYoTb-25" value="是否上传后端成功？" style="rhombus;whiteSpace=wrap;html=1;" vertex="1" parent="1">
          <mxGeometry x="1440" y="501.5" width="80" height="34" as="geometry" />
        </mxCell>
        <mxCell id="Gg_bwvFDGyu1jOZcYoTb-26" value="" style="endArrow=classic;html=1;rounded=0;exitX=0.5;exitY=1;exitDx=0;exitDy=0;entryX=0.5;entryY=0;entryDx=0;entryDy=0;" edge="1" parent="1" source="Gg_bwvFDGyu1jOZcYoTb-16" target="Gg_bwvFDGyu1jOZcYoTb-25">
          <mxGeometry width="50" height="50" relative="1" as="geometry">
            <mxPoint x="1690" y="360" as="sourcePoint" />
            <mxPoint x="1740" y="310" as="targetPoint" />
          </mxGeometry>
        </mxCell>
        <mxCell id="Gg_bwvFDGyu1jOZcYoTb-27" value="操作成功&lt;span style=&quot;color: rgba(0, 0, 0, 0); font-family: monospace; font-size: 0px; text-align: start; text-wrap-mode: nowrap;&quot;&gt;%3CmxGraphModel%3E%3Croot%3E%3CmxCell%20id%3D%220%22%2F%3E%3CmxCell%20id%3D%221%22%20parent%3D%220%22%2F%3E%3CmxCell%20id%3D%222%22%20value%3D%22%E6%B7%BB%E5%8A%A0%E8%AF%BE%E7%A8%8B%E4%BF%A1%E6%81%AF%22%20style%3D%22rounded%3D0%3BwhiteSpace%3Dwrap%3Bhtml%3D1%3B%22%20vertex%3D%221%22%20parent%3D%221%22%3E%3CmxGeometry%20x%3D%22960%22%20y%3D%22220%22%20width%3D%2280%22%20height%3D%2230%22%20as%3D%22geometry%22%2F%3E%3C%2FmxCell%3E%3C%2Froot%3E%3C%2FmxGraphModel%3E&lt;/span&gt;" style="rounded=0;whiteSpace=wrap;html=1;" vertex="1" parent="1">
          <mxGeometry x="1320" y="503.5" width="80" height="30" as="geometry" />
        </mxCell>
        <mxCell id="Gg_bwvFDGyu1jOZcYoTb-28" value="操作失败" style="rounded=0;whiteSpace=wrap;html=1;" vertex="1" parent="1">
          <mxGeometry x="1560" y="503.5" width="80" height="30" as="geometry" />
        </mxCell>
        <mxCell id="Gg_bwvFDGyu1jOZcYoTb-29" value="" style="endArrow=classic;html=1;rounded=0;exitX=0.5;exitY=1;exitDx=0;exitDy=0;entryX=0;entryY=0.5;entryDx=0;entryDy=0;" edge="1" parent="1" source="Gg_bwvFDGyu1jOZcYoTb-27" target="Gg_bwvFDGyu1jOZcYoTb-20">
          <mxGeometry width="50" height="50" relative="1" as="geometry">
            <mxPoint x="1690" y="360" as="sourcePoint" />
            <mxPoint x="1740" y="310" as="targetPoint" />
            <Array as="points">
              <mxPoint x="1360" y="580" />
            </Array>
          </mxGeometry>
        </mxCell>
        <mxCell id="Gg_bwvFDGyu1jOZcYoTb-30" value="" style="endArrow=none;html=1;rounded=0;exitX=0.5;exitY=1;exitDx=0;exitDy=0;" edge="1" parent="1" source="Gg_bwvFDGyu1jOZcYoTb-28">
          <mxGeometry width="50" height="50" relative="1" as="geometry">
            <mxPoint x="1690" y="360" as="sourcePoint" />
            <mxPoint x="1600" y="580" as="targetPoint" />
          </mxGeometry>
        </mxCell>
        <mxCell id="LkarwP13vw4BPIPJ4kmX-1" value="" style="edgeStyle=orthogonalEdgeStyle;rounded=0;orthogonalLoop=1;jettySize=auto;html=1;" edge="1" parent="1" target="LkarwP13vw4BPIPJ4kmX-7">
          <mxGeometry relative="1" as="geometry">
            <mxPoint x="1802" y="220" as="sourcePoint" />
          </mxGeometry>
        </mxCell>
        <mxCell id="LkarwP13vw4BPIPJ4kmX-2" value="否" style="edgeLabel;html=1;align=center;verticalAlign=middle;resizable=0;points=[];" vertex="1" connectable="0" parent="1">
          <mxGeometry x="1710" y="364" as="geometry" />
        </mxCell>
        <mxCell id="LkarwP13vw4BPIPJ4kmX-3" value="" style="edgeStyle=orthogonalEdgeStyle;rounded=0;orthogonalLoop=1;jettySize=auto;html=1;" edge="1" parent="1" source="LkarwP13vw4BPIPJ4kmX-7" target="LkarwP13vw4BPIPJ4kmX-8">
          <mxGeometry relative="1" as="geometry" />
        </mxCell>
        <mxCell id="LkarwP13vw4BPIPJ4kmX-4" value="是" style="edgeLabel;html=1;align=center;verticalAlign=middle;resizable=0;points=[];" vertex="1" connectable="0" parent="LkarwP13vw4BPIPJ4kmX-3">
          <mxGeometry x="-0.4603" y="-2" relative="1" as="geometry">
            <mxPoint as="offset" />
          </mxGeometry>
        </mxCell>
        <mxCell id="LkarwP13vw4BPIPJ4kmX-5" style="edgeStyle=orthogonalEdgeStyle;rounded=0;orthogonalLoop=1;jettySize=auto;html=1;exitX=1;exitY=0.5;exitDx=0;exitDy=0;entryX=0.5;entryY=0;entryDx=0;entryDy=0;" edge="1" parent="1" source="LkarwP13vw4BPIPJ4kmX-7" target="LkarwP13vw4BPIPJ4kmX-9">
          <mxGeometry relative="1" as="geometry" />
        </mxCell>
        <mxCell id="LkarwP13vw4BPIPJ4kmX-6" value="否" style="edgeLabel;html=1;align=center;verticalAlign=middle;resizable=0;points=[];" vertex="1" connectable="0" parent="LkarwP13vw4BPIPJ4kmX-5">
          <mxGeometry x="-0.252" y="1" relative="1" as="geometry">
            <mxPoint as="offset" />
          </mxGeometry>
        </mxCell>
        <mxCell id="LkarwP13vw4BPIPJ4kmX-7" value="检查是否与后端连接成功？" style="rhombus;whiteSpace=wrap;html=1;" vertex="1" parent="1">
          <mxGeometry x="1752" y="260" width="100" height="30" as="geometry" />
        </mxCell>
        <mxCell id="LkarwP13vw4BPIPJ4kmX-8" value="下载成功" style="rounded=0;whiteSpace=wrap;html=1;" vertex="1" parent="1">
          <mxGeometry x="1782" y="328" width="40" height="33" as="geometry" />
        </mxCell>
        <mxCell id="LkarwP13vw4BPIPJ4kmX-9" value="下载失败" style="rounded=0;whiteSpace=wrap;html=1;" vertex="1" parent="1">
          <mxGeometry x="1872" y="317" width="40" height="33" as="geometry" />
        </mxCell>
        <mxCell id="LkarwP13vw4BPIPJ4kmX-10" value="" style="endArrow=none;html=1;rounded=0;entryX=0.5;entryY=1;entryDx=0;entryDy=0;" edge="1" parent="1" target="LkarwP13vw4BPIPJ4kmX-8">
          <mxGeometry width="50" height="50" relative="1" as="geometry">
            <mxPoint x="1712" y="580" as="sourcePoint" />
            <mxPoint x="1742" y="440" as="targetPoint" />
            <Array as="points">
              <mxPoint x="1802" y="580" />
            </Array>
          </mxGeometry>
        </mxCell>
        <mxCell id="LkarwP13vw4BPIPJ4kmX-11" value="" style="endArrow=none;html=1;rounded=0;entryX=0.5;entryY=1;entryDx=0;entryDy=0;" edge="1" parent="1" target="LkarwP13vw4BPIPJ4kmX-9">
          <mxGeometry width="50" height="50" relative="1" as="geometry">
            <mxPoint x="1802" y="580" as="sourcePoint" />
            <mxPoint x="1892" y="361" as="targetPoint" />
            <Array as="points">
              <mxPoint x="1892" y="580" />
            </Array>
          </mxGeometry>
        </mxCell>
      </root>
    </mxGraphModel>
  </diagram>
  <diagram id="_N8LhJxWUYTJwUcd2mxG" name="第 3 页">
    <mxGraphModel dx="970" dy="631" grid="1" gridSize="10" guides="1" tooltips="1" connect="1" arrows="1" fold="1" page="1" pageScale="1" pageWidth="827" pageHeight="1169" math="0" shadow="0">
      <root>
        <mxCell id="0" />
        <mxCell id="1" parent="0" />
        <mxCell id="x9Y5ngnpooVD6t2R-EWt-1" value="analyse project&#xa; documentation" style="shape=mxgraph.flowchart.data;strokeWidth=2;gradientColor=none;gradientDirection=north;fontStyle=0;html=1;" vertex="1" parent="1">
          <mxGeometry x="240.5" y="130" width="159" height="80" as="geometry" />
        </mxCell>
        <mxCell id="x9Y5ngnpooVD6t2R-EWt-2" value="create&#xa;material&#xa;specification" style="shape=mxgraph.flowchart.data;strokeWidth=2;gradientColor=none;gradientDirection=north;fontStyle=0;html=1;" vertex="1" parent="1">
          <mxGeometry x="240.5" y="510" width="159" height="80" as="geometry" />
        </mxCell>
        <mxCell id="x9Y5ngnpooVD6t2R-EWt-3" value="check for&#xa;obscurities" style="shape=mxgraph.flowchart.data;strokeWidth=2;gradientColor=none;gradientDirection=north;fontStyle=0;html=1;" vertex="1" parent="1">
          <mxGeometry x="240.5" y="250" width="159" height="80" as="geometry" />
        </mxCell>
        <mxCell id="x9Y5ngnpooVD6t2R-EWt-4" value="obscurities?" style="shape=mxgraph.flowchart.decision;strokeWidth=2;gradientColor=none;gradientDirection=north;fontStyle=0;html=1;" vertex="1" parent="1">
          <mxGeometry x="271" y="390" width="98" height="57" as="geometry" />
        </mxCell>
        <mxCell id="x9Y5ngnpooVD6t2R-EWt-5" style="fontStyle=1;strokeColor=#003366;strokeWidth=1;html=1;" edge="1" parent="1" source="x9Y5ngnpooVD6t2R-EWt-1" target="x9Y5ngnpooVD6t2R-EWt-3">
          <mxGeometry relative="1" as="geometry" />
        </mxCell>
        <mxCell id="x9Y5ngnpooVD6t2R-EWt-6" style="entryX=0.5;entryY=0;entryPerimeter=0;fontStyle=1;strokeColor=#003366;strokeWidth=1;html=1;" edge="1" parent="1" source="x9Y5ngnpooVD6t2R-EWt-3" target="x9Y5ngnpooVD6t2R-EWt-4">
          <mxGeometry relative="1" as="geometry" />
        </mxCell>
        <mxCell id="x9Y5ngnpooVD6t2R-EWt-7" value="" style="edgeStyle=elbowEdgeStyle;elbow=horizontal;entryX=0.5;entryY=0.91;entryPerimeter=0;exitX=1;exitY=0.5;exitPerimeter=0;fontStyle=1;strokeColor=#003366;strokeWidth=1;html=1;" edge="1" parent="1" source="x9Y5ngnpooVD6t2R-EWt-4" target="x9Y5ngnpooVD6t2R-EWt-47">
          <mxGeometry x="381" y="28.5" width="100" height="100" as="geometry">
            <mxPoint x="750" y="447" as="sourcePoint" />
            <mxPoint x="765.395" y="318.5" as="targetPoint" />
            <Array as="points">
              <mxPoint x="545" y="400" />
            </Array>
          </mxGeometry>
        </mxCell>
        <mxCell id="x9Y5ngnpooVD6t2R-EWt-8" value="yes" style="text;fontStyle=0;html=1;strokeColor=none;gradientColor=none;fillColor=none;strokeWidth=2;" vertex="1" parent="1">
          <mxGeometry x="370" y="390" width="40" height="26" as="geometry" />
        </mxCell>
        <mxCell id="x9Y5ngnpooVD6t2R-EWt-9" value="" style="edgeStyle=elbowEdgeStyle;elbow=horizontal;fontColor=#001933;fontStyle=1;strokeColor=#003366;strokeWidth=1;html=1;" edge="1" parent="1" source="x9Y5ngnpooVD6t2R-EWt-4" target="x9Y5ngnpooVD6t2R-EWt-2">
          <mxGeometry width="100" height="100" as="geometry">
            <mxPoint y="100" as="sourcePoint" />
            <mxPoint x="100" as="targetPoint" />
          </mxGeometry>
        </mxCell>
        <mxCell id="x9Y5ngnpooVD6t2R-EWt-10" value="order material" style="shape=mxgraph.flowchart.data;strokeWidth=2;gradientColor=none;gradientDirection=north;fontStyle=0;html=1;" vertex="1" parent="1">
          <mxGeometry x="240.5" y="640" width="159" height="80" as="geometry" />
        </mxCell>
        <mxCell id="x9Y5ngnpooVD6t2R-EWt-11" value="no" style="text;fontStyle=0;html=1;strokeColor=none;gradientColor=none;fillColor=none;strokeWidth=2;align=center;" vertex="1" parent="1">
          <mxGeometry x="320" y="447" width="40" height="26" as="geometry" />
        </mxCell>
        <mxCell id="x9Y5ngnpooVD6t2R-EWt-12" value="final project" style="shape=mxgraph.flowchart.document;strokeWidth=2;gradientColor=none;gradientDirection=north;fontStyle=0;html=1;" vertex="1" parent="1">
          <mxGeometry x="480" y="515" width="140" height="70" as="geometry" />
        </mxCell>
        <mxCell id="x9Y5ngnpooVD6t2R-EWt-13" value="" style="edgeStyle=elbowEdgeStyle;elbow=horizontal;exitX=0.905;exitY=0.5;exitPerimeter=0;fontStyle=1;strokeColor=#003366;strokeWidth=1;html=1;" edge="1" parent="1" source="x9Y5ngnpooVD6t2R-EWt-2" target="x9Y5ngnpooVD6t2R-EWt-12">
          <mxGeometry width="100" height="100" as="geometry">
            <mxPoint y="100" as="sourcePoint" />
            <mxPoint x="100" as="targetPoint" />
          </mxGeometry>
        </mxCell>
        <mxCell id="x9Y5ngnpooVD6t2R-EWt-14" value="" style="edgeStyle=elbowEdgeStyle;elbow=horizontal;fontStyle=1;strokeColor=#003366;strokeWidth=1;html=1;" edge="1" parent="1" source="x9Y5ngnpooVD6t2R-EWt-2" target="x9Y5ngnpooVD6t2R-EWt-10">
          <mxGeometry width="100" height="100" as="geometry">
            <mxPoint y="100" as="sourcePoint" />
            <mxPoint x="100" as="targetPoint" />
          </mxGeometry>
        </mxCell>
        <mxCell id="x9Y5ngnpooVD6t2R-EWt-15" value="material&#xa;balance" style="shape=mxgraph.flowchart.predefined_process;strokeWidth=2;gradientColor=none;gradientDirection=north;fontStyle=0;html=1;" vertex="1" parent="1">
          <mxGeometry x="480" y="635" width="190" height="90" as="geometry" />
        </mxCell>
        <mxCell id="x9Y5ngnpooVD6t2R-EWt-16" value="" style="edgeStyle=elbowEdgeStyle;elbow=horizontal;exitX=0.905;exitY=0.5;exitPerimeter=0;fontStyle=1;strokeColor=#003366;strokeWidth=1;html=1;" edge="1" parent="1" source="x9Y5ngnpooVD6t2R-EWt-10" target="x9Y5ngnpooVD6t2R-EWt-15">
          <mxGeometry width="100" height="100" as="geometry">
            <mxPoint y="100" as="sourcePoint" />
            <mxPoint x="100" as="targetPoint" />
          </mxGeometry>
        </mxCell>
        <mxCell id="x9Y5ngnpooVD6t2R-EWt-17" value="organize &#xa;workforce" style="shape=mxgraph.flowchart.manual_input;strokeWidth=2;gradientColor=none;gradientDirection=north;fontStyle=0;html=1;" vertex="1" parent="1">
          <mxGeometry x="242" y="780" width="158" height="80" as="geometry" />
        </mxCell>
        <mxCell id="x9Y5ngnpooVD6t2R-EWt-18" value="" style="edgeStyle=elbowEdgeStyle;elbow=horizontal;entryX=0.5;entryY=0.195;entryPerimeter=0;fontStyle=1;strokeColor=#003366;strokeWidth=1;html=1;" edge="1" parent="1" source="x9Y5ngnpooVD6t2R-EWt-10" target="x9Y5ngnpooVD6t2R-EWt-17">
          <mxGeometry width="100" height="100" as="geometry">
            <mxPoint y="100" as="sourcePoint" />
            <mxPoint x="100" as="targetPoint" />
          </mxGeometry>
        </mxCell>
        <mxCell id="x9Y5ngnpooVD6t2R-EWt-19" value="create Gantt&#xa;diagram" style="shape=mxgraph.flowchart.document;strokeWidth=2;gradientColor=none;gradientDirection=north;fontStyle=0;html=1;" vertex="1" parent="1">
          <mxGeometry x="240.5" y="920" width="159" height="90" as="geometry" />
        </mxCell>
        <mxCell id="x9Y5ngnpooVD6t2R-EWt-20" value="" style="edgeStyle=elbowEdgeStyle;elbow=horizontal;exitX=0.5;exitY=1;exitPerimeter=0;fontStyle=1;strokeColor=#003366;strokeWidth=1;html=1;" edge="1" parent="1" source="x9Y5ngnpooVD6t2R-EWt-17" target="x9Y5ngnpooVD6t2R-EWt-19">
          <mxGeometry width="100" height="100" as="geometry">
            <mxPoint y="100" as="sourcePoint" />
            <mxPoint x="100" as="targetPoint" />
          </mxGeometry>
        </mxCell>
        <mxCell id="x9Y5ngnpooVD6t2R-EWt-21" value="late&#xa;project&#xa;changes?" style="shape=mxgraph.flowchart.decision;strokeWidth=2;gradientColor=none;gradientDirection=north;fontStyle=0;html=1;" vertex="1" parent="1">
          <mxGeometry x="261.5" y="1080" width="119" height="78.5" as="geometry" />
        </mxCell>
        <mxCell id="x9Y5ngnpooVD6t2R-EWt-22" value="" style="edgeStyle=elbowEdgeStyle;elbow=horizontal;exitX=0.5;exitY=0.9;exitPerimeter=0;fontStyle=1;strokeColor=#003366;strokeWidth=1;html=1;" edge="1" parent="1" source="x9Y5ngnpooVD6t2R-EWt-19" target="x9Y5ngnpooVD6t2R-EWt-21">
          <mxGeometry width="100" height="100" as="geometry">
            <mxPoint y="100" as="sourcePoint" />
            <mxPoint x="100" as="targetPoint" />
          </mxGeometry>
        </mxCell>
        <mxCell id="x9Y5ngnpooVD6t2R-EWt-23" value="" style="edgeStyle=elbowEdgeStyle;elbow=horizontal;exitX=0;exitY=0.5;exitPerimeter=0;entryX=0;entryY=0.5;entryPerimeter=0;fontStyle=1;strokeColor=#003366;strokeWidth=1;html=1;" edge="1" parent="1" source="x9Y5ngnpooVD6t2R-EWt-25" target="x9Y5ngnpooVD6t2R-EWt-4">
          <mxGeometry width="100" height="100" as="geometry">
            <mxPoint y="100" as="sourcePoint" />
            <mxPoint x="100" as="targetPoint" />
            <Array as="points">
              <mxPoint x="160" y="850" />
            </Array>
          </mxGeometry>
        </mxCell>
        <mxCell id="x9Y5ngnpooVD6t2R-EWt-24" value="yes" style="text;fontStyle=0;html=1;strokeColor=none;gradientColor=none;fillColor=none;strokeWidth=2;" vertex="1" parent="1">
          <mxGeometry x="280" y="1158.5" width="40" height="26" as="geometry" />
        </mxCell>
        <mxCell id="x9Y5ngnpooVD6t2R-EWt-25" value="investor&#xa;disapproves&#xa; investment?" style="shape=mxgraph.flowchart.decision;strokeWidth=2;gradientColor=none;gradientDirection=north;fontStyle=0;html=1;" vertex="1" parent="1">
          <mxGeometry x="255" y="1210" width="130" height="100" as="geometry" />
        </mxCell>
        <mxCell id="x9Y5ngnpooVD6t2R-EWt-26" value="agreement?" style="shape=mxgraph.flowchart.decision;strokeWidth=2;gradientColor=none;gradientDirection=north;fontStyle=0;html=1;" vertex="1" parent="1">
          <mxGeometry x="510" y="1210" width="130" height="100" as="geometry" />
        </mxCell>
        <mxCell id="x9Y5ngnpooVD6t2R-EWt-27" value="" style="edgeStyle=elbowEdgeStyle;elbow=horizontal;exitX=0.5;exitY=1;exitPerimeter=0;fontStyle=1;strokeColor=#003366;strokeWidth=1;html=1;" edge="1" parent="1" source="x9Y5ngnpooVD6t2R-EWt-21" target="x9Y5ngnpooVD6t2R-EWt-25">
          <mxGeometry width="100" height="100" as="geometry">
            <mxPoint y="100" as="sourcePoint" />
            <mxPoint x="100" as="targetPoint" />
          </mxGeometry>
        </mxCell>
        <mxCell id="x9Y5ngnpooVD6t2R-EWt-28" value="" style="edgeStyle=elbowEdgeStyle;elbow=horizontal;exitX=1;exitY=0.5;exitPerimeter=0;entryX=0;entryY=0.5;entryPerimeter=0;fontStyle=1;strokeColor=#003366;strokeWidth=1;html=1;" edge="1" parent="1" source="x9Y5ngnpooVD6t2R-EWt-25" target="x9Y5ngnpooVD6t2R-EWt-26">
          <mxGeometry width="100" height="100" as="geometry">
            <mxPoint y="100" as="sourcePoint" />
            <mxPoint x="100" as="targetPoint" />
          </mxGeometry>
        </mxCell>
        <mxCell id="x9Y5ngnpooVD6t2R-EWt-29" value="terminate&#xa;contract&#xa;" style="shape=mxgraph.flowchart.merge_or_storage;strokeWidth=2;gradientColor=none;gradientDirection=north;fontStyle=0;html=1;" vertex="1" parent="1">
          <mxGeometry x="760" y="1300" width="130" height="80.5" as="geometry" />
        </mxCell>
        <mxCell id="x9Y5ngnpooVD6t2R-EWt-30" value="" style="edgeStyle=elbowEdgeStyle;elbow=vertical;exitX=1;exitY=0.5;exitPerimeter=0;entryX=0.5;entryY=0;entryPerimeter=0;fontStyle=1;strokeColor=#003366;strokeWidth=1;html=1;" edge="1" parent="1" source="x9Y5ngnpooVD6t2R-EWt-26" target="x9Y5ngnpooVD6t2R-EWt-29">
          <mxGeometry width="100" height="100" as="geometry">
            <mxPoint y="100" as="sourcePoint" />
            <mxPoint x="100" as="targetPoint" />
            <Array as="points">
              <mxPoint x="740" y="1260" />
            </Array>
          </mxGeometry>
        </mxCell>
        <mxCell id="x9Y5ngnpooVD6t2R-EWt-31" value="create&#xa;status&#xa;report" style="shape=mxgraph.flowchart.data;strokeWidth=2;gradientColor=none;gradientDirection=north;fontStyle=0;html=1;" vertex="1" parent="1">
          <mxGeometry x="240.5" y="1490" width="159" height="80" as="geometry" />
        </mxCell>
        <mxCell id="x9Y5ngnpooVD6t2R-EWt-32" value="" style="edgeStyle=elbowEdgeStyle;elbow=vertical;exitX=0.5;exitY=1;exitPerimeter=0;fontColor=#001933;fontStyle=1;strokeColor=#003366;strokeWidth=1;html=1;" edge="1" parent="1" source="x9Y5ngnpooVD6t2R-EWt-25" target="x9Y5ngnpooVD6t2R-EWt-31">
          <mxGeometry width="100" height="100" as="geometry">
            <mxPoint y="100" as="sourcePoint" />
            <mxPoint x="100" as="targetPoint" />
          </mxGeometry>
        </mxCell>
        <mxCell id="x9Y5ngnpooVD6t2R-EWt-33" value="" style="edgeStyle=elbowEdgeStyle;elbow=vertical;exitX=0.5;exitY=1;exitPerimeter=0;entryX=0.5;entryY=0;entryPerimeter=0;fontStyle=1;strokeColor=#003366;strokeWidth=1;html=1;" edge="1" parent="1" source="x9Y5ngnpooVD6t2R-EWt-26" target="x9Y5ngnpooVD6t2R-EWt-31">
          <mxGeometry width="100" height="100" as="geometry">
            <mxPoint y="100" as="sourcePoint" />
            <mxPoint x="100" as="targetPoint" />
          </mxGeometry>
        </mxCell>
        <mxCell id="x9Y5ngnpooVD6t2R-EWt-34" value="project&#xa;complete?" style="shape=mxgraph.flowchart.decision;strokeWidth=2;gradientColor=none;gradientDirection=north;fontStyle=0;html=1;" vertex="1" parent="1">
          <mxGeometry x="271" y="1621.5" width="98" height="57" as="geometry" />
        </mxCell>
        <mxCell id="x9Y5ngnpooVD6t2R-EWt-35" value="create&#xa;final&#xa;report" style="shape=mxgraph.flowchart.data;strokeWidth=2;gradientColor=none;gradientDirection=north;fontStyle=0;html=1;" vertex="1" parent="1">
          <mxGeometry x="240.5" y="1730" width="159" height="80" as="geometry" />
        </mxCell>
        <mxCell id="x9Y5ngnpooVD6t2R-EWt-36" value="issue&#xa;bill of works" style="shape=mxgraph.flowchart.predefined_process;strokeWidth=2;gradientColor=none;gradientDirection=north;fontStyle=0;html=1;" vertex="1" parent="1">
          <mxGeometry x="560" y="1725" width="190" height="90" as="geometry" />
        </mxCell>
        <mxCell id="x9Y5ngnpooVD6t2R-EWt-37" value="end" style="shape=mxgraph.flowchart.terminator;strokeWidth=2;gradientColor=none;gradientDirection=north;fontStyle=0;html=1;" vertex="1" parent="1">
          <mxGeometry x="260" y="1910" width="120" height="30" as="geometry" />
        </mxCell>
        <mxCell id="x9Y5ngnpooVD6t2R-EWt-38" value="" style="edgeStyle=elbowEdgeStyle;elbow=vertical;exitX=0.5;exitY=1;exitPerimeter=0;entryX=0.5;entryY=0;entryPerimeter=0;fontStyle=1;strokeColor=#003366;strokeWidth=1;html=1;" edge="1" parent="1" source="x9Y5ngnpooVD6t2R-EWt-31" target="x9Y5ngnpooVD6t2R-EWt-34">
          <mxGeometry width="100" height="100" as="geometry">
            <mxPoint y="100" as="sourcePoint" />
            <mxPoint x="100" as="targetPoint" />
          </mxGeometry>
        </mxCell>
        <mxCell id="x9Y5ngnpooVD6t2R-EWt-39" value="" style="edgeStyle=elbowEdgeStyle;elbow=vertical;exitX=0.5;exitY=1;exitPerimeter=0;entryX=0.5;entryY=0;entryPerimeter=0;fontStyle=1;strokeColor=#003366;strokeWidth=1;html=1;" edge="1" parent="1" source="x9Y5ngnpooVD6t2R-EWt-34" target="x9Y5ngnpooVD6t2R-EWt-35">
          <mxGeometry width="100" height="100" as="geometry">
            <mxPoint y="100" as="sourcePoint" />
            <mxPoint x="100" as="targetPoint" />
          </mxGeometry>
        </mxCell>
        <mxCell id="x9Y5ngnpooVD6t2R-EWt-40" value="" style="edgeStyle=elbowEdgeStyle;elbow=vertical;exitX=0.5;exitY=1;exitPerimeter=0;entryX=0.5;entryY=0;entryPerimeter=0;fontStyle=1;strokeColor=#003366;strokeWidth=1;html=1;" edge="1" parent="1" source="x9Y5ngnpooVD6t2R-EWt-35" target="x9Y5ngnpooVD6t2R-EWt-37">
          <mxGeometry width="100" height="100" as="geometry">
            <mxPoint y="100" as="sourcePoint" />
            <mxPoint x="100" as="targetPoint" />
          </mxGeometry>
        </mxCell>
        <mxCell id="x9Y5ngnpooVD6t2R-EWt-41" value="" style="edgeStyle=elbowEdgeStyle;elbow=vertical;exitX=0.905;exitY=0.5;exitPerimeter=0;entryX=0;entryY=0.5;entryPerimeter=0;fontStyle=1;strokeColor=#003366;strokeWidth=1;html=1;" edge="1" parent="1" source="x9Y5ngnpooVD6t2R-EWt-35" target="x9Y5ngnpooVD6t2R-EWt-36">
          <mxGeometry width="100" height="100" as="geometry">
            <mxPoint y="100" as="sourcePoint" />
            <mxPoint x="100" as="targetPoint" />
          </mxGeometry>
        </mxCell>
        <mxCell id="x9Y5ngnpooVD6t2R-EWt-42" value="no" style="text;fontStyle=0;html=1;strokeColor=none;gradientColor=none;fillColor=none;strokeWidth=2;" vertex="1" parent="1">
          <mxGeometry x="380.5" y="1093.25" width="40" height="26" as="geometry" />
        </mxCell>
        <mxCell id="x9Y5ngnpooVD6t2R-EWt-43" value="yes" style="text;fontColor=#001933;fontStyle=0;html=1;strokeColor=none;gradientColor=none;fillColor=none;strokeWidth=2;" vertex="1" parent="1">
          <mxGeometry x="385" y="1234" width="40" height="26" as="geometry" />
        </mxCell>
        <mxCell id="x9Y5ngnpooVD6t2R-EWt-44" value="no" style="text;fontColor=#001933;fontStyle=0;html=1;strokeColor=none;gradientColor=none;fillColor=none;strokeWidth=2;align=center;" vertex="1" parent="1">
          <mxGeometry x="320" y="1310" width="40" height="26" as="geometry" />
        </mxCell>
        <mxCell id="x9Y5ngnpooVD6t2R-EWt-45" value="yes" style="text;fontColor=#001933;fontStyle=0;html=1;strokeColor=none;gradientColor=none;fillColor=none;strokeWidth=2;align=center;" vertex="1" parent="1">
          <mxGeometry x="575" y="1310" width="40" height="26" as="geometry" />
        </mxCell>
        <mxCell id="x9Y5ngnpooVD6t2R-EWt-46" value="no" style="text;fontColor=#001933;fontStyle=0;html=1;strokeColor=none;gradientColor=none;fillColor=none;strokeWidth=2;" vertex="1" parent="1">
          <mxGeometry x="640" y="1234" width="40" height="26" as="geometry" />
        </mxCell>
        <mxCell id="x9Y5ngnpooVD6t2R-EWt-47" value="iron out&#xa;obscurities &#xa;with investor" style="shape=mxgraph.flowchart.paper_tape;strokeWidth=2;gradientColor=none;gradientDirection=north;fontStyle=0;html=1;" vertex="1" parent="1">
          <mxGeometry x="470" y="300" width="150" height="81" as="geometry" />
        </mxCell>
        <mxCell id="x9Y5ngnpooVD6t2R-EWt-48" value="" style="edgeStyle=elbowEdgeStyle;elbow=horizontal;exitX=0.5;exitY=0.09;exitPerimeter=0;entryX=0.905;entryY=0.5;entryPerimeter=0;fontStyle=1;strokeColor=#003366;strokeWidth=1;html=1;" edge="1" parent="1" source="x9Y5ngnpooVD6t2R-EWt-47" target="x9Y5ngnpooVD6t2R-EWt-3">
          <mxGeometry width="100" height="100" as="geometry">
            <mxPoint y="100" as="sourcePoint" />
            <mxPoint x="100" as="targetPoint" />
            <Array as="points">
              <mxPoint x="545" y="300" />
            </Array>
          </mxGeometry>
        </mxCell>
        <mxCell id="x9Y5ngnpooVD6t2R-EWt-49" value="yes" style="text;fontStyle=0;html=1;strokeColor=none;gradientColor=none;fillColor=none;strokeWidth=2;align=center;" vertex="1" parent="1">
          <mxGeometry x="321" y="1680" width="40" height="26" as="geometry" />
        </mxCell>
        <mxCell id="x9Y5ngnpooVD6t2R-EWt-50" value="" style="edgeStyle=elbowEdgeStyle;elbow=horizontal;exitX=0;exitY=0.5;exitPerimeter=0;entryX=0.095;entryY=0.5;entryPerimeter=0;fontStyle=1;strokeColor=#003366;strokeWidth=1;html=1;" edge="1" parent="1" source="x9Y5ngnpooVD6t2R-EWt-34" target="x9Y5ngnpooVD6t2R-EWt-3">
          <mxGeometry width="100" height="100" as="geometry">
            <mxPoint y="100" as="sourcePoint" />
            <mxPoint x="100" as="targetPoint" />
            <Array as="points">
              <mxPoint x="120" y="970" />
            </Array>
          </mxGeometry>
        </mxCell>
        <mxCell id="x9Y5ngnpooVD6t2R-EWt-51" value="no" style="text;fontStyle=0;html=1;strokeColor=none;gradientColor=none;fillColor=none;strokeWidth=2;" vertex="1" parent="1">
          <mxGeometry x="235" y="1624" width="40" height="26" as="geometry" />
        </mxCell>
        <mxCell id="x9Y5ngnpooVD6t2R-EWt-52" value="" style="shape=process;whiteSpace=wrap;html=1;backgroundOutline=1;" vertex="1" parent="1">
          <mxGeometry x="585" y="443" width="80" height="30" as="geometry" />
        </mxCell>
        <mxCell id="x9Y5ngnpooVD6t2R-EWt-53" value="" style="shape=process;whiteSpace=wrap;html=1;backgroundOutline=1;" vertex="1" parent="1">
          <mxGeometry x="705" y="443" width="80" height="30" as="geometry" />
        </mxCell>
        <mxCell id="x9Y5ngnpooVD6t2R-EWt-54" value="" style="shape=process;whiteSpace=wrap;html=1;backgroundOutline=1;" vertex="1" parent="1">
          <mxGeometry x="825" y="443" width="80" height="30" as="geometry" />
        </mxCell>
        <mxCell id="x9Y5ngnpooVD6t2R-EWt-55" value="" style="shape=process;whiteSpace=wrap;html=1;backgroundOutline=1;" vertex="1" parent="1">
          <mxGeometry x="815" y="430" width="80" height="30" as="geometry" />
        </mxCell>
        <mxCell id="x9Y5ngnpooVD6t2R-EWt-56" value="课程资料操作" style="shape=process;whiteSpace=wrap;html=1;backgroundOutline=1;" vertex="1" parent="1">
          <mxGeometry x="815" y="311" width="100" height="30" as="geometry" />
        </mxCell>
        <mxCell id="x9Y5ngnpooVD6t2R-EWt-57" value="课程" style="shape=process;whiteSpace=wrap;html=1;backgroundOutline=1;" vertex="1" parent="1">
          <mxGeometry x="835" y="261" width="80" height="30" as="geometry" />
        </mxCell>
        <mxCell id="x9Y5ngnpooVD6t2R-EWt-58" value="课程" style="shape=process;whiteSpace=wrap;html=1;backgroundOutline=1;" vertex="1" parent="1">
          <mxGeometry x="710" y="271" width="80" height="30" as="geometry" />
        </mxCell>
        <mxCell id="x9Y5ngnpooVD6t2R-EWt-59" value="视频" style="shape=process;whiteSpace=wrap;html=1;backgroundOutline=1;" vertex="1" parent="1">
          <mxGeometry x="725" y="351" width="80" height="30" as="geometry" />
        </mxCell>
        <mxCell id="5tBPUwIV58kzaX_b3rb9-1" value="" style="endArrow=classic;html=1;rounded=0;entryX=0.5;entryY=0;entryDx=0;entryDy=0;" edge="1" parent="1">
          <mxGeometry width="50" height="50" relative="1" as="geometry">
            <mxPoint x="1020" y="120" as="sourcePoint" />
            <mxPoint x="900" y="170" as="targetPoint" />
            <Array as="points">
              <mxPoint x="900" y="120" />
            </Array>
          </mxGeometry>
        </mxCell>
        <mxCell id="5tBPUwIV58kzaX_b3rb9-2" value="" style="endArrow=classic;html=1;rounded=0;entryX=0.5;entryY=0;entryDx=0;entryDy=0;" edge="1" parent="1">
          <mxGeometry width="50" height="50" relative="1" as="geometry">
            <mxPoint x="1100" y="120" as="sourcePoint" />
            <mxPoint x="1220" y="170" as="targetPoint" />
            <Array as="points">
              <mxPoint x="1220" y="120" />
            </Array>
          </mxGeometry>
        </mxCell>
      </root>
    </mxGraphModel>
  </diagram>
  <diagram id="vsj6soCkqG5rdWicCDOr" name="第 4 页">
    <mxGraphModel dx="970" dy="631" grid="1" gridSize="10" guides="1" tooltips="1" connect="1" arrows="1" fold="1" page="1" pageScale="1" pageWidth="827" pageHeight="1169" math="0" shadow="0">
      <root>
        <mxCell id="0" />
        <mxCell id="1" parent="0" />
        <mxCell id="XYAZr2ftAzatV_QHAygP-4" value="" style="edgeStyle=orthogonalEdgeStyle;rounded=0;orthogonalLoop=1;jettySize=auto;html=1;" edge="1" parent="1" source="XYAZr2ftAzatV_QHAygP-2" target="XYAZr2ftAzatV_QHAygP-3">
          <mxGeometry relative="1" as="geometry" />
        </mxCell>
        <mxCell id="XYAZr2ftAzatV_QHAygP-2" value="开始" style="ellipse;whiteSpace=wrap;html=1;" vertex="1" parent="1">
          <mxGeometry x="360" y="120" width="80" height="40" as="geometry" />
        </mxCell>
        <mxCell id="XYAZr2ftAzatV_QHAygP-7" value="" style="edgeStyle=orthogonalEdgeStyle;rounded=0;orthogonalLoop=1;jettySize=auto;html=1;" edge="1" parent="1" source="XYAZr2ftAzatV_QHAygP-3" target="XYAZr2ftAzatV_QHAygP-6">
          <mxGeometry relative="1" as="geometry" />
        </mxCell>
        <mxCell id="XYAZr2ftAzatV_QHAygP-3" value="点击添加/修改" style="rounded=0;whiteSpace=wrap;html=1;" vertex="1" parent="1">
          <mxGeometry x="360" y="190" width="80" height="40" as="geometry" />
        </mxCell>
        <mxCell id="BHfyTIK06LBZRMtfkhCF-1" value="" style="edgeStyle=orthogonalEdgeStyle;rounded=0;orthogonalLoop=1;jettySize=auto;html=1;" edge="1" parent="1" source="XYAZr2ftAzatV_QHAygP-6" target="XYAZr2ftAzatV_QHAygP-9">
          <mxGeometry relative="1" as="geometry" />
        </mxCell>
        <mxCell id="XYAZr2ftAzatV_QHAygP-6" value="输入或修改用户信息" style="rounded=0;whiteSpace=wrap;html=1;" vertex="1" parent="1">
          <mxGeometry x="480" y="190" width="80" height="40" as="geometry" />
        </mxCell>
        <mxCell id="XYAZr2ftAzatV_QHAygP-13" value="" style="edgeStyle=orthogonalEdgeStyle;rounded=0;orthogonalLoop=1;jettySize=auto;html=1;" edge="1" parent="1" source="XYAZr2ftAzatV_QHAygP-9" target="XYAZr2ftAzatV_QHAygP-11">
          <mxGeometry relative="1" as="geometry" />
        </mxCell>
        <mxCell id="XYAZr2ftAzatV_QHAygP-9" value="点击提交" style="rounded=0;whiteSpace=wrap;html=1;" vertex="1" parent="1">
          <mxGeometry x="480" y="250" width="80" height="40" as="geometry" />
        </mxCell>
        <mxCell id="XYAZr2ftAzatV_QHAygP-14" value="" style="edgeStyle=orthogonalEdgeStyle;rounded=0;orthogonalLoop=1;jettySize=auto;html=1;" edge="1" parent="1" source="XYAZr2ftAzatV_QHAygP-11" target="XYAZr2ftAzatV_QHAygP-12">
          <mxGeometry relative="1" as="geometry" />
        </mxCell>
        <mxCell id="XYAZr2ftAzatV_QHAygP-15" value="否" style="edgeLabel;html=1;align=center;verticalAlign=middle;resizable=0;points=[];" vertex="1" connectable="0" parent="XYAZr2ftAzatV_QHAygP-14">
          <mxGeometry x="0.2933" y="-1" relative="1" as="geometry">
            <mxPoint as="offset" />
          </mxGeometry>
        </mxCell>
        <mxCell id="XYAZr2ftAzatV_QHAygP-20" value="" style="edgeStyle=orthogonalEdgeStyle;rounded=0;orthogonalLoop=1;jettySize=auto;html=1;" edge="1" parent="1" source="XYAZr2ftAzatV_QHAygP-11" target="XYAZr2ftAzatV_QHAygP-17">
          <mxGeometry relative="1" as="geometry" />
        </mxCell>
        <mxCell id="XYAZr2ftAzatV_QHAygP-21" value="是" style="edgeLabel;html=1;align=center;verticalAlign=middle;resizable=0;points=[];" vertex="1" connectable="0" parent="XYAZr2ftAzatV_QHAygP-20">
          <mxGeometry x="0.2533" relative="1" as="geometry">
            <mxPoint as="offset" />
          </mxGeometry>
        </mxCell>
        <mxCell id="XYAZr2ftAzatV_QHAygP-11" value="请求后端成功？" style="rhombus;whiteSpace=wrap;html=1;" vertex="1" parent="1">
          <mxGeometry x="360" y="250" width="80" height="40" as="geometry" />
        </mxCell>
        <mxCell id="XYAZr2ftAzatV_QHAygP-12" value="提示请求出错" style="rounded=0;whiteSpace=wrap;html=1;" vertex="1" parent="1">
          <mxGeometry x="250" y="250" width="80" height="40" as="geometry" />
        </mxCell>
        <mxCell id="XYAZr2ftAzatV_QHAygP-19" value="" style="edgeStyle=orthogonalEdgeStyle;rounded=0;orthogonalLoop=1;jettySize=auto;html=1;" edge="1" parent="1" source="XYAZr2ftAzatV_QHAygP-17" target="XYAZr2ftAzatV_QHAygP-18">
          <mxGeometry relative="1" as="geometry" />
        </mxCell>
        <mxCell id="XYAZr2ftAzatV_QHAygP-17" value="数据库操作" style="rounded=0;whiteSpace=wrap;html=1;" vertex="1" parent="1">
          <mxGeometry x="360" y="320" width="80" height="40" as="geometry" />
        </mxCell>
        <mxCell id="XYAZr2ftAzatV_QHAygP-26" value="" style="edgeStyle=orthogonalEdgeStyle;rounded=0;orthogonalLoop=1;jettySize=auto;html=1;" edge="1" parent="1" source="XYAZr2ftAzatV_QHAygP-18" target="XYAZr2ftAzatV_QHAygP-23">
          <mxGeometry relative="1" as="geometry" />
        </mxCell>
        <mxCell id="XYAZr2ftAzatV_QHAygP-18" value="" style="shape=cylinder3;whiteSpace=wrap;html=1;boundedLbl=1;backgroundOutline=1;size=15;" vertex="1" parent="1">
          <mxGeometry x="260" y="310" width="60" height="60" as="geometry" />
        </mxCell>
        <mxCell id="XYAZr2ftAzatV_QHAygP-27" value="" style="edgeStyle=orthogonalEdgeStyle;rounded=0;orthogonalLoop=1;jettySize=auto;html=1;" edge="1" parent="1" source="XYAZr2ftAzatV_QHAygP-23" target="XYAZr2ftAzatV_QHAygP-25">
          <mxGeometry relative="1" as="geometry" />
        </mxCell>
        <mxCell id="XYAZr2ftAzatV_QHAygP-30" value="是" style="edgeLabel;html=1;align=center;verticalAlign=middle;resizable=0;points=[];" vertex="1" connectable="0" parent="XYAZr2ftAzatV_QHAygP-27">
          <mxGeometry x="-0.7467" y="-2" relative="1" as="geometry">
            <mxPoint as="offset" />
          </mxGeometry>
        </mxCell>
        <mxCell id="XYAZr2ftAzatV_QHAygP-28" value="" style="edgeStyle=orthogonalEdgeStyle;rounded=0;orthogonalLoop=1;jettySize=auto;html=1;" edge="1" parent="1" source="XYAZr2ftAzatV_QHAygP-23" target="XYAZr2ftAzatV_QHAygP-24">
          <mxGeometry relative="1" as="geometry" />
        </mxCell>
        <mxCell id="XYAZr2ftAzatV_QHAygP-29" value="否" style="edgeLabel;html=1;align=center;verticalAlign=middle;resizable=0;points=[];" vertex="1" connectable="0" parent="XYAZr2ftAzatV_QHAygP-28">
          <mxGeometry x="0.3867" y="-1" relative="1" as="geometry">
            <mxPoint as="offset" />
          </mxGeometry>
        </mxCell>
        <mxCell id="XYAZr2ftAzatV_QHAygP-23" value="请求数据库成功？" style="rhombus;whiteSpace=wrap;html=1;" vertex="1" parent="1">
          <mxGeometry x="250" y="410" width="80" height="40" as="geometry" />
        </mxCell>
        <mxCell id="XYAZr2ftAzatV_QHAygP-24" value="提示操作失败" style="rounded=0;whiteSpace=wrap;html=1;" vertex="1" parent="1">
          <mxGeometry x="360" y="410" width="80" height="40" as="geometry" />
        </mxCell>
        <mxCell id="XYAZr2ftAzatV_QHAygP-25" value="提示操作成功" style="rounded=0;whiteSpace=wrap;html=1;" vertex="1" parent="1">
          <mxGeometry x="250" y="480" width="80" height="40" as="geometry" />
        </mxCell>
        <mxCell id="XYAZr2ftAzatV_QHAygP-31" value="结束" style="ellipse;whiteSpace=wrap;html=1;" vertex="1" parent="1">
          <mxGeometry x="480" y="480" width="80" height="40" as="geometry" />
        </mxCell>
        <mxCell id="XYAZr2ftAzatV_QHAygP-32" value="" style="endArrow=classic;html=1;rounded=0;exitX=0;exitY=0.5;exitDx=0;exitDy=0;entryX=0.5;entryY=1;entryDx=0;entryDy=0;" edge="1" parent="1" source="XYAZr2ftAzatV_QHAygP-12" target="XYAZr2ftAzatV_QHAygP-31">
          <mxGeometry width="50" height="50" relative="1" as="geometry">
            <mxPoint x="390" y="350" as="sourcePoint" />
            <mxPoint x="530" y="560" as="targetPoint" />
            <Array as="points">
              <mxPoint x="200" y="270" />
              <mxPoint x="200" y="560" />
              <mxPoint x="520" y="560" />
            </Array>
          </mxGeometry>
        </mxCell>
        <mxCell id="XYAZr2ftAzatV_QHAygP-33" value="" style="endArrow=classic;html=1;rounded=0;exitX=1;exitY=0.5;exitDx=0;exitDy=0;entryX=0.5;entryY=0;entryDx=0;entryDy=0;" edge="1" parent="1" source="XYAZr2ftAzatV_QHAygP-24" target="XYAZr2ftAzatV_QHAygP-31">
          <mxGeometry width="50" height="50" relative="1" as="geometry">
            <mxPoint x="390" y="350" as="sourcePoint" />
            <mxPoint x="440" y="300" as="targetPoint" />
            <Array as="points">
              <mxPoint x="520" y="430" />
            </Array>
          </mxGeometry>
        </mxCell>
        <mxCell id="XYAZr2ftAzatV_QHAygP-35" value="" style="endArrow=classic;html=1;rounded=0;exitX=1;exitY=0.5;exitDx=0;exitDy=0;entryX=0;entryY=0.5;entryDx=0;entryDy=0;" edge="1" parent="1" source="XYAZr2ftAzatV_QHAygP-25" target="XYAZr2ftAzatV_QHAygP-31">
          <mxGeometry width="50" height="50" relative="1" as="geometry">
            <mxPoint x="390" y="350" as="sourcePoint" />
            <mxPoint x="440" y="300" as="targetPoint" />
          </mxGeometry>
        </mxCell>
      </root>
    </mxGraphModel>
  </diagram>
  <diagram id="wAy5nBNXYN7C_AJ_BNUo" name="第 5 页">
    <mxGraphModel dx="970" dy="631" grid="1" gridSize="10" guides="1" tooltips="1" connect="1" arrows="1" fold="1" page="1" pageScale="1" pageWidth="827" pageHeight="1169" math="0" shadow="0">
      <root>
        <mxCell id="0" />
        <mxCell id="1" parent="0" />
        <mxCell id="tu0PQnubB3NV9ceW4y89-1" value="" style="edgeStyle=orthogonalEdgeStyle;rounded=0;orthogonalLoop=1;jettySize=auto;html=1;" edge="1" parent="1" source="tu0PQnubB3NV9ceW4y89-2" target="tu0PQnubB3NV9ceW4y89-4">
          <mxGeometry relative="1" as="geometry" />
        </mxCell>
        <mxCell id="tu0PQnubB3NV9ceW4y89-2" value="开始" style="ellipse;whiteSpace=wrap;html=1;" vertex="1" parent="1">
          <mxGeometry x="360" y="120" width="80" height="40" as="geometry" />
        </mxCell>
        <mxCell id="tu0PQnubB3NV9ceW4y89-3" value="" style="edgeStyle=orthogonalEdgeStyle;rounded=0;orthogonalLoop=1;jettySize=auto;html=1;" edge="1" parent="1" source="tu0PQnubB3NV9ceW4y89-4">
          <mxGeometry relative="1" as="geometry">
            <mxPoint x="480" y="210" as="targetPoint" />
          </mxGeometry>
        </mxCell>
        <mxCell id="tu0PQnubB3NV9ceW4y89-4" value="点击删除" style="rounded=0;whiteSpace=wrap;html=1;" vertex="1" parent="1">
          <mxGeometry x="360" y="190" width="80" height="40" as="geometry" />
        </mxCell>
        <mxCell id="tu0PQnubB3NV9ceW4y89-6" value="" style="edgeStyle=orthogonalEdgeStyle;rounded=0;orthogonalLoop=1;jettySize=auto;html=1;" edge="1" parent="1" source="tu0PQnubB3NV9ceW4y89-7" target="tu0PQnubB3NV9ceW4y89-12">
          <mxGeometry relative="1" as="geometry" />
        </mxCell>
        <mxCell id="tu0PQnubB3NV9ceW4y89-7" value="点击提交" style="rounded=0;whiteSpace=wrap;html=1;" vertex="1" parent="1">
          <mxGeometry x="480" y="250" width="80" height="40" as="geometry" />
        </mxCell>
        <mxCell id="tu0PQnubB3NV9ceW4y89-8" value="" style="edgeStyle=orthogonalEdgeStyle;rounded=0;orthogonalLoop=1;jettySize=auto;html=1;" edge="1" parent="1" source="tu0PQnubB3NV9ceW4y89-12" target="tu0PQnubB3NV9ceW4y89-13">
          <mxGeometry relative="1" as="geometry" />
        </mxCell>
        <mxCell id="tu0PQnubB3NV9ceW4y89-9" value="否" style="edgeLabel;html=1;align=center;verticalAlign=middle;resizable=0;points=[];" vertex="1" connectable="0" parent="tu0PQnubB3NV9ceW4y89-8">
          <mxGeometry x="0.2933" y="-1" relative="1" as="geometry">
            <mxPoint as="offset" />
          </mxGeometry>
        </mxCell>
        <mxCell id="tu0PQnubB3NV9ceW4y89-10" value="" style="edgeStyle=orthogonalEdgeStyle;rounded=0;orthogonalLoop=1;jettySize=auto;html=1;" edge="1" parent="1" source="tu0PQnubB3NV9ceW4y89-12" target="tu0PQnubB3NV9ceW4y89-15">
          <mxGeometry relative="1" as="geometry" />
        </mxCell>
        <mxCell id="tu0PQnubB3NV9ceW4y89-11" value="是" style="edgeLabel;html=1;align=center;verticalAlign=middle;resizable=0;points=[];" vertex="1" connectable="0" parent="tu0PQnubB3NV9ceW4y89-10">
          <mxGeometry x="0.2533" relative="1" as="geometry">
            <mxPoint as="offset" />
          </mxGeometry>
        </mxCell>
        <mxCell id="tu0PQnubB3NV9ceW4y89-12" value="请求后端成功？" style="rhombus;whiteSpace=wrap;html=1;" vertex="1" parent="1">
          <mxGeometry x="360" y="250" width="80" height="40" as="geometry" />
        </mxCell>
        <mxCell id="tu0PQnubB3NV9ceW4y89-13" value="提示请求出错" style="rounded=0;whiteSpace=wrap;html=1;" vertex="1" parent="1">
          <mxGeometry x="250" y="250" width="80" height="40" as="geometry" />
        </mxCell>
        <mxCell id="tu0PQnubB3NV9ceW4y89-14" value="" style="edgeStyle=orthogonalEdgeStyle;rounded=0;orthogonalLoop=1;jettySize=auto;html=1;" edge="1" parent="1" source="tu0PQnubB3NV9ceW4y89-15" target="tu0PQnubB3NV9ceW4y89-17">
          <mxGeometry relative="1" as="geometry" />
        </mxCell>
        <mxCell id="tu0PQnubB3NV9ceW4y89-15" value="数据库操作" style="rounded=0;whiteSpace=wrap;html=1;" vertex="1" parent="1">
          <mxGeometry x="360" y="320" width="80" height="40" as="geometry" />
        </mxCell>
        <mxCell id="tu0PQnubB3NV9ceW4y89-16" value="" style="edgeStyle=orthogonalEdgeStyle;rounded=0;orthogonalLoop=1;jettySize=auto;html=1;" edge="1" parent="1" source="tu0PQnubB3NV9ceW4y89-17" target="tu0PQnubB3NV9ceW4y89-22">
          <mxGeometry relative="1" as="geometry" />
        </mxCell>
        <mxCell id="tu0PQnubB3NV9ceW4y89-17" value="" style="shape=cylinder3;whiteSpace=wrap;html=1;boundedLbl=1;backgroundOutline=1;size=15;" vertex="1" parent="1">
          <mxGeometry x="260" y="310" width="60" height="60" as="geometry" />
        </mxCell>
        <mxCell id="tu0PQnubB3NV9ceW4y89-18" value="" style="edgeStyle=orthogonalEdgeStyle;rounded=0;orthogonalLoop=1;jettySize=auto;html=1;" edge="1" parent="1" source="tu0PQnubB3NV9ceW4y89-22" target="tu0PQnubB3NV9ceW4y89-24">
          <mxGeometry relative="1" as="geometry" />
        </mxCell>
        <mxCell id="tu0PQnubB3NV9ceW4y89-19" value="是" style="edgeLabel;html=1;align=center;verticalAlign=middle;resizable=0;points=[];" vertex="1" connectable="0" parent="tu0PQnubB3NV9ceW4y89-18">
          <mxGeometry x="-0.7467" y="-2" relative="1" as="geometry">
            <mxPoint as="offset" />
          </mxGeometry>
        </mxCell>
        <mxCell id="tu0PQnubB3NV9ceW4y89-20" value="" style="edgeStyle=orthogonalEdgeStyle;rounded=0;orthogonalLoop=1;jettySize=auto;html=1;" edge="1" parent="1" source="tu0PQnubB3NV9ceW4y89-22" target="tu0PQnubB3NV9ceW4y89-23">
          <mxGeometry relative="1" as="geometry" />
        </mxCell>
        <mxCell id="tu0PQnubB3NV9ceW4y89-21" value="否" style="edgeLabel;html=1;align=center;verticalAlign=middle;resizable=0;points=[];" vertex="1" connectable="0" parent="tu0PQnubB3NV9ceW4y89-20">
          <mxGeometry x="0.3867" y="-1" relative="1" as="geometry">
            <mxPoint as="offset" />
          </mxGeometry>
        </mxCell>
        <mxCell id="tu0PQnubB3NV9ceW4y89-22" value="请求数据库成功？" style="rhombus;whiteSpace=wrap;html=1;" vertex="1" parent="1">
          <mxGeometry x="250" y="410" width="80" height="40" as="geometry" />
        </mxCell>
        <mxCell id="tu0PQnubB3NV9ceW4y89-23" value="提示删除失败" style="rounded=0;whiteSpace=wrap;html=1;" vertex="1" parent="1">
          <mxGeometry x="360" y="410" width="80" height="40" as="geometry" />
        </mxCell>
        <mxCell id="tu0PQnubB3NV9ceW4y89-24" value="提示删除成功" style="rounded=0;whiteSpace=wrap;html=1;" vertex="1" parent="1">
          <mxGeometry x="250" y="480" width="80" height="40" as="geometry" />
        </mxCell>
        <mxCell id="tu0PQnubB3NV9ceW4y89-25" value="结束" style="ellipse;whiteSpace=wrap;html=1;" vertex="1" parent="1">
          <mxGeometry x="480" y="480" width="80" height="40" as="geometry" />
        </mxCell>
        <mxCell id="tu0PQnubB3NV9ceW4y89-26" value="" style="endArrow=classic;html=1;rounded=0;exitX=0;exitY=0.5;exitDx=0;exitDy=0;entryX=0.5;entryY=1;entryDx=0;entryDy=0;" edge="1" parent="1" source="tu0PQnubB3NV9ceW4y89-13" target="tu0PQnubB3NV9ceW4y89-25">
          <mxGeometry width="50" height="50" relative="1" as="geometry">
            <mxPoint x="390" y="350" as="sourcePoint" />
            <mxPoint x="530" y="560" as="targetPoint" />
            <Array as="points">
              <mxPoint x="200" y="270" />
              <mxPoint x="200" y="560" />
              <mxPoint x="520" y="560" />
            </Array>
          </mxGeometry>
        </mxCell>
        <mxCell id="tu0PQnubB3NV9ceW4y89-27" value="" style="endArrow=classic;html=1;rounded=0;exitX=1;exitY=0.5;exitDx=0;exitDy=0;entryX=0.5;entryY=0;entryDx=0;entryDy=0;" edge="1" parent="1" source="tu0PQnubB3NV9ceW4y89-23" target="tu0PQnubB3NV9ceW4y89-25">
          <mxGeometry width="50" height="50" relative="1" as="geometry">
            <mxPoint x="390" y="350" as="sourcePoint" />
            <mxPoint x="440" y="300" as="targetPoint" />
            <Array as="points">
              <mxPoint x="520" y="430" />
            </Array>
          </mxGeometry>
        </mxCell>
        <mxCell id="tu0PQnubB3NV9ceW4y89-28" value="" style="endArrow=classic;html=1;rounded=0;exitX=1;exitY=0.5;exitDx=0;exitDy=0;entryX=0;entryY=0.5;entryDx=0;entryDy=0;" edge="1" parent="1" source="tu0PQnubB3NV9ceW4y89-24" target="tu0PQnubB3NV9ceW4y89-25">
          <mxGeometry width="50" height="50" relative="1" as="geometry">
            <mxPoint x="390" y="350" as="sourcePoint" />
            <mxPoint x="440" y="300" as="targetPoint" />
          </mxGeometry>
        </mxCell>
        <mxCell id="sEj4w8gsstSkBPXUF9Zk-3" value="" style="edgeStyle=orthogonalEdgeStyle;rounded=0;orthogonalLoop=1;jettySize=auto;html=1;" edge="1" parent="1" source="sEj4w8gsstSkBPXUF9Zk-2" target="tu0PQnubB3NV9ceW4y89-7">
          <mxGeometry relative="1" as="geometry" />
        </mxCell>
        <mxCell id="sEj4w8gsstSkBPXUF9Zk-4" value="是" style="edgeLabel;html=1;align=center;verticalAlign=middle;resizable=0;points=[];" vertex="1" connectable="0" parent="sEj4w8gsstSkBPXUF9Zk-3">
          <mxGeometry x="0.6444" y="2" relative="1" as="geometry">
            <mxPoint as="offset" />
          </mxGeometry>
        </mxCell>
        <mxCell id="sEj4w8gsstSkBPXUF9Zk-2" value="确认删除？" style="rhombus;whiteSpace=wrap;html=1;" vertex="1" parent="1">
          <mxGeometry x="480" y="190" width="80" height="40" as="geometry" />
        </mxCell>
        <mxCell id="sEj4w8gsstSkBPXUF9Zk-5" value="" style="endArrow=classic;html=1;rounded=0;exitX=1;exitY=0.5;exitDx=0;exitDy=0;entryX=1;entryY=0.5;entryDx=0;entryDy=0;" edge="1" parent="1" source="sEj4w8gsstSkBPXUF9Zk-2" target="tu0PQnubB3NV9ceW4y89-25">
          <mxGeometry width="50" height="50" relative="1" as="geometry">
            <mxPoint x="360" y="320" as="sourcePoint" />
            <mxPoint x="410" y="270" as="targetPoint" />
            <Array as="points">
              <mxPoint x="600" y="210" />
              <mxPoint x="600" y="500" />
            </Array>
          </mxGeometry>
        </mxCell>
        <mxCell id="sEj4w8gsstSkBPXUF9Zk-6" value="否" style="edgeLabel;html=1;align=center;verticalAlign=middle;resizable=0;points=[];" vertex="1" connectable="0" parent="sEj4w8gsstSkBPXUF9Zk-5">
          <mxGeometry x="-0.8901" y="-1" relative="1" as="geometry">
            <mxPoint as="offset" />
          </mxGeometry>
        </mxCell>
      </root>
    </mxGraphModel>
  </diagram>
  <diagram id="yUXsvZ_ankWGiCAruOZu" name="第 6 页">
    <mxGraphModel dx="970" dy="631" grid="1" gridSize="10" guides="1" tooltips="1" connect="1" arrows="1" fold="1" page="1" pageScale="1" pageWidth="827" pageHeight="1169" math="0" shadow="0">
      <root>
        <mxCell id="0" />
        <mxCell id="1" parent="0" />
        <mxCell id="C1v8-wwC77GxeJJLBf2t-1" value="" style="edgeStyle=orthogonalEdgeStyle;rounded=0;orthogonalLoop=1;jettySize=auto;html=1;" edge="1" parent="1" source="C1v8-wwC77GxeJJLBf2t-2">
          <mxGeometry relative="1" as="geometry">
            <mxPoint x="400" y="250" as="targetPoint" />
          </mxGeometry>
        </mxCell>
        <mxCell id="C1v8-wwC77GxeJJLBf2t-2" value="开始" style="ellipse;whiteSpace=wrap;html=1;" vertex="1" parent="1">
          <mxGeometry x="360" y="180" width="80" height="40" as="geometry" />
        </mxCell>
        <mxCell id="C1v8-wwC77GxeJJLBf2t-7" value="" style="edgeStyle=orthogonalEdgeStyle;rounded=0;orthogonalLoop=1;jettySize=auto;html=1;" edge="1" parent="1" source="C1v8-wwC77GxeJJLBf2t-11" target="C1v8-wwC77GxeJJLBf2t-12">
          <mxGeometry relative="1" as="geometry" />
        </mxCell>
        <mxCell id="C1v8-wwC77GxeJJLBf2t-8" value="否" style="edgeLabel;html=1;align=center;verticalAlign=middle;resizable=0;points=[];" vertex="1" connectable="0" parent="C1v8-wwC77GxeJJLBf2t-7">
          <mxGeometry x="0.2933" y="-1" relative="1" as="geometry">
            <mxPoint as="offset" />
          </mxGeometry>
        </mxCell>
        <mxCell id="C1v8-wwC77GxeJJLBf2t-9" value="" style="edgeStyle=orthogonalEdgeStyle;rounded=0;orthogonalLoop=1;jettySize=auto;html=1;" edge="1" parent="1" source="C1v8-wwC77GxeJJLBf2t-11" target="C1v8-wwC77GxeJJLBf2t-14">
          <mxGeometry relative="1" as="geometry" />
        </mxCell>
        <mxCell id="C1v8-wwC77GxeJJLBf2t-10" value="是" style="edgeLabel;html=1;align=center;verticalAlign=middle;resizable=0;points=[];" vertex="1" connectable="0" parent="C1v8-wwC77GxeJJLBf2t-9">
          <mxGeometry x="0.2533" relative="1" as="geometry">
            <mxPoint as="offset" />
          </mxGeometry>
        </mxCell>
        <mxCell id="C1v8-wwC77GxeJJLBf2t-11" value="请求后端成功？" style="rhombus;whiteSpace=wrap;html=1;" vertex="1" parent="1">
          <mxGeometry x="360" y="250" width="80" height="40" as="geometry" />
        </mxCell>
        <mxCell id="C1v8-wwC77GxeJJLBf2t-12" value="展示空列表" style="rounded=0;whiteSpace=wrap;html=1;" vertex="1" parent="1">
          <mxGeometry x="250" y="250" width="80" height="40" as="geometry" />
        </mxCell>
        <mxCell id="C1v8-wwC77GxeJJLBf2t-13" value="" style="edgeStyle=orthogonalEdgeStyle;rounded=0;orthogonalLoop=1;jettySize=auto;html=1;" edge="1" parent="1" source="C1v8-wwC77GxeJJLBf2t-14" target="C1v8-wwC77GxeJJLBf2t-16">
          <mxGeometry relative="1" as="geometry" />
        </mxCell>
        <mxCell id="C1v8-wwC77GxeJJLBf2t-14" value="数据库操作" style="rounded=0;whiteSpace=wrap;html=1;" vertex="1" parent="1">
          <mxGeometry x="360" y="320" width="80" height="40" as="geometry" />
        </mxCell>
        <mxCell id="C1v8-wwC77GxeJJLBf2t-15" value="" style="edgeStyle=orthogonalEdgeStyle;rounded=0;orthogonalLoop=1;jettySize=auto;html=1;" edge="1" parent="1" source="C1v8-wwC77GxeJJLBf2t-16" target="C1v8-wwC77GxeJJLBf2t-21">
          <mxGeometry relative="1" as="geometry" />
        </mxCell>
        <mxCell id="C1v8-wwC77GxeJJLBf2t-16" value="" style="shape=cylinder3;whiteSpace=wrap;html=1;boundedLbl=1;backgroundOutline=1;size=15;" vertex="1" parent="1">
          <mxGeometry x="260" y="310" width="60" height="60" as="geometry" />
        </mxCell>
        <mxCell id="C1v8-wwC77GxeJJLBf2t-17" value="" style="edgeStyle=orthogonalEdgeStyle;rounded=0;orthogonalLoop=1;jettySize=auto;html=1;" edge="1" parent="1" source="C1v8-wwC77GxeJJLBf2t-21" target="C1v8-wwC77GxeJJLBf2t-23">
          <mxGeometry relative="1" as="geometry" />
        </mxCell>
        <mxCell id="C1v8-wwC77GxeJJLBf2t-18" value="是" style="edgeLabel;html=1;align=center;verticalAlign=middle;resizable=0;points=[];" vertex="1" connectable="0" parent="C1v8-wwC77GxeJJLBf2t-17">
          <mxGeometry x="-0.7467" y="-2" relative="1" as="geometry">
            <mxPoint as="offset" />
          </mxGeometry>
        </mxCell>
        <mxCell id="C1v8-wwC77GxeJJLBf2t-19" value="" style="edgeStyle=orthogonalEdgeStyle;rounded=0;orthogonalLoop=1;jettySize=auto;html=1;" edge="1" parent="1" source="C1v8-wwC77GxeJJLBf2t-21" target="C1v8-wwC77GxeJJLBf2t-22">
          <mxGeometry relative="1" as="geometry" />
        </mxCell>
        <mxCell id="C1v8-wwC77GxeJJLBf2t-20" value="否" style="edgeLabel;html=1;align=center;verticalAlign=middle;resizable=0;points=[];" vertex="1" connectable="0" parent="C1v8-wwC77GxeJJLBf2t-19">
          <mxGeometry x="0.3867" y="-1" relative="1" as="geometry">
            <mxPoint as="offset" />
          </mxGeometry>
        </mxCell>
        <mxCell id="C1v8-wwC77GxeJJLBf2t-21" value="请求数据库成功？" style="rhombus;whiteSpace=wrap;html=1;" vertex="1" parent="1">
          <mxGeometry x="250" y="410" width="80" height="40" as="geometry" />
        </mxCell>
        <mxCell id="C1v8-wwC77GxeJJLBf2t-22" value="展示空列表" style="rounded=0;whiteSpace=wrap;html=1;" vertex="1" parent="1">
          <mxGeometry x="360" y="410" width="80" height="40" as="geometry" />
        </mxCell>
        <mxCell id="C1v8-wwC77GxeJJLBf2t-23" value="展示用户列表" style="rounded=0;whiteSpace=wrap;html=1;" vertex="1" parent="1">
          <mxGeometry x="250" y="480" width="80" height="40" as="geometry" />
        </mxCell>
        <mxCell id="C1v8-wwC77GxeJJLBf2t-24" value="结束" style="ellipse;whiteSpace=wrap;html=1;" vertex="1" parent="1">
          <mxGeometry x="480" y="480" width="80" height="40" as="geometry" />
        </mxCell>
        <mxCell id="C1v8-wwC77GxeJJLBf2t-25" value="" style="endArrow=classic;html=1;rounded=0;exitX=0;exitY=0.5;exitDx=0;exitDy=0;entryX=0.5;entryY=1;entryDx=0;entryDy=0;" edge="1" parent="1" source="C1v8-wwC77GxeJJLBf2t-12" target="C1v8-wwC77GxeJJLBf2t-24">
          <mxGeometry width="50" height="50" relative="1" as="geometry">
            <mxPoint x="390" y="350" as="sourcePoint" />
            <mxPoint x="530" y="560" as="targetPoint" />
            <Array as="points">
              <mxPoint x="200" y="270" />
              <mxPoint x="200" y="560" />
              <mxPoint x="520" y="560" />
            </Array>
          </mxGeometry>
        </mxCell>
        <mxCell id="C1v8-wwC77GxeJJLBf2t-26" value="" style="endArrow=classic;html=1;rounded=0;exitX=1;exitY=0.5;exitDx=0;exitDy=0;entryX=0.5;entryY=0;entryDx=0;entryDy=0;" edge="1" parent="1" source="C1v8-wwC77GxeJJLBf2t-22" target="C1v8-wwC77GxeJJLBf2t-24">
          <mxGeometry width="50" height="50" relative="1" as="geometry">
            <mxPoint x="390" y="350" as="sourcePoint" />
            <mxPoint x="440" y="300" as="targetPoint" />
            <Array as="points">
              <mxPoint x="520" y="430" />
            </Array>
          </mxGeometry>
        </mxCell>
        <mxCell id="C1v8-wwC77GxeJJLBf2t-27" value="" style="endArrow=classic;html=1;rounded=0;exitX=1;exitY=0.5;exitDx=0;exitDy=0;entryX=0;entryY=0.5;entryDx=0;entryDy=0;" edge="1" parent="1" source="C1v8-wwC77GxeJJLBf2t-23" target="C1v8-wwC77GxeJJLBf2t-24">
          <mxGeometry width="50" height="50" relative="1" as="geometry">
            <mxPoint x="390" y="350" as="sourcePoint" />
            <mxPoint x="440" y="300" as="targetPoint" />
          </mxGeometry>
        </mxCell>
      </root>
    </mxGraphModel>
  </diagram>
  <diagram id="uOv7cOvOq7mNEPfVdTib" name="第 7 页">
    <mxGraphModel dx="970" dy="631" grid="1" gridSize="10" guides="1" tooltips="1" connect="1" arrows="1" fold="1" page="1" pageScale="1" pageWidth="827" pageHeight="1169" math="0" shadow="0">
      <root>
        <mxCell id="0" />
        <mxCell id="1" parent="0" />
        <mxCell id="Vysrh0RrcoiN_-oEP7Bl-1" value="" style="edgeStyle=orthogonalEdgeStyle;rounded=0;orthogonalLoop=1;jettySize=auto;html=1;" edge="1" parent="1" source="Vysrh0RrcoiN_-oEP7Bl-2" target="Vysrh0RrcoiN_-oEP7Bl-4">
          <mxGeometry relative="1" as="geometry" />
        </mxCell>
        <mxCell id="Vysrh0RrcoiN_-oEP7Bl-2" value="开始" style="ellipse;whiteSpace=wrap;html=1;" vertex="1" parent="1">
          <mxGeometry x="360" y="120" width="80" height="40" as="geometry" />
        </mxCell>
        <mxCell id="Vysrh0RrcoiN_-oEP7Bl-3" value="" style="edgeStyle=orthogonalEdgeStyle;rounded=0;orthogonalLoop=1;jettySize=auto;html=1;" edge="1" parent="1" source="Vysrh0RrcoiN_-oEP7Bl-4" target="Vysrh0RrcoiN_-oEP7Bl-6">
          <mxGeometry relative="1" as="geometry" />
        </mxCell>
        <mxCell id="Vysrh0RrcoiN_-oEP7Bl-4" value="点击重置密码" style="rounded=0;whiteSpace=wrap;html=1;" vertex="1" parent="1">
          <mxGeometry x="360" y="190" width="80" height="40" as="geometry" />
        </mxCell>
        <mxCell id="Vysrh0RrcoiN_-oEP7Bl-5" value="" style="edgeStyle=orthogonalEdgeStyle;rounded=0;orthogonalLoop=1;jettySize=auto;html=1;" edge="1" parent="1" source="Vysrh0RrcoiN_-oEP7Bl-6" target="Vysrh0RrcoiN_-oEP7Bl-8">
          <mxGeometry relative="1" as="geometry" />
        </mxCell>
        <mxCell id="Vysrh0RrcoiN_-oEP7Bl-6" value="输入原密码和二次新密码" style="rounded=0;whiteSpace=wrap;html=1;" vertex="1" parent="1">
          <mxGeometry x="480" y="190" width="80" height="40" as="geometry" />
        </mxCell>
        <mxCell id="Vysrh0RrcoiN_-oEP7Bl-7" value="" style="edgeStyle=orthogonalEdgeStyle;rounded=0;orthogonalLoop=1;jettySize=auto;html=1;" edge="1" parent="1" source="Vysrh0RrcoiN_-oEP7Bl-8" target="Vysrh0RrcoiN_-oEP7Bl-13">
          <mxGeometry relative="1" as="geometry" />
        </mxCell>
        <mxCell id="Vysrh0RrcoiN_-oEP7Bl-8" value="点击提交" style="rounded=0;whiteSpace=wrap;html=1;" vertex="1" parent="1">
          <mxGeometry x="480" y="250" width="80" height="40" as="geometry" />
        </mxCell>
        <mxCell id="Vysrh0RrcoiN_-oEP7Bl-9" value="" style="edgeStyle=orthogonalEdgeStyle;rounded=0;orthogonalLoop=1;jettySize=auto;html=1;" edge="1" parent="1" source="Vysrh0RrcoiN_-oEP7Bl-13" target="Vysrh0RrcoiN_-oEP7Bl-14">
          <mxGeometry relative="1" as="geometry" />
        </mxCell>
        <mxCell id="Vysrh0RrcoiN_-oEP7Bl-10" value="否" style="edgeLabel;html=1;align=center;verticalAlign=middle;resizable=0;points=[];" vertex="1" connectable="0" parent="Vysrh0RrcoiN_-oEP7Bl-9">
          <mxGeometry x="0.2933" y="-1" relative="1" as="geometry">
            <mxPoint as="offset" />
          </mxGeometry>
        </mxCell>
        <mxCell id="Vysrh0RrcoiN_-oEP7Bl-11" value="" style="edgeStyle=orthogonalEdgeStyle;rounded=0;orthogonalLoop=1;jettySize=auto;html=1;" edge="1" parent="1" source="Vysrh0RrcoiN_-oEP7Bl-13" target="Vysrh0RrcoiN_-oEP7Bl-16">
          <mxGeometry relative="1" as="geometry" />
        </mxCell>
        <mxCell id="Vysrh0RrcoiN_-oEP7Bl-12" value="是" style="edgeLabel;html=1;align=center;verticalAlign=middle;resizable=0;points=[];" vertex="1" connectable="0" parent="Vysrh0RrcoiN_-oEP7Bl-11">
          <mxGeometry x="0.2533" relative="1" as="geometry">
            <mxPoint as="offset" />
          </mxGeometry>
        </mxCell>
        <mxCell id="Vysrh0RrcoiN_-oEP7Bl-13" value="请求后端成功？" style="rhombus;whiteSpace=wrap;html=1;" vertex="1" parent="1">
          <mxGeometry x="360" y="250" width="80" height="40" as="geometry" />
        </mxCell>
        <mxCell id="Vysrh0RrcoiN_-oEP7Bl-14" value="提示请求出错" style="rounded=0;whiteSpace=wrap;html=1;" vertex="1" parent="1">
          <mxGeometry x="250" y="250" width="80" height="40" as="geometry" />
        </mxCell>
        <mxCell id="Vysrh0RrcoiN_-oEP7Bl-15" value="" style="edgeStyle=orthogonalEdgeStyle;rounded=0;orthogonalLoop=1;jettySize=auto;html=1;" edge="1" parent="1" source="Vysrh0RrcoiN_-oEP7Bl-16" target="Vysrh0RrcoiN_-oEP7Bl-18">
          <mxGeometry relative="1" as="geometry" />
        </mxCell>
        <mxCell id="Vysrh0RrcoiN_-oEP7Bl-16" value="数据库操作" style="rounded=0;whiteSpace=wrap;html=1;" vertex="1" parent="1">
          <mxGeometry x="360" y="320" width="80" height="40" as="geometry" />
        </mxCell>
        <mxCell id="Vysrh0RrcoiN_-oEP7Bl-17" value="" style="edgeStyle=orthogonalEdgeStyle;rounded=0;orthogonalLoop=1;jettySize=auto;html=1;" edge="1" parent="1" source="Vysrh0RrcoiN_-oEP7Bl-18" target="Vysrh0RrcoiN_-oEP7Bl-23">
          <mxGeometry relative="1" as="geometry" />
        </mxCell>
        <mxCell id="Vysrh0RrcoiN_-oEP7Bl-18" value="" style="shape=cylinder3;whiteSpace=wrap;html=1;boundedLbl=1;backgroundOutline=1;size=15;" vertex="1" parent="1">
          <mxGeometry x="260" y="310" width="60" height="60" as="geometry" />
        </mxCell>
        <mxCell id="Vysrh0RrcoiN_-oEP7Bl-19" value="" style="edgeStyle=orthogonalEdgeStyle;rounded=0;orthogonalLoop=1;jettySize=auto;html=1;" edge="1" parent="1" source="Vysrh0RrcoiN_-oEP7Bl-23" target="Vysrh0RrcoiN_-oEP7Bl-25">
          <mxGeometry relative="1" as="geometry" />
        </mxCell>
        <mxCell id="Vysrh0RrcoiN_-oEP7Bl-20" value="是" style="edgeLabel;html=1;align=center;verticalAlign=middle;resizable=0;points=[];" vertex="1" connectable="0" parent="Vysrh0RrcoiN_-oEP7Bl-19">
          <mxGeometry x="-0.7467" y="-2" relative="1" as="geometry">
            <mxPoint as="offset" />
          </mxGeometry>
        </mxCell>
        <mxCell id="Vysrh0RrcoiN_-oEP7Bl-21" value="" style="edgeStyle=orthogonalEdgeStyle;rounded=0;orthogonalLoop=1;jettySize=auto;html=1;" edge="1" parent="1" source="Vysrh0RrcoiN_-oEP7Bl-23" target="Vysrh0RrcoiN_-oEP7Bl-24">
          <mxGeometry relative="1" as="geometry" />
        </mxCell>
        <mxCell id="Vysrh0RrcoiN_-oEP7Bl-22" value="否" style="edgeLabel;html=1;align=center;verticalAlign=middle;resizable=0;points=[];" vertex="1" connectable="0" parent="Vysrh0RrcoiN_-oEP7Bl-21">
          <mxGeometry x="0.3867" y="-1" relative="1" as="geometry">
            <mxPoint as="offset" />
          </mxGeometry>
        </mxCell>
        <mxCell id="Vysrh0RrcoiN_-oEP7Bl-23" value="请求数据库成功？" style="rhombus;whiteSpace=wrap;html=1;" vertex="1" parent="1">
          <mxGeometry x="250" y="410" width="80" height="40" as="geometry" />
        </mxCell>
        <mxCell id="Vysrh0RrcoiN_-oEP7Bl-24" value="提示重置密码失败" style="rounded=0;whiteSpace=wrap;html=1;" vertex="1" parent="1">
          <mxGeometry x="360" y="410" width="80" height="40" as="geometry" />
        </mxCell>
        <mxCell id="Vysrh0RrcoiN_-oEP7Bl-25" value="提示重置密码成功" style="rounded=0;whiteSpace=wrap;html=1;" vertex="1" parent="1">
          <mxGeometry x="250" y="480" width="80" height="40" as="geometry" />
        </mxCell>
        <mxCell id="Vysrh0RrcoiN_-oEP7Bl-26" value="结束" style="ellipse;whiteSpace=wrap;html=1;" vertex="1" parent="1">
          <mxGeometry x="480" y="480" width="80" height="40" as="geometry" />
        </mxCell>
        <mxCell id="Vysrh0RrcoiN_-oEP7Bl-27" value="" style="endArrow=classic;html=1;rounded=0;exitX=0;exitY=0.5;exitDx=0;exitDy=0;entryX=0.5;entryY=1;entryDx=0;entryDy=0;" edge="1" parent="1" source="Vysrh0RrcoiN_-oEP7Bl-14" target="Vysrh0RrcoiN_-oEP7Bl-26">
          <mxGeometry width="50" height="50" relative="1" as="geometry">
            <mxPoint x="390" y="350" as="sourcePoint" />
            <mxPoint x="530" y="560" as="targetPoint" />
            <Array as="points">
              <mxPoint x="200" y="270" />
              <mxPoint x="200" y="560" />
              <mxPoint x="520" y="560" />
            </Array>
          </mxGeometry>
        </mxCell>
        <mxCell id="Vysrh0RrcoiN_-oEP7Bl-28" value="" style="endArrow=classic;html=1;rounded=0;exitX=1;exitY=0.5;exitDx=0;exitDy=0;entryX=0.5;entryY=0;entryDx=0;entryDy=0;" edge="1" parent="1" source="Vysrh0RrcoiN_-oEP7Bl-24" target="Vysrh0RrcoiN_-oEP7Bl-26">
          <mxGeometry width="50" height="50" relative="1" as="geometry">
            <mxPoint x="390" y="350" as="sourcePoint" />
            <mxPoint x="440" y="300" as="targetPoint" />
            <Array as="points">
              <mxPoint x="520" y="430" />
            </Array>
          </mxGeometry>
        </mxCell>
        <mxCell id="Vysrh0RrcoiN_-oEP7Bl-29" value="" style="endArrow=classic;html=1;rounded=0;exitX=1;exitY=0.5;exitDx=0;exitDy=0;entryX=0;entryY=0.5;entryDx=0;entryDy=0;" edge="1" parent="1" source="Vysrh0RrcoiN_-oEP7Bl-25" target="Vysrh0RrcoiN_-oEP7Bl-26">
          <mxGeometry width="50" height="50" relative="1" as="geometry">
            <mxPoint x="390" y="350" as="sourcePoint" />
            <mxPoint x="440" y="300" as="targetPoint" />
          </mxGeometry>
        </mxCell>
      </root>
    </mxGraphModel>
  </diagram>
  <diagram id="VwjuFiizIA06UkOiEUkl" name="第 8 页">
    <mxGraphModel dx="143" dy="631" grid="1" gridSize="10" guides="1" tooltips="1" connect="1" arrows="1" fold="1" page="1" pageScale="1" pageWidth="827" pageHeight="1169" math="0" shadow="0">
      <root>
        <mxCell id="0" />
        <mxCell id="1" parent="0" />
        <mxCell id="sMuxJZQuTOI91yOz_se1-1" value="作业操作" style="rounded=0;whiteSpace=wrap;html=1;" vertex="1" parent="1">
          <mxGeometry x="1520" y="130" width="80" height="30" as="geometry" />
        </mxCell>
        <mxCell id="sMuxJZQuTOI91yOz_se1-2" value="" style="edgeStyle=orthogonalEdgeStyle;rounded=0;orthogonalLoop=1;jettySize=auto;html=1;" edge="1" parent="1" source="sMuxJZQuTOI91yOz_se1-3" target="sMuxJZQuTOI91yOz_se1-1">
          <mxGeometry relative="1" as="geometry" />
        </mxCell>
        <mxCell id="sMuxJZQuTOI91yOz_se1-3" value="开始" style="ellipse;whiteSpace=wrap;html=1;rounded=0;" vertex="1" parent="1">
          <mxGeometry x="1520" y="70" width="80" height="35" as="geometry" />
        </mxCell>
        <mxCell id="sMuxJZQuTOI91yOz_se1-4" value="查询作业" style="shape=process;whiteSpace=wrap;html=1;backgroundOutline=1;" vertex="1" parent="1">
          <mxGeometry x="1760" y="190" width="80" height="30" as="geometry" />
        </mxCell>
        <mxCell id="sMuxJZQuTOI91yOz_se1-5" value="" style="endArrow=classic;html=1;rounded=0;entryX=0.5;entryY=0;entryDx=0;entryDy=0;" edge="1" parent="1">
          <mxGeometry width="50" height="50" relative="1" as="geometry">
            <mxPoint x="1520" y="150" as="sourcePoint" />
            <mxPoint x="1320" y="190" as="targetPoint" />
            <Array as="points">
              <mxPoint x="1320" y="150" />
            </Array>
          </mxGeometry>
        </mxCell>
        <mxCell id="sMuxJZQuTOI91yOz_se1-6" value="" style="endArrow=classic;html=1;rounded=0;entryX=0.5;entryY=0;entryDx=0;entryDy=0;" edge="1" parent="1">
          <mxGeometry width="50" height="50" relative="1" as="geometry">
            <mxPoint x="1480" y="150" as="sourcePoint" />
            <mxPoint x="1480" y="190" as="targetPoint" />
          </mxGeometry>
        </mxCell>
        <mxCell id="sMuxJZQuTOI91yOz_se1-7" value="" style="endArrow=classic;html=1;rounded=0;entryX=0.5;entryY=0;entryDx=0;entryDy=0;" edge="1" parent="1" target="sMuxJZQuTOI91yOz_se1-4">
          <mxGeometry width="50" height="50" relative="1" as="geometry">
            <mxPoint x="1600" y="150" as="sourcePoint" />
            <mxPoint x="1800" y="150" as="targetPoint" />
            <Array as="points">
              <mxPoint x="1800" y="150" />
            </Array>
          </mxGeometry>
        </mxCell>
        <mxCell id="sMuxJZQuTOI91yOz_se1-8" value="" style="endArrow=classic;html=1;rounded=0;entryX=0.5;entryY=0;entryDx=0;entryDy=0;" edge="1" parent="1">
          <mxGeometry width="50" height="50" relative="1" as="geometry">
            <mxPoint x="1640" y="150" as="sourcePoint" />
            <mxPoint x="1640" y="190" as="targetPoint" />
          </mxGeometry>
        </mxCell>
        <mxCell id="sMuxJZQuTOI91yOz_se1-9" value="添加作业" style="shape=process;whiteSpace=wrap;html=1;backgroundOutline=1;" vertex="1" parent="1">
          <mxGeometry x="1280" y="190" width="80" height="30" as="geometry" />
        </mxCell>
        <mxCell id="sMuxJZQuTOI91yOz_se1-10" value="修改作业" style="shape=process;whiteSpace=wrap;html=1;backgroundOutline=1;" vertex="1" parent="1">
          <mxGeometry x="1440" y="190" width="80" height="30" as="geometry" />
        </mxCell>
        <mxCell id="sMuxJZQuTOI91yOz_se1-11" value="删除作业" style="shape=process;whiteSpace=wrap;html=1;backgroundOutline=1;" vertex="1" parent="1">
          <mxGeometry x="1600" y="190" width="80" height="30" as="geometry" />
        </mxCell>
        <mxCell id="sMuxJZQuTOI91yOz_se1-12" value="" style="endArrow=classic;html=1;rounded=0;exitX=0.5;exitY=1;exitDx=0;exitDy=0;" edge="1" parent="1" target="sMuxJZQuTOI91yOz_se1-14">
          <mxGeometry width="50" height="50" relative="1" as="geometry">
            <mxPoint x="1320" y="220" as="sourcePoint" />
            <mxPoint x="1320" y="260" as="targetPoint" />
          </mxGeometry>
        </mxCell>
        <mxCell id="sMuxJZQuTOI91yOz_se1-13" value="" style="edgeStyle=orthogonalEdgeStyle;rounded=0;orthogonalLoop=1;jettySize=auto;html=1;" edge="1" parent="1" source="sMuxJZQuTOI91yOz_se1-14" target="sMuxJZQuTOI91yOz_se1-15">
          <mxGeometry relative="1" as="geometry" />
        </mxCell>
        <mxCell id="sMuxJZQuTOI91yOz_se1-14" value="点击添加按钮" style="rounded=0;whiteSpace=wrap;html=1;" vertex="1" parent="1">
          <mxGeometry x="1280" y="260" width="80" height="30" as="geometry" />
        </mxCell>
        <mxCell id="sMuxJZQuTOI91yOz_se1-56" value="" style="edgeStyle=orthogonalEdgeStyle;rounded=0;orthogonalLoop=1;jettySize=auto;html=1;" edge="1" parent="1" source="sMuxJZQuTOI91yOz_se1-15" target="sMuxJZQuTOI91yOz_se1-55">
          <mxGeometry relative="1" as="geometry" />
        </mxCell>
        <mxCell id="sMuxJZQuTOI91yOz_se1-15" value="添加作业信息" style="rounded=0;whiteSpace=wrap;html=1;" vertex="1" parent="1">
          <mxGeometry x="1280" y="320" width="80" height="30" as="geometry" />
        </mxCell>
        <mxCell id="sMuxJZQuTOI91yOz_se1-16" value="" style="edgeStyle=orthogonalEdgeStyle;rounded=0;orthogonalLoop=1;jettySize=auto;html=1;exitX=0.5;exitY=1;exitDx=0;exitDy=0;" edge="1" parent="1" source="sMuxJZQuTOI91yOz_se1-24" target="sMuxJZQuTOI91yOz_se1-26">
          <mxGeometry relative="1" as="geometry" />
        </mxCell>
        <mxCell id="sMuxJZQuTOI91yOz_se1-17" value="" style="edgeStyle=orthogonalEdgeStyle;rounded=0;orthogonalLoop=1;jettySize=auto;html=1;entryX=0.5;entryY=0;entryDx=0;entryDy=0;" edge="1" parent="1" source="sMuxJZQuTOI91yOz_se1-18" target="sMuxJZQuTOI91yOz_se1-24">
          <mxGeometry relative="1" as="geometry">
            <Array as="points" />
          </mxGeometry>
        </mxCell>
        <mxCell id="sMuxJZQuTOI91yOz_se1-18" value="点击修改按钮" style="rounded=0;whiteSpace=wrap;html=1;" vertex="1" parent="1">
          <mxGeometry x="1440" y="260" width="80" height="30" as="geometry" />
        </mxCell>
        <mxCell id="sMuxJZQuTOI91yOz_se1-19" style="edgeStyle=orthogonalEdgeStyle;rounded=0;orthogonalLoop=1;jettySize=auto;html=1;exitX=0;exitY=0.5;exitDx=0;exitDy=0;entryX=1;entryY=0.5;entryDx=0;entryDy=0;" edge="1" parent="1" source="sMuxJZQuTOI91yOz_se1-23" target="sMuxJZQuTOI91yOz_se1-27">
          <mxGeometry relative="1" as="geometry" />
        </mxCell>
        <mxCell id="sMuxJZQuTOI91yOz_se1-20" value="是" style="edgeLabel;html=1;align=center;verticalAlign=middle;resizable=0;points=[];" vertex="1" connectable="0" parent="sMuxJZQuTOI91yOz_se1-19">
          <mxGeometry x="-0.17" y="2" relative="1" as="geometry">
            <mxPoint as="offset" />
          </mxGeometry>
        </mxCell>
        <mxCell id="sMuxJZQuTOI91yOz_se1-21" value="" style="edgeStyle=orthogonalEdgeStyle;rounded=0;orthogonalLoop=1;jettySize=auto;html=1;entryX=1;entryY=0.5;entryDx=0;entryDy=0;exitX=1;exitY=0.5;exitDx=0;exitDy=0;" edge="1" parent="1" source="sMuxJZQuTOI91yOz_se1-23" target="sMuxJZQuTOI91yOz_se1-31">
          <mxGeometry relative="1" as="geometry" />
        </mxCell>
        <mxCell id="sMuxJZQuTOI91yOz_se1-22" value="否" style="edgeLabel;html=1;align=center;verticalAlign=middle;resizable=0;points=[];" vertex="1" connectable="0" parent="sMuxJZQuTOI91yOz_se1-21">
          <mxGeometry x="-0.5768" y="-2" relative="1" as="geometry">
            <mxPoint as="offset" />
          </mxGeometry>
        </mxCell>
        <mxCell id="sMuxJZQuTOI91yOz_se1-23" value="确认删除？" style="rhombus;whiteSpace=wrap;html=1;" vertex="1" parent="1">
          <mxGeometry x="1590" y="260" width="100" height="30" as="geometry" />
        </mxCell>
        <mxCell id="sMuxJZQuTOI91yOz_se1-24" value="显示作业信息" style="rounded=0;whiteSpace=wrap;html=1;" vertex="1" parent="1">
          <mxGeometry x="1440" y="320" width="80" height="30" as="geometry" />
        </mxCell>
        <mxCell id="sMuxJZQuTOI91yOz_se1-25" value="" style="edgeStyle=orthogonalEdgeStyle;rounded=0;orthogonalLoop=1;jettySize=auto;html=1;" edge="1" parent="1" source="sMuxJZQuTOI91yOz_se1-26" target="sMuxJZQuTOI91yOz_se1-27">
          <mxGeometry relative="1" as="geometry" />
        </mxCell>
        <mxCell id="sMuxJZQuTOI91yOz_se1-26" value="修改作业信息" style="rounded=0;whiteSpace=wrap;html=1;" vertex="1" parent="1">
          <mxGeometry x="1440" y="381" width="80" height="30" as="geometry" />
        </mxCell>
        <mxCell id="sMuxJZQuTOI91yOz_se1-27" value="提交" style="rounded=0;whiteSpace=wrap;html=1;" vertex="1" parent="1">
          <mxGeometry x="1444.5" y="441" width="71" height="34" as="geometry" />
        </mxCell>
        <mxCell id="sMuxJZQuTOI91yOz_se1-28" value="" style="endArrow=classic;html=1;rounded=0;exitX=0.5;exitY=1;exitDx=0;exitDy=0;entryX=0.5;entryY=0;entryDx=0;entryDy=0;" edge="1" parent="1" target="sMuxJZQuTOI91yOz_se1-18">
          <mxGeometry width="50" height="50" relative="1" as="geometry">
            <mxPoint x="1480" y="220" as="sourcePoint" />
            <mxPoint x="1740" y="230" as="targetPoint" />
          </mxGeometry>
        </mxCell>
        <mxCell id="sMuxJZQuTOI91yOz_se1-29" value="" style="endArrow=classic;html=1;rounded=0;entryX=0.5;entryY=0;entryDx=0;entryDy=0;" edge="1" parent="1">
          <mxGeometry width="50" height="50" relative="1" as="geometry">
            <mxPoint x="1639.5" y="220" as="sourcePoint" />
            <mxPoint x="1639.5" y="260" as="targetPoint" />
          </mxGeometry>
        </mxCell>
        <mxCell id="sMuxJZQuTOI91yOz_se1-30" value="" style="edgeStyle=none;orthogonalLoop=1;jettySize=auto;html=1;rounded=0;exitX=0.5;exitY=1;exitDx=0;exitDy=0;entryX=0;entryY=0.5;entryDx=0;entryDy=0;" edge="1" parent="1" source="sMuxJZQuTOI91yOz_se1-55" target="sMuxJZQuTOI91yOz_se1-27">
          <mxGeometry width="100" relative="1" as="geometry">
            <mxPoint x="1270" y="370" as="sourcePoint" />
            <mxPoint x="1440" y="460" as="targetPoint" />
            <Array as="points">
              <mxPoint x="1320" y="460" />
            </Array>
          </mxGeometry>
        </mxCell>
        <mxCell id="sMuxJZQuTOI91yOz_se1-31" value="结束" style="rounded=0;whiteSpace=wrap;html=1;" vertex="1" parent="1">
          <mxGeometry x="1480" y="560" width="40" height="40" as="geometry" />
        </mxCell>
        <mxCell id="sMuxJZQuTOI91yOz_se1-32" value="" style="edgeStyle=orthogonalEdgeStyle;rounded=0;orthogonalLoop=1;jettySize=auto;html=1;" edge="1" parent="1" source="sMuxJZQuTOI91yOz_se1-36" target="sMuxJZQuTOI91yOz_se1-38">
          <mxGeometry relative="1" as="geometry" />
        </mxCell>
        <mxCell id="sMuxJZQuTOI91yOz_se1-33" value="是" style="edgeLabel;html=1;align=center;verticalAlign=middle;resizable=0;points=[];" vertex="1" connectable="0" parent="sMuxJZQuTOI91yOz_se1-32">
          <mxGeometry x="-0.1833" y="2" relative="1" as="geometry">
            <mxPoint as="offset" />
          </mxGeometry>
        </mxCell>
        <mxCell id="sMuxJZQuTOI91yOz_se1-34" value="" style="edgeStyle=orthogonalEdgeStyle;rounded=0;orthogonalLoop=1;jettySize=auto;html=1;" edge="1" parent="1" source="sMuxJZQuTOI91yOz_se1-36" target="sMuxJZQuTOI91yOz_se1-39">
          <mxGeometry relative="1" as="geometry" />
        </mxCell>
        <mxCell id="sMuxJZQuTOI91yOz_se1-35" value="否" style="edgeLabel;html=1;align=center;verticalAlign=middle;resizable=0;points=[];" vertex="1" connectable="0" parent="sMuxJZQuTOI91yOz_se1-34">
          <mxGeometry x="-0.1167" y="2" relative="1" as="geometry">
            <mxPoint as="offset" />
          </mxGeometry>
        </mxCell>
        <mxCell id="sMuxJZQuTOI91yOz_se1-36" value="是否上传后端成功？" style="rhombus;whiteSpace=wrap;html=1;" vertex="1" parent="1">
          <mxGeometry x="1440" y="501.5" width="80" height="34" as="geometry" />
        </mxCell>
        <mxCell id="sMuxJZQuTOI91yOz_se1-37" value="" style="endArrow=classic;html=1;rounded=0;exitX=0.5;exitY=1;exitDx=0;exitDy=0;entryX=0.5;entryY=0;entryDx=0;entryDy=0;" edge="1" parent="1" source="sMuxJZQuTOI91yOz_se1-27" target="sMuxJZQuTOI91yOz_se1-36">
          <mxGeometry width="50" height="50" relative="1" as="geometry">
            <mxPoint x="1690" y="360" as="sourcePoint" />
            <mxPoint x="1740" y="310" as="targetPoint" />
          </mxGeometry>
        </mxCell>
        <mxCell id="sMuxJZQuTOI91yOz_se1-38" value="操作成功&lt;span style=&quot;color: rgba(0, 0, 0, 0); font-family: monospace; font-size: 0px; text-align: start; text-wrap-mode: nowrap;&quot;&gt;%3CmxGraphModel%3E%3Croot%3E%3CmxCell%20id%3D%220%22%2F%3E%3CmxCell%20id%3D%221%22%20parent%3D%220%22%2F%3E%3CmxCell%20id%3D%222%22%20value%3D%22%E6%B7%BB%E5%8A%A0%E8%AF%BE%E7%A8%8B%E4%BF%A1%E6%81%AF%22%20style%3D%22rounded%3D0%3BwhiteSpace%3Dwrap%3Bhtml%3D1%3B%22%20vertex%3D%221%22%20parent%3D%221%22%3E%3CmxGeometry%20x%3D%22960%22%20y%3D%22220%22%20width%3D%2280%22%20height%3D%2230%22%20as%3D%22geometry%22%2F%3E%3C%2FmxCell%3E%3C%2Froot%3E%3C%2FmxGraphModel%3E&lt;/span&gt;" style="rounded=0;whiteSpace=wrap;html=1;" vertex="1" parent="1">
          <mxGeometry x="1320" y="503.5" width="80" height="30" as="geometry" />
        </mxCell>
        <mxCell id="sMuxJZQuTOI91yOz_se1-39" value="操作失败" style="rounded=0;whiteSpace=wrap;html=1;" vertex="1" parent="1">
          <mxGeometry x="1560" y="503.5" width="80" height="30" as="geometry" />
        </mxCell>
        <mxCell id="sMuxJZQuTOI91yOz_se1-40" value="" style="endArrow=classic;html=1;rounded=0;exitX=0.5;exitY=1;exitDx=0;exitDy=0;entryX=0;entryY=0.5;entryDx=0;entryDy=0;" edge="1" parent="1" source="sMuxJZQuTOI91yOz_se1-38" target="sMuxJZQuTOI91yOz_se1-31">
          <mxGeometry width="50" height="50" relative="1" as="geometry">
            <mxPoint x="1690" y="360" as="sourcePoint" />
            <mxPoint x="1740" y="310" as="targetPoint" />
            <Array as="points">
              <mxPoint x="1360" y="580" />
            </Array>
          </mxGeometry>
        </mxCell>
        <mxCell id="sMuxJZQuTOI91yOz_se1-41" value="" style="endArrow=none;html=1;rounded=0;exitX=0.5;exitY=1;exitDx=0;exitDy=0;" edge="1" parent="1" source="sMuxJZQuTOI91yOz_se1-39">
          <mxGeometry width="50" height="50" relative="1" as="geometry">
            <mxPoint x="1690" y="360" as="sourcePoint" />
            <mxPoint x="1600" y="580" as="targetPoint" />
          </mxGeometry>
        </mxCell>
        <mxCell id="sMuxJZQuTOI91yOz_se1-42" value="" style="edgeStyle=orthogonalEdgeStyle;rounded=0;orthogonalLoop=1;jettySize=auto;html=1;" edge="1" parent="1" target="sMuxJZQuTOI91yOz_se1-48">
          <mxGeometry relative="1" as="geometry">
            <mxPoint x="1802" y="220" as="sourcePoint" />
          </mxGeometry>
        </mxCell>
        <mxCell id="sMuxJZQuTOI91yOz_se1-43" value="否" style="edgeLabel;html=1;align=center;verticalAlign=middle;resizable=0;points=[];" vertex="1" connectable="0" parent="1">
          <mxGeometry x="1710" y="364" as="geometry" />
        </mxCell>
        <mxCell id="sMuxJZQuTOI91yOz_se1-44" value="" style="edgeStyle=orthogonalEdgeStyle;rounded=0;orthogonalLoop=1;jettySize=auto;html=1;" edge="1" parent="1" source="sMuxJZQuTOI91yOz_se1-48" target="sMuxJZQuTOI91yOz_se1-49">
          <mxGeometry relative="1" as="geometry" />
        </mxCell>
        <mxCell id="sMuxJZQuTOI91yOz_se1-45" value="是" style="edgeLabel;html=1;align=center;verticalAlign=middle;resizable=0;points=[];" vertex="1" connectable="0" parent="sMuxJZQuTOI91yOz_se1-44">
          <mxGeometry x="-0.4603" y="-2" relative="1" as="geometry">
            <mxPoint as="offset" />
          </mxGeometry>
        </mxCell>
        <mxCell id="sMuxJZQuTOI91yOz_se1-46" style="edgeStyle=orthogonalEdgeStyle;rounded=0;orthogonalLoop=1;jettySize=auto;html=1;exitX=1;exitY=0.5;exitDx=0;exitDy=0;entryX=0.5;entryY=0;entryDx=0;entryDy=0;" edge="1" parent="1" source="sMuxJZQuTOI91yOz_se1-48" target="sMuxJZQuTOI91yOz_se1-50">
          <mxGeometry relative="1" as="geometry" />
        </mxCell>
        <mxCell id="sMuxJZQuTOI91yOz_se1-47" value="否" style="edgeLabel;html=1;align=center;verticalAlign=middle;resizable=0;points=[];" vertex="1" connectable="0" parent="sMuxJZQuTOI91yOz_se1-46">
          <mxGeometry x="-0.252" y="1" relative="1" as="geometry">
            <mxPoint as="offset" />
          </mxGeometry>
        </mxCell>
        <mxCell id="sMuxJZQuTOI91yOz_se1-48" value="检查是否与后端连接成功？" style="rhombus;whiteSpace=wrap;html=1;" vertex="1" parent="1">
          <mxGeometry x="1752" y="260" width="100" height="30" as="geometry" />
        </mxCell>
        <mxCell id="sMuxJZQuTOI91yOz_se1-49" value="查询成功" style="rounded=0;whiteSpace=wrap;html=1;" vertex="1" parent="1">
          <mxGeometry x="1782" y="328" width="40" height="33" as="geometry" />
        </mxCell>
        <mxCell id="sMuxJZQuTOI91yOz_se1-50" value="查询失败" style="rounded=0;whiteSpace=wrap;html=1;" vertex="1" parent="1">
          <mxGeometry x="1860" y="328" width="40" height="33" as="geometry" />
        </mxCell>
        <mxCell id="sMuxJZQuTOI91yOz_se1-51" value="" style="endArrow=none;html=1;rounded=0;entryX=0.5;entryY=1;entryDx=0;entryDy=0;" edge="1" parent="1" target="sMuxJZQuTOI91yOz_se1-49">
          <mxGeometry width="50" height="50" relative="1" as="geometry">
            <mxPoint x="1712" y="580" as="sourcePoint" />
            <mxPoint x="1742" y="440" as="targetPoint" />
            <Array as="points">
              <mxPoint x="1802" y="580" />
            </Array>
          </mxGeometry>
        </mxCell>
        <mxCell id="sMuxJZQuTOI91yOz_se1-52" value="" style="endArrow=none;html=1;rounded=0;entryX=0.5;entryY=1;entryDx=0;entryDy=0;" edge="1" parent="1" target="sMuxJZQuTOI91yOz_se1-50">
          <mxGeometry width="50" height="50" relative="1" as="geometry">
            <mxPoint x="1802" y="580" as="sourcePoint" />
            <mxPoint x="1892" y="361" as="targetPoint" />
            <Array as="points">
              <mxPoint x="1880" y="580" />
            </Array>
          </mxGeometry>
        </mxCell>
        <mxCell id="sMuxJZQuTOI91yOz_se1-53" value="" style="endArrow=classic;html=1;rounded=0;entryX=0.5;entryY=0;entryDx=0;entryDy=0;" edge="1" parent="1" target="sMuxJZQuTOI91yOz_se1-54">
          <mxGeometry width="50" height="50" relative="1" as="geometry">
            <mxPoint x="1320" y="150" as="sourcePoint" />
            <mxPoint x="1970" y="180" as="targetPoint" />
            <Array as="points">
              <mxPoint x="1190" y="150" />
            </Array>
          </mxGeometry>
        </mxCell>
        <mxCell id="sMuxJZQuTOI91yOz_se1-54" value="回答作业" style="shape=process;whiteSpace=wrap;html=1;backgroundOutline=1;" vertex="1" parent="1">
          <mxGeometry x="1150" y="190" width="80" height="30" as="geometry" />
        </mxCell>
        <mxCell id="sMuxJZQuTOI91yOz_se1-55" value="上传作业文件" style="rounded=0;whiteSpace=wrap;html=1;" vertex="1" parent="1">
          <mxGeometry x="1280" y="381" width="80" height="30" as="geometry" />
        </mxCell>
        <mxCell id="Ou1sM0xOFk2hNT2qFzfV-7" value="" style="endArrow=classic;html=1;rounded=0;exitX=0.5;exitY=1;exitDx=0;exitDy=0;" edge="1" parent="1" target="Ou1sM0xOFk2hNT2qFzfV-9">
          <mxGeometry width="50" height="50" relative="1" as="geometry">
            <mxPoint x="1190" y="220" as="sourcePoint" />
            <mxPoint x="1190" y="260" as="targetPoint" />
          </mxGeometry>
        </mxCell>
        <mxCell id="Ou1sM0xOFk2hNT2qFzfV-8" value="" style="edgeStyle=orthogonalEdgeStyle;rounded=0;orthogonalLoop=1;jettySize=auto;html=1;" edge="1" parent="1" source="Ou1sM0xOFk2hNT2qFzfV-9" target="Ou1sM0xOFk2hNT2qFzfV-11">
          <mxGeometry relative="1" as="geometry" />
        </mxCell>
        <mxCell id="Ou1sM0xOFk2hNT2qFzfV-9" value="点击回答按钮" style="rounded=0;whiteSpace=wrap;html=1;" vertex="1" parent="1">
          <mxGeometry x="1150" y="260" width="80" height="30" as="geometry" />
        </mxCell>
        <mxCell id="Ou1sM0xOFk2hNT2qFzfV-11" value="上传回答作业" style="rounded=0;whiteSpace=wrap;html=1;" vertex="1" parent="1">
          <mxGeometry x="1150" y="320" width="80" height="30" as="geometry" />
        </mxCell>
        <mxCell id="Ou1sM0xOFk2hNT2qFzfV-13" value="" style="endArrow=none;html=1;rounded=0;exitX=0.5;exitY=1;exitDx=0;exitDy=0;" edge="1" parent="1" source="Ou1sM0xOFk2hNT2qFzfV-11">
          <mxGeometry width="50" height="50" relative="1" as="geometry">
            <mxPoint x="1630" y="350" as="sourcePoint" />
            <mxPoint x="1320" y="460" as="targetPoint" />
            <Array as="points">
              <mxPoint x="1190" y="460" />
            </Array>
          </mxGeometry>
        </mxCell>
      </root>
    </mxGraphModel>
  </diagram>
  <diagram id="ddODlRBwyejS9ont_x5S" name="第 9 页">
    <mxGraphModel dx="970" dy="631" grid="1" gridSize="10" guides="1" tooltips="1" connect="1" arrows="1" fold="1" page="1" pageScale="1" pageWidth="827" pageHeight="1169" math="0" shadow="0">
      <root>
        <mxCell id="0" />
        <mxCell id="1" parent="0" />
        <mxCell id="yxQ9GbS72qYl_xMvRpgq-1" value="考试操作" style="rounded=0;whiteSpace=wrap;html=1;" vertex="1" parent="1">
          <mxGeometry x="800" y="380" width="80" height="30" as="geometry" />
        </mxCell>
        <mxCell id="yxQ9GbS72qYl_xMvRpgq-2" value="" style="edgeStyle=orthogonalEdgeStyle;rounded=0;orthogonalLoop=1;jettySize=auto;html=1;" edge="1" parent="1" source="yxQ9GbS72qYl_xMvRpgq-3" target="yxQ9GbS72qYl_xMvRpgq-1">
          <mxGeometry relative="1" as="geometry" />
        </mxCell>
        <mxCell id="yxQ9GbS72qYl_xMvRpgq-3" value="开始" style="ellipse;whiteSpace=wrap;html=1;rounded=0;" vertex="1" parent="1">
          <mxGeometry x="800" y="320" width="80" height="35" as="geometry" />
        </mxCell>
        <mxCell id="yxQ9GbS72qYl_xMvRpgq-4" value="查询考试" style="shape=process;whiteSpace=wrap;html=1;backgroundOutline=1;" vertex="1" parent="1">
          <mxGeometry x="1040" y="440" width="80" height="30" as="geometry" />
        </mxCell>
        <mxCell id="yxQ9GbS72qYl_xMvRpgq-5" value="" style="endArrow=classic;html=1;rounded=0;entryX=0.5;entryY=0;entryDx=0;entryDy=0;" edge="1" parent="1">
          <mxGeometry width="50" height="50" relative="1" as="geometry">
            <mxPoint x="800" y="400" as="sourcePoint" />
            <mxPoint x="600" y="440" as="targetPoint" />
            <Array as="points">
              <mxPoint x="600" y="400" />
            </Array>
          </mxGeometry>
        </mxCell>
        <mxCell id="yxQ9GbS72qYl_xMvRpgq-6" value="" style="endArrow=classic;html=1;rounded=0;entryX=0.5;entryY=0;entryDx=0;entryDy=0;" edge="1" parent="1">
          <mxGeometry width="50" height="50" relative="1" as="geometry">
            <mxPoint x="760" y="400" as="sourcePoint" />
            <mxPoint x="760" y="440" as="targetPoint" />
          </mxGeometry>
        </mxCell>
        <mxCell id="yxQ9GbS72qYl_xMvRpgq-7" value="" style="endArrow=classic;html=1;rounded=0;entryX=0.5;entryY=0;entryDx=0;entryDy=0;" edge="1" parent="1" target="yxQ9GbS72qYl_xMvRpgq-4">
          <mxGeometry width="50" height="50" relative="1" as="geometry">
            <mxPoint x="880" y="400" as="sourcePoint" />
            <mxPoint x="1080" y="400" as="targetPoint" />
            <Array as="points">
              <mxPoint x="1080" y="400" />
            </Array>
          </mxGeometry>
        </mxCell>
        <mxCell id="yxQ9GbS72qYl_xMvRpgq-8" value="" style="endArrow=classic;html=1;rounded=0;entryX=0.5;entryY=0;entryDx=0;entryDy=0;" edge="1" parent="1">
          <mxGeometry width="50" height="50" relative="1" as="geometry">
            <mxPoint x="920" y="400" as="sourcePoint" />
            <mxPoint x="920" y="440" as="targetPoint" />
          </mxGeometry>
        </mxCell>
        <mxCell id="yxQ9GbS72qYl_xMvRpgq-9" value="添加试卷" style="shape=process;whiteSpace=wrap;html=1;backgroundOutline=1;" vertex="1" parent="1">
          <mxGeometry x="560" y="440" width="80" height="30" as="geometry" />
        </mxCell>
        <mxCell id="yxQ9GbS72qYl_xMvRpgq-10" value="修改考试" style="shape=process;whiteSpace=wrap;html=1;backgroundOutline=1;" vertex="1" parent="1">
          <mxGeometry x="720" y="440" width="80" height="30" as="geometry" />
        </mxCell>
        <mxCell id="yxQ9GbS72qYl_xMvRpgq-11" value="删除考试" style="shape=process;whiteSpace=wrap;html=1;backgroundOutline=1;" vertex="1" parent="1">
          <mxGeometry x="880" y="440" width="80" height="30" as="geometry" />
        </mxCell>
        <mxCell id="yxQ9GbS72qYl_xMvRpgq-12" value="" style="endArrow=classic;html=1;rounded=0;exitX=0.5;exitY=1;exitDx=0;exitDy=0;" edge="1" parent="1" target="yxQ9GbS72qYl_xMvRpgq-14">
          <mxGeometry width="50" height="50" relative="1" as="geometry">
            <mxPoint x="600" y="470" as="sourcePoint" />
            <mxPoint x="600" y="510" as="targetPoint" />
          </mxGeometry>
        </mxCell>
        <mxCell id="yxQ9GbS72qYl_xMvRpgq-13" value="" style="edgeStyle=orthogonalEdgeStyle;rounded=0;orthogonalLoop=1;jettySize=auto;html=1;" edge="1" parent="1" source="yxQ9GbS72qYl_xMvRpgq-14" target="yxQ9GbS72qYl_xMvRpgq-16">
          <mxGeometry relative="1" as="geometry" />
        </mxCell>
        <mxCell id="yxQ9GbS72qYl_xMvRpgq-14" value="点击添加按钮" style="rounded=0;whiteSpace=wrap;html=1;" vertex="1" parent="1">
          <mxGeometry x="560" y="510" width="80" height="30" as="geometry" />
        </mxCell>
        <mxCell id="yxQ9GbS72qYl_xMvRpgq-15" value="" style="edgeStyle=orthogonalEdgeStyle;rounded=0;orthogonalLoop=1;jettySize=auto;html=1;" edge="1" parent="1" source="yxQ9GbS72qYl_xMvRpgq-16" target="yxQ9GbS72qYl_xMvRpgq-56">
          <mxGeometry relative="1" as="geometry" />
        </mxCell>
        <mxCell id="yxQ9GbS72qYl_xMvRpgq-16" value="添加试卷信息" style="rounded=0;whiteSpace=wrap;html=1;" vertex="1" parent="1">
          <mxGeometry x="560" y="570" width="80" height="30" as="geometry" />
        </mxCell>
        <mxCell id="yxQ9GbS72qYl_xMvRpgq-17" value="" style="edgeStyle=orthogonalEdgeStyle;rounded=0;orthogonalLoop=1;jettySize=auto;html=1;exitX=0.5;exitY=1;exitDx=0;exitDy=0;" edge="1" parent="1" source="yxQ9GbS72qYl_xMvRpgq-25" target="yxQ9GbS72qYl_xMvRpgq-27">
          <mxGeometry relative="1" as="geometry" />
        </mxCell>
        <mxCell id="yxQ9GbS72qYl_xMvRpgq-18" value="" style="edgeStyle=orthogonalEdgeStyle;rounded=0;orthogonalLoop=1;jettySize=auto;html=1;entryX=0.5;entryY=0;entryDx=0;entryDy=0;" edge="1" parent="1" source="yxQ9GbS72qYl_xMvRpgq-19" target="yxQ9GbS72qYl_xMvRpgq-25">
          <mxGeometry relative="1" as="geometry">
            <Array as="points" />
          </mxGeometry>
        </mxCell>
        <mxCell id="yxQ9GbS72qYl_xMvRpgq-19" value="点击修改按钮" style="rounded=0;whiteSpace=wrap;html=1;" vertex="1" parent="1">
          <mxGeometry x="720" y="510" width="80" height="30" as="geometry" />
        </mxCell>
        <mxCell id="yxQ9GbS72qYl_xMvRpgq-20" style="edgeStyle=orthogonalEdgeStyle;rounded=0;orthogonalLoop=1;jettySize=auto;html=1;exitX=0;exitY=0.5;exitDx=0;exitDy=0;entryX=1;entryY=0.5;entryDx=0;entryDy=0;" edge="1" parent="1" source="yxQ9GbS72qYl_xMvRpgq-24" target="yxQ9GbS72qYl_xMvRpgq-28">
          <mxGeometry relative="1" as="geometry" />
        </mxCell>
        <mxCell id="yxQ9GbS72qYl_xMvRpgq-21" value="是" style="edgeLabel;html=1;align=center;verticalAlign=middle;resizable=0;points=[];" vertex="1" connectable="0" parent="yxQ9GbS72qYl_xMvRpgq-20">
          <mxGeometry x="-0.17" y="2" relative="1" as="geometry">
            <mxPoint as="offset" />
          </mxGeometry>
        </mxCell>
        <mxCell id="yxQ9GbS72qYl_xMvRpgq-22" value="" style="edgeStyle=orthogonalEdgeStyle;rounded=0;orthogonalLoop=1;jettySize=auto;html=1;entryX=1;entryY=0.5;entryDx=0;entryDy=0;exitX=1;exitY=0.5;exitDx=0;exitDy=0;" edge="1" parent="1" source="yxQ9GbS72qYl_xMvRpgq-24" target="yxQ9GbS72qYl_xMvRpgq-32">
          <mxGeometry relative="1" as="geometry" />
        </mxCell>
        <mxCell id="yxQ9GbS72qYl_xMvRpgq-23" value="否" style="edgeLabel;html=1;align=center;verticalAlign=middle;resizable=0;points=[];" vertex="1" connectable="0" parent="yxQ9GbS72qYl_xMvRpgq-22">
          <mxGeometry x="-0.5768" y="-2" relative="1" as="geometry">
            <mxPoint as="offset" />
          </mxGeometry>
        </mxCell>
        <mxCell id="yxQ9GbS72qYl_xMvRpgq-24" value="确认删除？" style="rhombus;whiteSpace=wrap;html=1;" vertex="1" parent="1">
          <mxGeometry x="870" y="510" width="100" height="30" as="geometry" />
        </mxCell>
        <mxCell id="yxQ9GbS72qYl_xMvRpgq-25" value="显示试卷信息" style="rounded=0;whiteSpace=wrap;html=1;" vertex="1" parent="1">
          <mxGeometry x="720" y="570" width="80" height="30" as="geometry" />
        </mxCell>
        <mxCell id="yxQ9GbS72qYl_xMvRpgq-26" value="" style="edgeStyle=orthogonalEdgeStyle;rounded=0;orthogonalLoop=1;jettySize=auto;html=1;" edge="1" parent="1" source="yxQ9GbS72qYl_xMvRpgq-27" target="yxQ9GbS72qYl_xMvRpgq-28">
          <mxGeometry relative="1" as="geometry" />
        </mxCell>
        <mxCell id="yxQ9GbS72qYl_xMvRpgq-27" value="修改试卷信息" style="rounded=0;whiteSpace=wrap;html=1;" vertex="1" parent="1">
          <mxGeometry x="720" y="631" width="80" height="30" as="geometry" />
        </mxCell>
        <mxCell id="yxQ9GbS72qYl_xMvRpgq-28" value="提交" style="rounded=0;whiteSpace=wrap;html=1;" vertex="1" parent="1">
          <mxGeometry x="724.5" y="691" width="71" height="34" as="geometry" />
        </mxCell>
        <mxCell id="yxQ9GbS72qYl_xMvRpgq-29" value="" style="endArrow=classic;html=1;rounded=0;exitX=0.5;exitY=1;exitDx=0;exitDy=0;entryX=0.5;entryY=0;entryDx=0;entryDy=0;" edge="1" parent="1" target="yxQ9GbS72qYl_xMvRpgq-19">
          <mxGeometry width="50" height="50" relative="1" as="geometry">
            <mxPoint x="760" y="470" as="sourcePoint" />
            <mxPoint x="1020" y="480" as="targetPoint" />
          </mxGeometry>
        </mxCell>
        <mxCell id="yxQ9GbS72qYl_xMvRpgq-30" value="" style="endArrow=classic;html=1;rounded=0;entryX=0.5;entryY=0;entryDx=0;entryDy=0;" edge="1" parent="1">
          <mxGeometry width="50" height="50" relative="1" as="geometry">
            <mxPoint x="919.5" y="470" as="sourcePoint" />
            <mxPoint x="919.5" y="510" as="targetPoint" />
          </mxGeometry>
        </mxCell>
        <mxCell id="yxQ9GbS72qYl_xMvRpgq-31" value="" style="edgeStyle=none;orthogonalLoop=1;jettySize=auto;html=1;rounded=0;exitX=0.5;exitY=1;exitDx=0;exitDy=0;entryX=0;entryY=0.5;entryDx=0;entryDy=0;" edge="1" parent="1" source="yxQ9GbS72qYl_xMvRpgq-56" target="yxQ9GbS72qYl_xMvRpgq-28">
          <mxGeometry width="100" relative="1" as="geometry">
            <mxPoint x="550" y="620" as="sourcePoint" />
            <mxPoint x="720" y="710" as="targetPoint" />
            <Array as="points">
              <mxPoint x="600" y="710" />
            </Array>
          </mxGeometry>
        </mxCell>
        <mxCell id="yxQ9GbS72qYl_xMvRpgq-32" value="结束" style="rounded=0;whiteSpace=wrap;html=1;" vertex="1" parent="1">
          <mxGeometry x="760" y="810" width="40" height="40" as="geometry" />
        </mxCell>
        <mxCell id="yxQ9GbS72qYl_xMvRpgq-33" value="" style="edgeStyle=orthogonalEdgeStyle;rounded=0;orthogonalLoop=1;jettySize=auto;html=1;" edge="1" parent="1" source="yxQ9GbS72qYl_xMvRpgq-37" target="yxQ9GbS72qYl_xMvRpgq-39">
          <mxGeometry relative="1" as="geometry" />
        </mxCell>
        <mxCell id="yxQ9GbS72qYl_xMvRpgq-34" value="是" style="edgeLabel;html=1;align=center;verticalAlign=middle;resizable=0;points=[];" vertex="1" connectable="0" parent="yxQ9GbS72qYl_xMvRpgq-33">
          <mxGeometry x="-0.1833" y="2" relative="1" as="geometry">
            <mxPoint as="offset" />
          </mxGeometry>
        </mxCell>
        <mxCell id="yxQ9GbS72qYl_xMvRpgq-35" value="" style="edgeStyle=orthogonalEdgeStyle;rounded=0;orthogonalLoop=1;jettySize=auto;html=1;" edge="1" parent="1" source="yxQ9GbS72qYl_xMvRpgq-37" target="yxQ9GbS72qYl_xMvRpgq-40">
          <mxGeometry relative="1" as="geometry" />
        </mxCell>
        <mxCell id="yxQ9GbS72qYl_xMvRpgq-36" value="否" style="edgeLabel;html=1;align=center;verticalAlign=middle;resizable=0;points=[];" vertex="1" connectable="0" parent="yxQ9GbS72qYl_xMvRpgq-35">
          <mxGeometry x="-0.1167" y="2" relative="1" as="geometry">
            <mxPoint as="offset" />
          </mxGeometry>
        </mxCell>
        <mxCell id="yxQ9GbS72qYl_xMvRpgq-37" value="是否上传后端成功？" style="rhombus;whiteSpace=wrap;html=1;" vertex="1" parent="1">
          <mxGeometry x="720" y="751.5" width="80" height="34" as="geometry" />
        </mxCell>
        <mxCell id="yxQ9GbS72qYl_xMvRpgq-38" value="" style="endArrow=classic;html=1;rounded=0;exitX=0.5;exitY=1;exitDx=0;exitDy=0;entryX=0.5;entryY=0;entryDx=0;entryDy=0;" edge="1" parent="1" source="yxQ9GbS72qYl_xMvRpgq-28" target="yxQ9GbS72qYl_xMvRpgq-37">
          <mxGeometry width="50" height="50" relative="1" as="geometry">
            <mxPoint x="970" y="610" as="sourcePoint" />
            <mxPoint x="1020" y="560" as="targetPoint" />
          </mxGeometry>
        </mxCell>
        <mxCell id="yxQ9GbS72qYl_xMvRpgq-39" value="操作成功&lt;span style=&quot;color: rgba(0, 0, 0, 0); font-family: monospace; font-size: 0px; text-align: start; text-wrap-mode: nowrap;&quot;&gt;%3CmxGraphModel%3E%3Croot%3E%3CmxCell%20id%3D%220%22%2F%3E%3CmxCell%20id%3D%221%22%20parent%3D%220%22%2F%3E%3CmxCell%20id%3D%222%22%20value%3D%22%E6%B7%BB%E5%8A%A0%E8%AF%BE%E7%A8%8B%E4%BF%A1%E6%81%AF%22%20style%3D%22rounded%3D0%3BwhiteSpace%3Dwrap%3Bhtml%3D1%3B%22%20vertex%3D%221%22%20parent%3D%221%22%3E%3CmxGeometry%20x%3D%22960%22%20y%3D%22220%22%20width%3D%2280%22%20height%3D%2230%22%20as%3D%22geometry%22%2F%3E%3C%2FmxCell%3E%3C%2Froot%3E%3C%2FmxGraphModel%3E&lt;/span&gt;" style="rounded=0;whiteSpace=wrap;html=1;" vertex="1" parent="1">
          <mxGeometry x="600" y="753.5" width="80" height="30" as="geometry" />
        </mxCell>
        <mxCell id="yxQ9GbS72qYl_xMvRpgq-40" value="操作失败" style="rounded=0;whiteSpace=wrap;html=1;" vertex="1" parent="1">
          <mxGeometry x="840" y="753.5" width="80" height="30" as="geometry" />
        </mxCell>
        <mxCell id="yxQ9GbS72qYl_xMvRpgq-41" value="" style="endArrow=classic;html=1;rounded=0;exitX=0.5;exitY=1;exitDx=0;exitDy=0;entryX=0;entryY=0.5;entryDx=0;entryDy=0;" edge="1" parent="1" source="yxQ9GbS72qYl_xMvRpgq-39" target="yxQ9GbS72qYl_xMvRpgq-32">
          <mxGeometry width="50" height="50" relative="1" as="geometry">
            <mxPoint x="970" y="610" as="sourcePoint" />
            <mxPoint x="1020" y="560" as="targetPoint" />
            <Array as="points">
              <mxPoint x="640" y="830" />
            </Array>
          </mxGeometry>
        </mxCell>
        <mxCell id="yxQ9GbS72qYl_xMvRpgq-42" value="" style="endArrow=none;html=1;rounded=0;exitX=0.5;exitY=1;exitDx=0;exitDy=0;" edge="1" parent="1" source="yxQ9GbS72qYl_xMvRpgq-40">
          <mxGeometry width="50" height="50" relative="1" as="geometry">
            <mxPoint x="970" y="610" as="sourcePoint" />
            <mxPoint x="880" y="830" as="targetPoint" />
          </mxGeometry>
        </mxCell>
        <mxCell id="yxQ9GbS72qYl_xMvRpgq-43" value="" style="edgeStyle=orthogonalEdgeStyle;rounded=0;orthogonalLoop=1;jettySize=auto;html=1;" edge="1" parent="1" target="yxQ9GbS72qYl_xMvRpgq-49">
          <mxGeometry relative="1" as="geometry">
            <mxPoint x="1082" y="470" as="sourcePoint" />
          </mxGeometry>
        </mxCell>
        <mxCell id="yxQ9GbS72qYl_xMvRpgq-44" value="否" style="edgeLabel;html=1;align=center;verticalAlign=middle;resizable=0;points=[];" vertex="1" connectable="0" parent="1">
          <mxGeometry x="990" y="614" as="geometry" />
        </mxCell>
        <mxCell id="yxQ9GbS72qYl_xMvRpgq-45" value="" style="edgeStyle=orthogonalEdgeStyle;rounded=0;orthogonalLoop=1;jettySize=auto;html=1;" edge="1" parent="1" source="yxQ9GbS72qYl_xMvRpgq-49" target="yxQ9GbS72qYl_xMvRpgq-50">
          <mxGeometry relative="1" as="geometry" />
        </mxCell>
        <mxCell id="yxQ9GbS72qYl_xMvRpgq-46" value="是" style="edgeLabel;html=1;align=center;verticalAlign=middle;resizable=0;points=[];" vertex="1" connectable="0" parent="yxQ9GbS72qYl_xMvRpgq-45">
          <mxGeometry x="-0.4603" y="-2" relative="1" as="geometry">
            <mxPoint as="offset" />
          </mxGeometry>
        </mxCell>
        <mxCell id="yxQ9GbS72qYl_xMvRpgq-47" style="edgeStyle=orthogonalEdgeStyle;rounded=0;orthogonalLoop=1;jettySize=auto;html=1;exitX=1;exitY=0.5;exitDx=0;exitDy=0;entryX=0.5;entryY=0;entryDx=0;entryDy=0;" edge="1" parent="1" source="yxQ9GbS72qYl_xMvRpgq-49" target="yxQ9GbS72qYl_xMvRpgq-51">
          <mxGeometry relative="1" as="geometry" />
        </mxCell>
        <mxCell id="yxQ9GbS72qYl_xMvRpgq-48" value="否" style="edgeLabel;html=1;align=center;verticalAlign=middle;resizable=0;points=[];" vertex="1" connectable="0" parent="yxQ9GbS72qYl_xMvRpgq-47">
          <mxGeometry x="-0.252" y="1" relative="1" as="geometry">
            <mxPoint as="offset" />
          </mxGeometry>
        </mxCell>
        <mxCell id="yxQ9GbS72qYl_xMvRpgq-49" value="检查是否与后端连接成功？" style="rhombus;whiteSpace=wrap;html=1;" vertex="1" parent="1">
          <mxGeometry x="1032" y="510" width="100" height="30" as="geometry" />
        </mxCell>
        <mxCell id="yxQ9GbS72qYl_xMvRpgq-50" value="查询成功" style="rounded=0;whiteSpace=wrap;html=1;" vertex="1" parent="1">
          <mxGeometry x="1062" y="578" width="40" height="33" as="geometry" />
        </mxCell>
        <mxCell id="yxQ9GbS72qYl_xMvRpgq-51" value="查询失败" style="rounded=0;whiteSpace=wrap;html=1;" vertex="1" parent="1">
          <mxGeometry x="1140" y="578" width="40" height="33" as="geometry" />
        </mxCell>
        <mxCell id="yxQ9GbS72qYl_xMvRpgq-52" value="" style="endArrow=none;html=1;rounded=0;entryX=0.5;entryY=1;entryDx=0;entryDy=0;" edge="1" parent="1" target="yxQ9GbS72qYl_xMvRpgq-50">
          <mxGeometry width="50" height="50" relative="1" as="geometry">
            <mxPoint x="992" y="830" as="sourcePoint" />
            <mxPoint x="1022" y="690" as="targetPoint" />
            <Array as="points">
              <mxPoint x="1082" y="830" />
            </Array>
          </mxGeometry>
        </mxCell>
        <mxCell id="yxQ9GbS72qYl_xMvRpgq-53" value="" style="endArrow=none;html=1;rounded=0;entryX=0.5;entryY=1;entryDx=0;entryDy=0;" edge="1" parent="1" target="yxQ9GbS72qYl_xMvRpgq-51">
          <mxGeometry width="50" height="50" relative="1" as="geometry">
            <mxPoint x="1082" y="830" as="sourcePoint" />
            <mxPoint x="1172" y="611" as="targetPoint" />
            <Array as="points">
              <mxPoint x="1160" y="830" />
            </Array>
          </mxGeometry>
        </mxCell>
        <mxCell id="yxQ9GbS72qYl_xMvRpgq-54" value="" style="endArrow=classic;html=1;rounded=0;entryX=0.5;entryY=0;entryDx=0;entryDy=0;" edge="1" parent="1" target="yxQ9GbS72qYl_xMvRpgq-55">
          <mxGeometry width="50" height="50" relative="1" as="geometry">
            <mxPoint x="600" y="400" as="sourcePoint" />
            <mxPoint x="1250" y="430" as="targetPoint" />
            <Array as="points">
              <mxPoint x="470" y="400" />
            </Array>
          </mxGeometry>
        </mxCell>
        <mxCell id="yxQ9GbS72qYl_xMvRpgq-55" value="进行考试" style="shape=process;whiteSpace=wrap;html=1;backgroundOutline=1;" vertex="1" parent="1">
          <mxGeometry x="430" y="440" width="80" height="30" as="geometry" />
        </mxCell>
        <mxCell id="yxQ9GbS72qYl_xMvRpgq-56" value="添加试题信息" style="rounded=0;whiteSpace=wrap;html=1;" vertex="1" parent="1">
          <mxGeometry x="560" y="631" width="80" height="30" as="geometry" />
        </mxCell>
        <mxCell id="yxQ9GbS72qYl_xMvRpgq-57" value="" style="endArrow=classic;html=1;rounded=0;exitX=0.5;exitY=1;exitDx=0;exitDy=0;" edge="1" parent="1" target="yxQ9GbS72qYl_xMvRpgq-59">
          <mxGeometry width="50" height="50" relative="1" as="geometry">
            <mxPoint x="470" y="470" as="sourcePoint" />
            <mxPoint x="470" y="510" as="targetPoint" />
          </mxGeometry>
        </mxCell>
        <mxCell id="yxQ9GbS72qYl_xMvRpgq-59" value="点击安全作答" style="rounded=0;whiteSpace=wrap;html=1;" vertex="1" parent="1">
          <mxGeometry x="430" y="510" width="80" height="30" as="geometry" />
        </mxCell>
        <mxCell id="yxQ9GbS72qYl_xMvRpgq-61" value="" style="endArrow=none;html=1;rounded=0;exitX=0.5;exitY=1;exitDx=0;exitDy=0;" edge="1" parent="1" source="yxQ9GbS72qYl_xMvRpgq-59">
          <mxGeometry width="50" height="50" relative="1" as="geometry">
            <mxPoint x="470" y="600" as="sourcePoint" />
            <mxPoint x="600" y="710" as="targetPoint" />
            <Array as="points">
              <mxPoint x="470" y="710" />
            </Array>
          </mxGeometry>
        </mxCell>
        <mxCell id="yxQ9GbS72qYl_xMvRpgq-62" value="" style="endArrow=classic;html=1;rounded=0;" edge="1" parent="1">
          <mxGeometry width="50" height="50" relative="1" as="geometry">
            <mxPoint x="1080" y="400" as="sourcePoint" />
            <mxPoint x="1240" y="440" as="targetPoint" />
            <Array as="points">
              <mxPoint x="1240" y="400" />
            </Array>
          </mxGeometry>
        </mxCell>
        <mxCell id="yxQ9GbS72qYl_xMvRpgq-63" value="查看考试记录" style="shape=process;whiteSpace=wrap;html=1;backgroundOutline=1;" vertex="1" parent="1">
          <mxGeometry x="1200" y="440" width="80" height="30" as="geometry" />
        </mxCell>
        <mxCell id="yxQ9GbS72qYl_xMvRpgq-64" value="查看错题本" style="shape=process;whiteSpace=wrap;html=1;backgroundOutline=1;" vertex="1" parent="1">
          <mxGeometry x="1360" y="440" width="80" height="30" as="geometry" />
        </mxCell>
        <mxCell id="yxQ9GbS72qYl_xMvRpgq-65" value="" style="endArrow=classic;html=1;rounded=0;entryX=0.5;entryY=0;entryDx=0;entryDy=0;" edge="1" parent="1" target="yxQ9GbS72qYl_xMvRpgq-64">
          <mxGeometry width="50" height="50" relative="1" as="geometry">
            <mxPoint x="1240" y="400" as="sourcePoint" />
            <mxPoint x="970" y="530" as="targetPoint" />
            <Array as="points">
              <mxPoint x="1400" y="400" />
            </Array>
          </mxGeometry>
        </mxCell>
        <mxCell id="yxQ9GbS72qYl_xMvRpgq-67" value="" style="endArrow=none;html=1;rounded=0;" edge="1" parent="1">
          <mxGeometry width="50" height="50" relative="1" as="geometry">
            <mxPoint x="1080" y="490" as="sourcePoint" />
            <mxPoint x="1400" y="490" as="targetPoint" />
          </mxGeometry>
        </mxCell>
        <mxCell id="yxQ9GbS72qYl_xMvRpgq-68" value="" style="endArrow=none;html=1;rounded=0;entryX=0.5;entryY=1;entryDx=0;entryDy=0;" edge="1" parent="1" target="yxQ9GbS72qYl_xMvRpgq-63">
          <mxGeometry width="50" height="50" relative="1" as="geometry">
            <mxPoint x="1240" y="490" as="sourcePoint" />
            <mxPoint x="1240" y="480" as="targetPoint" />
          </mxGeometry>
        </mxCell>
        <mxCell id="yxQ9GbS72qYl_xMvRpgq-69" value="" style="endArrow=none;html=1;rounded=0;entryX=0.5;entryY=1;entryDx=0;entryDy=0;" edge="1" parent="1" target="yxQ9GbS72qYl_xMvRpgq-64">
          <mxGeometry width="50" height="50" relative="1" as="geometry">
            <mxPoint x="1400" y="490" as="sourcePoint" />
            <mxPoint x="970" y="530" as="targetPoint" />
          </mxGeometry>
        </mxCell>
      </root>
    </mxGraphModel>
  </diagram>
  <diagram id="W_-V8y1bi-xxPrB91riG" name="第 10 页">
    <mxGraphModel dx="970" dy="631" grid="1" gridSize="10" guides="1" tooltips="1" connect="1" arrows="1" fold="1" page="1" pageScale="1" pageWidth="827" pageHeight="1169" math="0" shadow="0">
      <root>
        <mxCell id="0" />
        <mxCell id="1" parent="0" />
        <mxCell id="oq5VA6-1Cgyp9ncrCatL-1" value="论坛操作" style="rounded=0;whiteSpace=wrap;html=1;" vertex="1" parent="1">
          <mxGeometry x="800" y="380" width="80" height="30" as="geometry" />
        </mxCell>
        <mxCell id="oq5VA6-1Cgyp9ncrCatL-2" value="" style="edgeStyle=orthogonalEdgeStyle;rounded=0;orthogonalLoop=1;jettySize=auto;html=1;" edge="1" parent="1" source="oq5VA6-1Cgyp9ncrCatL-3" target="oq5VA6-1Cgyp9ncrCatL-1">
          <mxGeometry relative="1" as="geometry" />
        </mxCell>
        <mxCell id="oq5VA6-1Cgyp9ncrCatL-3" value="开始" style="ellipse;whiteSpace=wrap;html=1;rounded=0;" vertex="1" parent="1">
          <mxGeometry x="800" y="320" width="80" height="35" as="geometry" />
        </mxCell>
        <mxCell id="oq5VA6-1Cgyp9ncrCatL-4" value="查看讨论列表" style="shape=process;whiteSpace=wrap;html=1;backgroundOutline=1;" vertex="1" parent="1">
          <mxGeometry x="1040" y="440" width="80" height="30" as="geometry" />
        </mxCell>
        <mxCell id="oq5VA6-1Cgyp9ncrCatL-5" value="" style="endArrow=classic;html=1;rounded=0;entryX=0.5;entryY=0;entryDx=0;entryDy=0;" edge="1" parent="1">
          <mxGeometry width="50" height="50" relative="1" as="geometry">
            <mxPoint x="800" y="400" as="sourcePoint" />
            <mxPoint x="600" y="440" as="targetPoint" />
            <Array as="points">
              <mxPoint x="600" y="400" />
            </Array>
          </mxGeometry>
        </mxCell>
        <mxCell id="oq5VA6-1Cgyp9ncrCatL-6" value="" style="endArrow=classic;html=1;rounded=0;entryX=0.5;entryY=0;entryDx=0;entryDy=0;" edge="1" parent="1">
          <mxGeometry width="50" height="50" relative="1" as="geometry">
            <mxPoint x="760" y="400" as="sourcePoint" />
            <mxPoint x="760" y="440" as="targetPoint" />
          </mxGeometry>
        </mxCell>
        <mxCell id="oq5VA6-1Cgyp9ncrCatL-7" value="" style="endArrow=classic;html=1;rounded=0;entryX=0.5;entryY=0;entryDx=0;entryDy=0;" edge="1" parent="1" target="oq5VA6-1Cgyp9ncrCatL-4">
          <mxGeometry width="50" height="50" relative="1" as="geometry">
            <mxPoint x="880" y="400" as="sourcePoint" />
            <mxPoint x="1080" y="400" as="targetPoint" />
            <Array as="points">
              <mxPoint x="1080" y="400" />
            </Array>
          </mxGeometry>
        </mxCell>
        <mxCell id="oq5VA6-1Cgyp9ncrCatL-8" value="" style="endArrow=classic;html=1;rounded=0;entryX=0.5;entryY=0;entryDx=0;entryDy=0;" edge="1" parent="1">
          <mxGeometry width="50" height="50" relative="1" as="geometry">
            <mxPoint x="920" y="400" as="sourcePoint" />
            <mxPoint x="920" y="440" as="targetPoint" />
          </mxGeometry>
        </mxCell>
        <mxCell id="oq5VA6-1Cgyp9ncrCatL-9" value="添加讨论" style="shape=process;whiteSpace=wrap;html=1;backgroundOutline=1;" vertex="1" parent="1">
          <mxGeometry x="560" y="440" width="80" height="30" as="geometry" />
        </mxCell>
        <mxCell id="oq5VA6-1Cgyp9ncrCatL-10" value="修改讨论" style="shape=process;whiteSpace=wrap;html=1;backgroundOutline=1;" vertex="1" parent="1">
          <mxGeometry x="720" y="440" width="80" height="30" as="geometry" />
        </mxCell>
        <mxCell id="oq5VA6-1Cgyp9ncrCatL-11" value="删除讨论" style="shape=process;whiteSpace=wrap;html=1;backgroundOutline=1;" vertex="1" parent="1">
          <mxGeometry x="880" y="440" width="80" height="30" as="geometry" />
        </mxCell>
        <mxCell id="oq5VA6-1Cgyp9ncrCatL-12" value="" style="endArrow=classic;html=1;rounded=0;exitX=0.5;exitY=1;exitDx=0;exitDy=0;" edge="1" parent="1" target="oq5VA6-1Cgyp9ncrCatL-14">
          <mxGeometry width="50" height="50" relative="1" as="geometry">
            <mxPoint x="600" y="470" as="sourcePoint" />
            <mxPoint x="600" y="510" as="targetPoint" />
          </mxGeometry>
        </mxCell>
        <mxCell id="oq5VA6-1Cgyp9ncrCatL-13" value="" style="edgeStyle=orthogonalEdgeStyle;rounded=0;orthogonalLoop=1;jettySize=auto;html=1;" edge="1" parent="1" source="oq5VA6-1Cgyp9ncrCatL-14" target="oq5VA6-1Cgyp9ncrCatL-16">
          <mxGeometry relative="1" as="geometry" />
        </mxCell>
        <mxCell id="oq5VA6-1Cgyp9ncrCatL-14" value="点击添加按钮" style="rounded=0;whiteSpace=wrap;html=1;" vertex="1" parent="1">
          <mxGeometry x="560" y="510" width="80" height="30" as="geometry" />
        </mxCell>
        <mxCell id="oq5VA6-1Cgyp9ncrCatL-15" value="" style="edgeStyle=orthogonalEdgeStyle;rounded=0;orthogonalLoop=1;jettySize=auto;html=1;" edge="1" parent="1" source="oq5VA6-1Cgyp9ncrCatL-16" target="oq5VA6-1Cgyp9ncrCatL-56">
          <mxGeometry relative="1" as="geometry" />
        </mxCell>
        <mxCell id="oq5VA6-1Cgyp9ncrCatL-16" value="添加讨论信息" style="rounded=0;whiteSpace=wrap;html=1;" vertex="1" parent="1">
          <mxGeometry x="560" y="570" width="80" height="30" as="geometry" />
        </mxCell>
        <mxCell id="oq5VA6-1Cgyp9ncrCatL-17" value="" style="edgeStyle=orthogonalEdgeStyle;rounded=0;orthogonalLoop=1;jettySize=auto;html=1;exitX=0.5;exitY=1;exitDx=0;exitDy=0;" edge="1" parent="1" source="oq5VA6-1Cgyp9ncrCatL-25" target="oq5VA6-1Cgyp9ncrCatL-27">
          <mxGeometry relative="1" as="geometry" />
        </mxCell>
        <mxCell id="oq5VA6-1Cgyp9ncrCatL-18" value="" style="edgeStyle=orthogonalEdgeStyle;rounded=0;orthogonalLoop=1;jettySize=auto;html=1;entryX=0.5;entryY=0;entryDx=0;entryDy=0;" edge="1" parent="1" source="oq5VA6-1Cgyp9ncrCatL-19" target="oq5VA6-1Cgyp9ncrCatL-25">
          <mxGeometry relative="1" as="geometry">
            <Array as="points" />
          </mxGeometry>
        </mxCell>
        <mxCell id="oq5VA6-1Cgyp9ncrCatL-19" value="点击修改按钮" style="rounded=0;whiteSpace=wrap;html=1;" vertex="1" parent="1">
          <mxGeometry x="720" y="510" width="80" height="30" as="geometry" />
        </mxCell>
        <mxCell id="oq5VA6-1Cgyp9ncrCatL-20" style="edgeStyle=orthogonalEdgeStyle;rounded=0;orthogonalLoop=1;jettySize=auto;html=1;exitX=0;exitY=0.5;exitDx=0;exitDy=0;entryX=1;entryY=0.5;entryDx=0;entryDy=0;" edge="1" parent="1" source="oq5VA6-1Cgyp9ncrCatL-24" target="oq5VA6-1Cgyp9ncrCatL-28">
          <mxGeometry relative="1" as="geometry" />
        </mxCell>
        <mxCell id="oq5VA6-1Cgyp9ncrCatL-21" value="是" style="edgeLabel;html=1;align=center;verticalAlign=middle;resizable=0;points=[];" vertex="1" connectable="0" parent="oq5VA6-1Cgyp9ncrCatL-20">
          <mxGeometry x="-0.17" y="2" relative="1" as="geometry">
            <mxPoint as="offset" />
          </mxGeometry>
        </mxCell>
        <mxCell id="oq5VA6-1Cgyp9ncrCatL-22" value="" style="edgeStyle=orthogonalEdgeStyle;rounded=0;orthogonalLoop=1;jettySize=auto;html=1;entryX=1;entryY=0.5;entryDx=0;entryDy=0;exitX=1;exitY=0.5;exitDx=0;exitDy=0;" edge="1" parent="1" source="oq5VA6-1Cgyp9ncrCatL-24" target="oq5VA6-1Cgyp9ncrCatL-32">
          <mxGeometry relative="1" as="geometry" />
        </mxCell>
        <mxCell id="oq5VA6-1Cgyp9ncrCatL-23" value="否" style="edgeLabel;html=1;align=center;verticalAlign=middle;resizable=0;points=[];" vertex="1" connectable="0" parent="oq5VA6-1Cgyp9ncrCatL-22">
          <mxGeometry x="-0.5768" y="-2" relative="1" as="geometry">
            <mxPoint as="offset" />
          </mxGeometry>
        </mxCell>
        <mxCell id="oq5VA6-1Cgyp9ncrCatL-24" value="确认删除？" style="rhombus;whiteSpace=wrap;html=1;" vertex="1" parent="1">
          <mxGeometry x="870" y="510" width="100" height="30" as="geometry" />
        </mxCell>
        <mxCell id="oq5VA6-1Cgyp9ncrCatL-25" value="显示讨论信息" style="rounded=0;whiteSpace=wrap;html=1;" vertex="1" parent="1">
          <mxGeometry x="720" y="570" width="80" height="30" as="geometry" />
        </mxCell>
        <mxCell id="oq5VA6-1Cgyp9ncrCatL-26" value="" style="edgeStyle=orthogonalEdgeStyle;rounded=0;orthogonalLoop=1;jettySize=auto;html=1;" edge="1" parent="1" source="oq5VA6-1Cgyp9ncrCatL-27" target="oq5VA6-1Cgyp9ncrCatL-28">
          <mxGeometry relative="1" as="geometry" />
        </mxCell>
        <mxCell id="oq5VA6-1Cgyp9ncrCatL-27" value="修改讨论信息" style="rounded=0;whiteSpace=wrap;html=1;" vertex="1" parent="1">
          <mxGeometry x="720" y="631" width="80" height="30" as="geometry" />
        </mxCell>
        <mxCell id="oq5VA6-1Cgyp9ncrCatL-28" value="提交" style="rounded=0;whiteSpace=wrap;html=1;" vertex="1" parent="1">
          <mxGeometry x="724.5" y="691" width="71" height="34" as="geometry" />
        </mxCell>
        <mxCell id="oq5VA6-1Cgyp9ncrCatL-29" value="" style="endArrow=classic;html=1;rounded=0;exitX=0.5;exitY=1;exitDx=0;exitDy=0;entryX=0.5;entryY=0;entryDx=0;entryDy=0;" edge="1" parent="1" target="oq5VA6-1Cgyp9ncrCatL-19">
          <mxGeometry width="50" height="50" relative="1" as="geometry">
            <mxPoint x="760" y="470" as="sourcePoint" />
            <mxPoint x="1020" y="480" as="targetPoint" />
          </mxGeometry>
        </mxCell>
        <mxCell id="oq5VA6-1Cgyp9ncrCatL-30" value="" style="endArrow=classic;html=1;rounded=0;entryX=0.5;entryY=0;entryDx=0;entryDy=0;" edge="1" parent="1">
          <mxGeometry width="50" height="50" relative="1" as="geometry">
            <mxPoint x="919.5" y="470" as="sourcePoint" />
            <mxPoint x="919.5" y="510" as="targetPoint" />
          </mxGeometry>
        </mxCell>
        <mxCell id="oq5VA6-1Cgyp9ncrCatL-31" value="" style="edgeStyle=none;orthogonalLoop=1;jettySize=auto;html=1;rounded=0;exitX=0.5;exitY=1;exitDx=0;exitDy=0;entryX=0;entryY=0.5;entryDx=0;entryDy=0;" edge="1" parent="1" source="oq5VA6-1Cgyp9ncrCatL-56" target="oq5VA6-1Cgyp9ncrCatL-28">
          <mxGeometry width="100" relative="1" as="geometry">
            <mxPoint x="550" y="620" as="sourcePoint" />
            <mxPoint x="720" y="710" as="targetPoint" />
            <Array as="points">
              <mxPoint x="600" y="710" />
            </Array>
          </mxGeometry>
        </mxCell>
        <mxCell id="oq5VA6-1Cgyp9ncrCatL-32" value="结束" style="rounded=0;whiteSpace=wrap;html=1;" vertex="1" parent="1">
          <mxGeometry x="760" y="810" width="40" height="40" as="geometry" />
        </mxCell>
        <mxCell id="oq5VA6-1Cgyp9ncrCatL-33" value="" style="edgeStyle=orthogonalEdgeStyle;rounded=0;orthogonalLoop=1;jettySize=auto;html=1;" edge="1" parent="1" source="oq5VA6-1Cgyp9ncrCatL-37" target="oq5VA6-1Cgyp9ncrCatL-39">
          <mxGeometry relative="1" as="geometry" />
        </mxCell>
        <mxCell id="oq5VA6-1Cgyp9ncrCatL-34" value="是" style="edgeLabel;html=1;align=center;verticalAlign=middle;resizable=0;points=[];" vertex="1" connectable="0" parent="oq5VA6-1Cgyp9ncrCatL-33">
          <mxGeometry x="-0.1833" y="2" relative="1" as="geometry">
            <mxPoint as="offset" />
          </mxGeometry>
        </mxCell>
        <mxCell id="oq5VA6-1Cgyp9ncrCatL-35" value="" style="edgeStyle=orthogonalEdgeStyle;rounded=0;orthogonalLoop=1;jettySize=auto;html=1;" edge="1" parent="1" source="oq5VA6-1Cgyp9ncrCatL-37" target="oq5VA6-1Cgyp9ncrCatL-40">
          <mxGeometry relative="1" as="geometry" />
        </mxCell>
        <mxCell id="oq5VA6-1Cgyp9ncrCatL-36" value="否" style="edgeLabel;html=1;align=center;verticalAlign=middle;resizable=0;points=[];" vertex="1" connectable="0" parent="oq5VA6-1Cgyp9ncrCatL-35">
          <mxGeometry x="-0.1167" y="2" relative="1" as="geometry">
            <mxPoint as="offset" />
          </mxGeometry>
        </mxCell>
        <mxCell id="oq5VA6-1Cgyp9ncrCatL-37" value="是否上传后端成功？" style="rhombus;whiteSpace=wrap;html=1;" vertex="1" parent="1">
          <mxGeometry x="720" y="751.5" width="80" height="34" as="geometry" />
        </mxCell>
        <mxCell id="oq5VA6-1Cgyp9ncrCatL-38" value="" style="endArrow=classic;html=1;rounded=0;exitX=0.5;exitY=1;exitDx=0;exitDy=0;entryX=0.5;entryY=0;entryDx=0;entryDy=0;" edge="1" parent="1" source="oq5VA6-1Cgyp9ncrCatL-28" target="oq5VA6-1Cgyp9ncrCatL-37">
          <mxGeometry width="50" height="50" relative="1" as="geometry">
            <mxPoint x="970" y="610" as="sourcePoint" />
            <mxPoint x="1020" y="560" as="targetPoint" />
          </mxGeometry>
        </mxCell>
        <mxCell id="oq5VA6-1Cgyp9ncrCatL-39" value="操作成功&lt;span style=&quot;color: rgba(0, 0, 0, 0); font-family: monospace; font-size: 0px; text-align: start; text-wrap-mode: nowrap;&quot;&gt;%3CmxGraphModel%3E%3Croot%3E%3CmxCell%20id%3D%220%22%2F%3E%3CmxCell%20id%3D%221%22%20parent%3D%220%22%2F%3E%3CmxCell%20id%3D%222%22%20value%3D%22%E6%B7%BB%E5%8A%A0%E8%AF%BE%E7%A8%8B%E4%BF%A1%E6%81%AF%22%20style%3D%22rounded%3D0%3BwhiteSpace%3Dwrap%3Bhtml%3D1%3B%22%20vertex%3D%221%22%20parent%3D%221%22%3E%3CmxGeometry%20x%3D%22960%22%20y%3D%22220%22%20width%3D%2280%22%20height%3D%2230%22%20as%3D%22geometry%22%2F%3E%3C%2FmxCell%3E%3C%2Froot%3E%3C%2FmxGraphModel%3E&lt;/span&gt;" style="rounded=0;whiteSpace=wrap;html=1;" vertex="1" parent="1">
          <mxGeometry x="600" y="753.5" width="80" height="30" as="geometry" />
        </mxCell>
        <mxCell id="oq5VA6-1Cgyp9ncrCatL-40" value="操作失败" style="rounded=0;whiteSpace=wrap;html=1;" vertex="1" parent="1">
          <mxGeometry x="840" y="753.5" width="80" height="30" as="geometry" />
        </mxCell>
        <mxCell id="oq5VA6-1Cgyp9ncrCatL-41" value="" style="endArrow=classic;html=1;rounded=0;exitX=0.5;exitY=1;exitDx=0;exitDy=0;entryX=0;entryY=0.5;entryDx=0;entryDy=0;" edge="1" parent="1" source="oq5VA6-1Cgyp9ncrCatL-39" target="oq5VA6-1Cgyp9ncrCatL-32">
          <mxGeometry width="50" height="50" relative="1" as="geometry">
            <mxPoint x="970" y="610" as="sourcePoint" />
            <mxPoint x="1020" y="560" as="targetPoint" />
            <Array as="points">
              <mxPoint x="640" y="830" />
            </Array>
          </mxGeometry>
        </mxCell>
        <mxCell id="oq5VA6-1Cgyp9ncrCatL-42" value="" style="endArrow=none;html=1;rounded=0;exitX=0.5;exitY=1;exitDx=0;exitDy=0;" edge="1" parent="1" source="oq5VA6-1Cgyp9ncrCatL-40">
          <mxGeometry width="50" height="50" relative="1" as="geometry">
            <mxPoint x="970" y="610" as="sourcePoint" />
            <mxPoint x="880" y="830" as="targetPoint" />
          </mxGeometry>
        </mxCell>
        <mxCell id="oq5VA6-1Cgyp9ncrCatL-43" value="" style="edgeStyle=orthogonalEdgeStyle;rounded=0;orthogonalLoop=1;jettySize=auto;html=1;" edge="1" parent="1" target="oq5VA6-1Cgyp9ncrCatL-49">
          <mxGeometry relative="1" as="geometry">
            <mxPoint x="1082" y="470" as="sourcePoint" />
          </mxGeometry>
        </mxCell>
        <mxCell id="oq5VA6-1Cgyp9ncrCatL-44" value="否" style="edgeLabel;html=1;align=center;verticalAlign=middle;resizable=0;points=[];" vertex="1" connectable="0" parent="1">
          <mxGeometry x="990" y="614" as="geometry" />
        </mxCell>
        <mxCell id="oq5VA6-1Cgyp9ncrCatL-45" value="" style="edgeStyle=orthogonalEdgeStyle;rounded=0;orthogonalLoop=1;jettySize=auto;html=1;" edge="1" parent="1" source="oq5VA6-1Cgyp9ncrCatL-49" target="oq5VA6-1Cgyp9ncrCatL-50">
          <mxGeometry relative="1" as="geometry" />
        </mxCell>
        <mxCell id="oq5VA6-1Cgyp9ncrCatL-46" value="是" style="edgeLabel;html=1;align=center;verticalAlign=middle;resizable=0;points=[];" vertex="1" connectable="0" parent="oq5VA6-1Cgyp9ncrCatL-45">
          <mxGeometry x="-0.4603" y="-2" relative="1" as="geometry">
            <mxPoint as="offset" />
          </mxGeometry>
        </mxCell>
        <mxCell id="oq5VA6-1Cgyp9ncrCatL-47" style="edgeStyle=orthogonalEdgeStyle;rounded=0;orthogonalLoop=1;jettySize=auto;html=1;exitX=1;exitY=0.5;exitDx=0;exitDy=0;entryX=0.5;entryY=0;entryDx=0;entryDy=0;" edge="1" parent="1" source="oq5VA6-1Cgyp9ncrCatL-49" target="oq5VA6-1Cgyp9ncrCatL-51">
          <mxGeometry relative="1" as="geometry" />
        </mxCell>
        <mxCell id="oq5VA6-1Cgyp9ncrCatL-48" value="否" style="edgeLabel;html=1;align=center;verticalAlign=middle;resizable=0;points=[];" vertex="1" connectable="0" parent="oq5VA6-1Cgyp9ncrCatL-47">
          <mxGeometry x="-0.252" y="1" relative="1" as="geometry">
            <mxPoint as="offset" />
          </mxGeometry>
        </mxCell>
        <mxCell id="oq5VA6-1Cgyp9ncrCatL-49" value="检查是否与后端连接成功？" style="rhombus;whiteSpace=wrap;html=1;" vertex="1" parent="1">
          <mxGeometry x="1032" y="510" width="100" height="30" as="geometry" />
        </mxCell>
        <mxCell id="oq5VA6-1Cgyp9ncrCatL-50" value="查询成功" style="rounded=0;whiteSpace=wrap;html=1;" vertex="1" parent="1">
          <mxGeometry x="1062" y="578" width="40" height="33" as="geometry" />
        </mxCell>
        <mxCell id="oq5VA6-1Cgyp9ncrCatL-51" value="查询失败" style="rounded=0;whiteSpace=wrap;html=1;" vertex="1" parent="1">
          <mxGeometry x="1140" y="578" width="40" height="33" as="geometry" />
        </mxCell>
        <mxCell id="oq5VA6-1Cgyp9ncrCatL-52" value="" style="endArrow=none;html=1;rounded=0;entryX=0.5;entryY=1;entryDx=0;entryDy=0;" edge="1" parent="1" target="oq5VA6-1Cgyp9ncrCatL-50">
          <mxGeometry width="50" height="50" relative="1" as="geometry">
            <mxPoint x="992" y="830" as="sourcePoint" />
            <mxPoint x="1022" y="690" as="targetPoint" />
            <Array as="points">
              <mxPoint x="1082" y="830" />
            </Array>
          </mxGeometry>
        </mxCell>
        <mxCell id="oq5VA6-1Cgyp9ncrCatL-53" value="" style="endArrow=none;html=1;rounded=0;entryX=0.5;entryY=1;entryDx=0;entryDy=0;" edge="1" parent="1" target="oq5VA6-1Cgyp9ncrCatL-51">
          <mxGeometry width="50" height="50" relative="1" as="geometry">
            <mxPoint x="1082" y="830" as="sourcePoint" />
            <mxPoint x="1172" y="611" as="targetPoint" />
            <Array as="points">
              <mxPoint x="1160" y="830" />
            </Array>
          </mxGeometry>
        </mxCell>
        <mxCell id="oq5VA6-1Cgyp9ncrCatL-54" value="" style="endArrow=classic;html=1;rounded=0;entryX=0.5;entryY=0;entryDx=0;entryDy=0;" edge="1" parent="1" target="oq5VA6-1Cgyp9ncrCatL-55">
          <mxGeometry width="50" height="50" relative="1" as="geometry">
            <mxPoint x="600" y="400" as="sourcePoint" />
            <mxPoint x="1250" y="430" as="targetPoint" />
            <Array as="points">
              <mxPoint x="470" y="400" />
            </Array>
          </mxGeometry>
        </mxCell>
        <mxCell id="oq5VA6-1Cgyp9ncrCatL-55" value="回复讨论" style="shape=process;whiteSpace=wrap;html=1;backgroundOutline=1;" vertex="1" parent="1">
          <mxGeometry x="430" y="440" width="80" height="30" as="geometry" />
        </mxCell>
        <mxCell id="oq5VA6-1Cgyp9ncrCatL-56" value="添加讨论信息" style="rounded=0;whiteSpace=wrap;html=1;" vertex="1" parent="1">
          <mxGeometry x="560" y="631" width="80" height="30" as="geometry" />
        </mxCell>
        <mxCell id="oq5VA6-1Cgyp9ncrCatL-57" value="" style="endArrow=classic;html=1;rounded=0;exitX=0.5;exitY=1;exitDx=0;exitDy=0;" edge="1" parent="1" target="oq5VA6-1Cgyp9ncrCatL-58">
          <mxGeometry width="50" height="50" relative="1" as="geometry">
            <mxPoint x="470" y="470" as="sourcePoint" />
            <mxPoint x="470" y="510" as="targetPoint" />
          </mxGeometry>
        </mxCell>
        <mxCell id="ZrBld9MpJwMKs5OXjKC9-2" value="" style="edgeStyle=orthogonalEdgeStyle;rounded=0;orthogonalLoop=1;jettySize=auto;html=1;" edge="1" parent="1" source="oq5VA6-1Cgyp9ncrCatL-58" target="ZrBld9MpJwMKs5OXjKC9-1">
          <mxGeometry relative="1" as="geometry" />
        </mxCell>
        <mxCell id="oq5VA6-1Cgyp9ncrCatL-58" value="点击回复按钮" style="rounded=0;whiteSpace=wrap;html=1;" vertex="1" parent="1">
          <mxGeometry x="430" y="510" width="80" height="30" as="geometry" />
        </mxCell>
        <mxCell id="oq5VA6-1Cgyp9ncrCatL-59" value="" style="endArrow=none;html=1;rounded=0;exitX=0.5;exitY=1;exitDx=0;exitDy=0;" edge="1" parent="1" source="ZrBld9MpJwMKs5OXjKC9-1">
          <mxGeometry width="50" height="50" relative="1" as="geometry">
            <mxPoint x="470" y="600" as="sourcePoint" />
            <mxPoint x="600" y="710" as="targetPoint" />
            <Array as="points">
              <mxPoint x="470" y="710" />
            </Array>
          </mxGeometry>
        </mxCell>
        <mxCell id="ZrBld9MpJwMKs5OXjKC9-1" value="输入回复信息" style="rounded=0;whiteSpace=wrap;html=1;" vertex="1" parent="1">
          <mxGeometry x="430" y="570" width="80" height="30" as="geometry" />
        </mxCell>
      </root>
    </mxGraphModel>
  </diagram>
</mxfile>
